{
.appVersion = "1141";
DisplayStrings = (

glyphs = (
{
color = 7;
glyphname = .notdef;
lastChange = "2018-05-23 10:52:06 +0000";
layers = (
{
background = {
paths = (
{
closed = 1;
nodes = (
"-2 710 LINE",
"-2 0 LINE",
"562 0 LINE",
"562 710 LINE"
);
},
{
closed = 1;
nodes = (
"481 48 LINE",
"79 48 LINE",
"281 314 LINE"
);
},
{
closed = 1;
nodes = (
"249 353 LINE",
"51 89 LINE",
"51 619 LINE"
);
},
{
closed = 1;
nodes = (
"509 89 LINE",
"309 356 LINE",
"509 619 LINE"
);
},
{
closed = 1;
nodes = (
"278 396 LINE",
"79 662 LINE",
"481 662 LINE"
);
}
);
};
layerId = "84435905-EDCB-4949-A8A3-0E53308A2F50";
paths = (
{
closed = 1;
nodes = (
"48 710 LINE",
"48 0 LINE",
"612 0 LINE",
"612 710 LINE"
);
},
{
closed = 1;
nodes = (
"531 48 LINE",
"129 48 LINE",
"331 314 LINE"
);
},
{
closed = 1;
nodes = (
"299 353 LINE",
"101 89 LINE",
"101 619 LINE"
);
},
{
closed = 1;
nodes = (
"559 89 LINE",
"359 356 LINE",
"559 619 LINE"
);
},
{
closed = 1;
nodes = (
"328 396 LINE",
"129 662 LINE",
"531 662 LINE"
);
}
);
width = 660;
},
{
background = {
paths = (
{
closed = 1;
nodes = (
"64 710 LINE",
"64 0 LINE",
"628 0 LINE",
"628 710 LINE"
);
},
{
closed = 1;
nodes = (
"547 48 LINE",
"145 48 LINE",
"347 314 LINE"
);
},
{
closed = 1;
nodes = (
"315 353 LINE",
"117 89 LINE",
"117 619 LINE"
);
},
{
closed = 1;
nodes = (
"575 89 LINE",
"375 356 LINE",
"575 619 LINE"
);
},
{
closed = 1;
nodes = (
"344 396 LINE",
"145 662 LINE",
"547 662 LINE"
);
}
);
};
layerId = "BBFAEC79-FC1B-4455-8BF7-285C9CA7D1F7";
paths = (
{
closed = 1;
nodes = (
"80 710 LINE",
"80 0 LINE",
"644 0 LINE",
"644 710 LINE"
);
},
{
closed = 1;
nodes = (
"563 48 LINE",
"161 48 LINE",
"363 314 LINE"
);
},
{
closed = 1;
nodes = (
"331 353 LINE",
"133 89 LINE",
"133 619 LINE"
);
},
{
closed = 1;
nodes = (
"591 89 LINE",
"391 356 LINE",
"591 619 LINE"
);
},
{
closed = 1;
nodes = (
"360 396 LINE",
"161 662 LINE",
"563 662 LINE"
);
}
);
width = 724;
},
{
background = {
paths = (
{
closed = 1;
nodes = (
"100 710 LINE",
"100 0 LINE",
"664 0 LINE",
"664 710 LINE"
);
},
{
closed = 1;
nodes = (
"583 48 LINE",
"181 48 LINE",
"383 314 LINE"
);
},
{
closed = 1;
nodes = (
"351 353 LINE",
"153 89 LINE",
"153 619 LINE"
);
},
{
closed = 1;
nodes = (
"611 89 LINE",
"411 356 LINE",
"611 619 LINE"
);
},
{
closed = 1;
nodes = (
"380 396 LINE",
"181 662 LINE",
"583 662 LINE"
);
}
);
};
layerId = "12E3E5E3-6B17-4D77-9A28-32D63F2CCD05";
paths = (
{
closed = 1;
nodes = (
"100 710 LINE",
"100 0 LINE",
"664 0 LINE",
"664 710 LINE"
);
},
{
closed = 1;
nodes = (
"583 48 LINE",
"181 48 LINE",
"383 314 LINE"
);
},
{
closed = 1;
nodes = (
"351 353 LINE",
"153 89 LINE",
"153 619 LINE"
);
},
{
closed = 1;
nodes = (
"611 89 LINE",
"411 356 LINE",
"611 619 LINE"
);
},
{
closed = 1;
nodes = (
"380 396 LINE",
"181 662 LINE",
"583 662 LINE"
);
}
);
width = 764;
}
);
leftMetricsKey = H;
rightMetricsKey = H;
},
{
color = 9;
glyphname = A;
lastChange = "2018-05-23 14:56:06 +0000";
layers = (
{
anchors = (
{
name = bottom;
position = "{354, 0}";
},
{
name = ogonek;
position = "{690, 0}";
},
{
name = top;
position = "{355, 690}";
}
);
background = {
paths = (
{
closed = 1;
nodes = (
"565 111 LINE",
"565 263 LINE",
"146 263 LINE",
"146 111 LINE"
);
},
{
closed = 1;
nodes = (
"513 710 LINE",
"203 710 LINE",
"-14 0 LINE",
"192 0 LINE",
"350 566 LINE",
"357 566 LINE",
"505 0 LINE",
"730 0 LINE"
);
}
);
};
layerId = "84435905-EDCB-4949-A8A3-0E53308A2F50";
paths = (
{
closed = 1;
nodes = (
"552 111 LINE",
"552 263 LINE",
"159 263 LINE",
"159 111 LINE"
);
},
{
closed = 1;
nodes = (
"513 690 LINE",
"203 690 LINE",
"5 0 LINE",
"211 0 LINE",
"353 556 LINE",
"354 556 LINE",
"486 0 LINE",
"711 0 LINE"
);
}
);
width = 716;
},
{
anchors = (
{
name = bottom;
position = "{325, 0}";
},
{
name = ogonek;
position = "{640, 0}";
},
{
name = top;
position = "{320, 690}";
}
);
background = {
paths = (
{
closed = 1;
nodes = (
"509 164 LINE",
"509 248 LINE",
"130 248 LINE",
"130 164 LINE"
);
},
{
closed = 1;
nodes = (
"373 690 LINE",
"272 690 LINE",
"5 0 LINE",
"112 0 LINE",
"321 568 LINE",
"322 568 LINE",
"526 0 LINE",
"637 0 LINE"
);
}
);
};
layerId = "BBFAEC79-FC1B-4455-8BF7-285C9CA7D1F7";
paths = (
{
closed = 1;
nodes = (
"509 164 LINE",
"509 248 LINE",
"130 248 LINE",
"130 164 LINE"
);
},
{
closed = 1;
nodes = (
"390 690 LINE",
"255 690 LINE",
"5 0 LINE",
"112 0 LINE",
"321 608 LINE",
"322 608 LINE",
"526 0 LINE",
"637 0 LINE"
);
}
);
width = 642;
},
{
anchors = (
{
name = bottom;
position = "{296, 0}";
},
{
name = ogonek;
position = "{579, 0}";
},
{
name = top;
position = "{296, 690}";
}
);
background = {
paths = (
{
closed = 1;
nodes = (
"498 172 LINE",
"498 219 LINE",
"90 219 LINE",
"90 172 LINE"
);
},
{
closed = 1;
nodes = (
"328 710 LINE",
"263 710 LINE",
"-20 0 LINE",
"37 0 LINE",
"293 648 LINE",
"297 648 LINE",
"553 0 LINE",
"610 0 LINE"
);
}
);
};
layerId = "12E3E5E3-6B17-4D77-9A28-32D63F2CCD05";
paths = (
{
closed = 1;
nodes = (
"489 203 LINE",
"482 221 LINE",
"111 221 LINE",
"104 203 LINE"
);
},
{
closed = 1;
nodes = (
"306 690 LINE",
"285 690 LINE",
"5 0 LINE",
"26 0 LINE",
"295 664 LINE",
"296 664 LINE",
"564 0 LINE",
"586 0 LINE"
);
}
);
userData = {
RMXScaler = {
height = 97.3;
width = 97.3;
};
};
width = 591;
}
);
unicode = 0041;
userData = {
RMXScaler = {
source = A;
};
};
},
{
color = 9;
glyphname = B;
lastChange = "2018-05-09 14:57:50 +0000";
layers = (
{
background = {
paths = (
{
closed = 1;
nodes = (
"260 0 LINE",
"260 710 LINE",
"48 710 LINE",
"48 0 LINE"
);
},
{
closed = 1;
nodes = (
"560 360 LINE",
"638 383 OFFCURVE",
"673 434 OFFCURVE",
"673 529 CURVE SMOOTH",
"673 639 OFFCURVE",
"595 710 OFFCURVE",
"422 710 CURVE SMOOTH",
"241 710 LINE",
"241 556 LINE",
"384 556 LINE SMOOTH",
"438 556 OFFCURVE",
"462 543 OFFCURVE",
"462 491 CURVE SMOOTH",
"462 445 OFFCURVE",
"438 425 OFFCURVE",
"384 425 CURVE SMOOTH",
"241 425 LINE",
"241 285 LINE",
"401 285 LINE SMOOTH",
"455 285 OFFCURVE",
"481 266 OFFCURVE",
"481 220 CURVE SMOOTH",
"481 168 OFFCURVE",
"455 154 OFFCURVE",
"401 154 CURVE SMOOTH",
"241 154 LINE",
"241 0 LINE",
"438 0 LINE SMOOTH",
"612 0 OFFCURVE",
"691 71 OFFCURVE",
"691 186 CURVE SMOOTH",
"691 287 OFFCURVE",
"650 336 OFFCURVE",
"560 354 CURVE"
);
}
);
};
layerId = "84435905-EDCB-4949-A8A3-0E53308A2F50";
paths = (
{
closed = 1;
nodes = (
"260 -1 LINE",
"260 690 LINE",
"48 690 LINE",
"48 -1 LINE"
);
},
{
closed = 1;
nodes = (
"415 -1 LINE SMOOTH",
"591 -1 OFFCURVE",
"670 70 OFFCURVE",
"670 190 CURVE SMOOTH",
"670 276 OFFCURVE",
"629 328 OFFCURVE",
"549 346 CURVE",
"549 347 LINE",
"607 370 OFFCURVE",
"651 415 OFFCURVE",
"651 504 CURVE SMOOTH",
"651 619 OFFCURVE",
"574 690 OFFCURVE",
"399 690 CURVE SMOOTH",
"241 690 LINE",
"241 536 LINE",
"361 536 LINE SMOOTH",
"415 536 OFFCURVE",
"439 523 OFFCURVE",
"439 476 CURVE SMOOTH",
"439 434 OFFCURVE",
"415 414 OFFCURVE",
"361 414 CURVE SMOOTH",
"241 414 LINE",
"241 274 LINE",
"378 274 LINE SMOOTH",
"432 274 OFFCURVE",
"458 255 OFFCURVE",
"458 214 CURVE SMOOTH",
"458 167 OFFCURVE",
"432 153 OFFCURVE",
"378 153 CURVE SMOOTH",
"241 153 LINE",
"241 -1 LINE"
);
}
);
width = 695;
},
{
background = {
paths = (
{
closed = 1;
nodes = (
"183 0 LINE",
"183 710 LINE",
"80 710 LINE",
"80 0 LINE"
);
},
{
closed = 1;
nodes = (
"513 360 LINE",
"595 379 OFFCURVE",
"636 431 OFFCURVE",
"636 529 CURVE SMOOTH",
"636 640 OFFCURVE",
"575 710 OFFCURVE",
"407 710 CURVE SMOOTH",
"168 710 LINE",
"168 623 LINE",
"400 623 LINE SMOOTH",
"492 623 OFFCURVE",
"534 591 OFFCURVE",
"534 510 CURVE SMOOTH",
"534 435 OFFCURVE",
"492 396 OFFCURVE",
"400 396 CURVE SMOOTH",
"168 396 LINE",
"168 314 LINE",
"404 314 LINE SMOOTH",
"502 314 OFFCURVE",
"551 282 OFFCURVE",
"551 200 CURVE SMOOTH",
"551 116 OFFCURVE",
"502 87 OFFCURVE",
"404 87 CURVE SMOOTH",
"168 87 LINE",
"168 0 LINE",
"408 0 LINE SMOOTH",
"578 0 OFFCURVE",
"653 70 OFFCURVE",
"653 186 CURVE SMOOTH",
"653 293 OFFCURVE",
"601 337 OFFCURVE",
"513 354 CURVE"
);
}
);
};
layerId = "BBFAEC79-FC1B-4455-8BF7-285C9CA7D1F7";
paths = (
{
closed = 1;
nodes = (
"183 0 LINE",
"183 690 LINE",
"80 690 LINE",
"80 0 LINE"
);
},
{
closed = 1;
nodes = (
"378 0 LINE SMOOTH",
"538 0 OFFCURVE",
"613 70 OFFCURVE",
"613 182 CURVE SMOOTH",
"613 285 OFFCURVE",
"561 332 OFFCURVE",
"483 349 CURVE",
"483 350 LINE",
"555 369 OFFCURVE",
"596 423 OFFCURVE",
"596 515 CURVE SMOOTH",
"596 620 OFFCURVE",
"535 690 OFFCURVE",
"377 690 CURVE SMOOTH",
"168 690 LINE",
"168 603 LINE",
"370 603 LINE SMOOTH",
"452 603 OFFCURVE",
"494 571 OFFCURVE",
"494 496 CURVE SMOOTH",
"494 427 OFFCURVE",
"452 388 OFFCURVE",
"370 388 CURVE SMOOTH",
"168 388 LINE",
"168 306 LINE",
"374 306 LINE SMOOTH",
"462 306 OFFCURVE",
"511 274 OFFCURVE",
"511 196 CURVE SMOOTH",
"511 116 OFFCURVE",
"462 87 OFFCURVE",
"374 87 CURVE SMOOTH",
"168 87 LINE",
"168 0 LINE"
);
}
);
width = 658;
},
{
background = {
paths = (
{
closed = 1;
nodes = (
"137 0 LINE",
"137 710 LINE",
"83 710 LINE",
"83 0 LINE"
);
},
{
closed = 1;
nodes = (
"474 359 LINE",
"556 376 OFFCURVE",
"601 428 OFFCURVE",
"601 528 CURVE SMOOTH",
"601 639 OFFCURVE",
"537 710 OFFCURVE",
"378 710 CURVE SMOOTH",
"125 710 LINE",
"125 661 LINE",
"386 661 LINE SMOOTH",
"498 661 OFFCURVE",
"547 607 OFFCURVE",
"547 521 CURVE SMOOTH",
"547 433 OFFCURVE",
"498 379 OFFCURVE",
"386 379 CURVE SMOOTH",
"125 379 LINE",
"125 330 LINE",
"383 330 LINE SMOOTH",
"503 330 OFFCURVE",
"564 289 OFFCURVE",
"564 190 CURVE SMOOTH",
"564 93 OFFCURVE",
"503 49 OFFCURVE",
"383 49 CURVE SMOOTH",
"125 49 LINE",
"125 0 LINE",
"375 0 LINE SMOOTH",
"535 0 OFFCURVE",
"618 67 OFFCURVE",
"618 185 CURVE SMOOTH",
"618 299 OFFCURVE",
"555 341 OFFCURVE",
"474 355 CURVE"
);
}
);
};
layerId = "12E3E5E3-6B17-4D77-9A28-32D63F2CCD05";
paths = (
{
closed = 1;
nodes = (
"120 0 LINE",
"120 690 LINE",
"100 690 LINE",
"100 0 LINE"
);
},
{
closed = 1;
nodes = (
"370 0 LINE SMOOTH",
"509 0 OFFCURVE",
"577 67 OFFCURVE",
"577 185 CURVE SMOOTH",
"577 301 OFFCURVE",
"504 340 OFFCURVE",
"438 352 CURVE",
"438 353 LINE",
"501 367 OFFCURVE",
"557 425 OFFCURVE",
"557 517 CURVE SMOOTH",
"557 631 OFFCURVE",
"490 690 OFFCURVE",
"355 690 CURVE SMOOTH",
"110 690 LINE",
"110 672 LINE",
"355 672 LINE SMOOTH",
"479 672 OFFCURVE",
"537 619 OFFCURVE",
"537 517 CURVE SMOOTH",
"537 435 OFFCURVE",
"487 360 OFFCURVE",
"375 360 CURVE SMOOTH",
"110 360 LINE",
"110 342 LINE",
"375 342 LINE SMOOTH",
"487 342 OFFCURVE",
"557 292 OFFCURVE",
"557 185 CURVE SMOOTH",
"557 78 OFFCURVE",
"498 18 OFFCURVE",
"370 18 CURVE SMOOTH",
"110 18 LINE",
"110 0 LINE"
);
}
);
userData = {
RMXScaler = {
height = 97.3;
width = 97.3;
};
};
width = 637;
}
);
leftMetricsKey = H;
unicode = 0042;
userData = {
RMXScaler = {
source = B;
};
};
},
{
color = 9;
glyphname = C;
lastChange = "2018-05-09 15:28:16 +0000";
layers = (
{
anchors = (
{
name = bottom;
position = "{376, 0}";
},
{
name = top;
position = "{371, 710}";
}
);
background = {
paths = (
{
closed = 1;
nodes = (
"576 -15 OFFCURVE",
"684 78 OFFCURVE",
"700 257 CURVE",
"494 277 LINE",
"483 196 OFFCURVE",
"448 158 OFFCURVE",
"371 158 CURVE SMOOTH",
"284 158 OFFCURVE",
"242 212 OFFCURVE",
"242 353 CURVE SMOOTH",
"242 491 OFFCURVE",
"282 552 OFFCURVE",
"368 552 CURVE SMOOTH",
"441 552 OFFCURVE",
"481 517 OFFCURVE",
"493 432 CURVE",
"699 452 LINE",
"687 623 OFFCURVE",
"570 725 OFFCURVE",
"368 725 CURVE SMOOTH",
"141 725 OFFCURVE",
"17 592 OFFCURVE",
"17 353 CURVE SMOOTH",
"17 120 OFFCURVE",
"141 -15 OFFCURVE",
"368 -15 CURVE SMOOTH"
);
}
);
};
layerId = "84435905-EDCB-4949-A8A3-0E53308A2F50";
paths = (
{
closed = 1;
nodes = (
"566 -15 OFFCURVE",
"664 69 OFFCURVE",
"690 278 CURVE",
"484 278 LINE",
"463 197 OFFCURVE",
"448 158 OFFCURVE",
"371 158 CURVE SMOOTH",
"295 158 OFFCURVE",
"255 212 OFFCURVE",
"255 343 CURVE SMOOTH",
"255 471 OFFCURVE",
"293 532 OFFCURVE",
"368 532 CURVE SMOOTH",
"441 532 OFFCURVE",
"461 497 OFFCURVE",
"483 422 CURVE",
"689 422 LINE",
"667 618 OFFCURVE",
"560 705 OFFCURVE",
"368 705 CURVE SMOOTH",
"154 705 OFFCURVE",
"30 572 OFFCURVE",
"30 343 CURVE SMOOTH",
"30 120 OFFCURVE",
"154 -15 OFFCURVE",
"368 -15 CURVE SMOOTH"
);
}
);
width = 720;
},
{
anchors = (
{
name = bottom;
position = "{363, 0}";
},
{
name = top;
position = "{359, 690}";
}
);
background = {
paths = (
{
closed = 1;
nodes = (
"546 -15 OFFCURVE",
"652 71 OFFCURVE",
"675 228 CURVE",
"570 236 LINE",
"547 123 OFFCURVE",
"487 76 OFFCURVE",
"363 76 CURVE SMOOTH",
"214 76 OFFCURVE",
"134 176 OFFCURVE",
"134 355 CURVE SMOOTH",
"134 534 OFFCURVE",
"214 634 OFFCURVE",
"362 634 CURVE SMOOTH",
"484 634 OFFCURVE",
"544 583 OFFCURVE",
"569 475 CURVE",
"673 482 LINE",
"650 639 OFFCURVE",
"542 725 OFFCURVE",
"362 725 CURVE SMOOTH",
"152 725 OFFCURVE",
"26 587 OFFCURVE",
"26 355 CURVE SMOOTH",
"26 123 OFFCURVE",
"151 -15 OFFCURVE",
"363 -15 CURVE SMOOTH"
);
}
);
};
layerId = "BBFAEC79-FC1B-4455-8BF7-285C9CA7D1F7";
paths = (
{
closed = 1;
nodes = (
"528 -15 OFFCURVE",
"617 64 OFFCURVE",
"663 241 CURVE",
"556 241 LINE",
"520 128 OFFCURVE",
"477 76 OFFCURVE",
"360 76 CURVE SMOOTH",
"226 76 OFFCURVE",
"152 176 OFFCURVE",
"152 345 CURVE SMOOTH",
"152 514 OFFCURVE",
"227 614 OFFCURVE",
"360 614 CURVE SMOOTH",
"472 614 OFFCURVE",
"520 567 OFFCURVE",
"555 459 CURVE",
"661 459 LINE",
"618 636 OFFCURVE",
"525 705 OFFCURVE",
"360 705 CURVE SMOOTH",
"165 705 OFFCURVE",
"45 567 OFFCURVE",
"45 345 CURVE SMOOTH",
"45 123 OFFCURVE",
"163 -15 OFFCURVE",
"360 -15 CURVE SMOOTH"
);
}
);
width = 708;
},
{
anchors = (
{
name = bottom;
position = "{356, 0}";
},
{
name = top;
position = "{352, 690}";
}
);
background = {
paths = (
{
closed = 1;
nodes = (
"520 -15 OFFCURVE",
"620 71 OFFCURVE",
"648 216 CURVE",
"593 221 LINE",
"565 96 OFFCURVE",
"493 36 OFFCURVE",
"355 36 CURVE SMOOTH",
"181 36 OFFCURVE",
"91 153 OFFCURVE",
"91 355 CURVE SMOOTH",
"91 557 OFFCURVE",
"181 674 OFFCURVE",
"355 674 CURVE SMOOTH",
"493 674 OFFCURVE",
"562 617 OFFCURVE",
"592 490 CURVE",
"647 495 LINE",
"617 642 OFFCURVE",
"519 725 OFFCURVE",
"355 725 CURVE SMOOTH",
"155 725 OFFCURVE",
"34 585 OFFCURVE",
"34 355 CURVE SMOOTH",
"34 125 OFFCURVE",
"155 -15 OFFCURVE",
"355 -15 CURVE SMOOTH"
);
}
);
};
layerId = "12E3E5E3-6B17-4D77-9A28-32D63F2CCD05";
paths = (
{
closed = 1;
nodes = (
"484 -15 OFFCURVE",
"573 49 OFFCURVE",
"620 210 CURVE",
"600 210 LINE",
"556 66 OFFCURVE",
"478 4 OFFCURVE",
"348 4 CURVE SMOOTH",
"180 4 OFFCURVE",
"70 119 OFFCURVE",
"70 346 CURVE SMOOTH",
"70 571 OFFCURVE",
"180 686 OFFCURVE",
"348 686 CURVE SMOOTH",
"475 686 OFFCURVE",
"552 634 OFFCURVE",
"595 485 CURVE",
"615 485 LINE",
"569 651 OFFCURVE",
"481 705 OFFCURVE",
"348 705 CURVE SMOOTH",
"170 705 OFFCURVE",
"50 583 OFFCURVE",
"50 346 CURVE SMOOTH",
"50 107 OFFCURVE",
"170 -15 OFFCURVE",
"348 -15 CURVE SMOOTH"
);
}
);
userData = {
RMXScaler = {
height = 97.3;
width = 97.3;
};
};
width = 670;
}
);
leftMetricsKey = O;
unicode = 0043;
userData = {
RMXScaler = {
source = C;
};
};
},
{
color = 9;
glyphname = D;
lastChange = "2018-05-23 21:56:14 +0000";
layers = (
{
anchors = (
{
name = top;
position = "{332, 710}";
}
);
background = {
paths = (
{
closed = 1;
nodes = (
"268 0 LINE",
"268 710 LINE",
"48 710 LINE",
"48 0 LINE"
);
},
{
closed = 1;
nodes = (
"227 167 LINE",
"227 0 LINE",
"364 0 LINE SMOOTH",
"590 0 OFFCURVE",
"721 118 OFFCURVE",
"721 355 CURVE SMOOTH",
"721 595 OFFCURVE",
"589 710 OFFCURVE",
"375 710 CURVE SMOOTH",
"227 710 LINE",
"227 543 LINE",
"347 543 LINE SMOOTH",
"449 543 OFFCURVE",
"496 491 OFFCURVE",
"496 355 CURVE SMOOTH",
"496 219 OFFCURVE",
"449 167 OFFCURVE",
"347 167 CURVE SMOOTH"
);
}
);
};
layerId = "84435905-EDCB-4949-A8A3-0E53308A2F50";
paths = (
{
closed = 1;
nodes = (
"268 0 LINE",
"268 690 LINE",
"48 690 LINE",
"48 0 LINE"
);
},
{
closed = 1;
nodes = (
"227 167 LINE",
"227 0 LINE",
"341 0 LINE SMOOTH",
"567 0 OFFCURVE",
"698 118 OFFCURVE",
"698 345 CURVE SMOOTH",
"698 575 OFFCURVE",
"566 690 OFFCURVE",
"352 690 CURVE SMOOTH",
"227 690 LINE",
"227 523 LINE",
"324 523 LINE SMOOTH",
"426 523 OFFCURVE",
"473 471 OFFCURVE",
"473 345 CURVE SMOOTH",
"473 219 OFFCURVE",
"426 167 OFFCURVE",
"324 167 CURVE SMOOTH"
);
}
);
width = 728;
},
{
anchors = (
{
name = top;
position = "{298, 690}";
}
);
background = {
paths = (
{
closed = 1;
nodes = (
"185 0 LINE",
"185 710 LINE",
"80 710 LINE",
"80 0 LINE"
);
},
{
closed = 1;
nodes = (
"150 90 LINE",
"150 0 LINE",
"327 0 LINE SMOOTH",
"563 0 OFFCURVE",
"669 111 OFFCURVE",
"669 355 CURVE SMOOTH",
"669 602 OFFCURVE",
"562 710 OFFCURVE",
"337 710 CURVE SMOOTH",
"150 710 LINE",
"150 620 LINE",
"335 620 LINE SMOOTH",
"486 620 OFFCURVE",
"562 559 OFFCURVE",
"562 355 CURVE SMOOTH",
"562 151 OFFCURVE",
"486 90 OFFCURVE",
"335 90 CURVE SMOOTH"
);
}
);
};
layerId = "BBFAEC79-FC1B-4455-8BF7-285C9CA7D1F7";
paths = (
{
closed = 1;
nodes = (
"185 0 LINE",
"185 690 LINE",
"80 690 LINE",
"80 0 LINE"
);
},
{
closed = 1;
nodes = (
"150 90 LINE",
"150 0 LINE",
"297 0 LINE SMOOTH",
"533 0 OFFCURVE",
"639 111 OFFCURVE",
"639 345 CURVE SMOOTH",
"639 582 OFFCURVE",
"532 690 OFFCURVE",
"307 690 CURVE SMOOTH",
"150 690 LINE",
"150 600 LINE",
"305 600 LINE SMOOTH",
"456 600 OFFCURVE",
"532 539 OFFCURVE",
"532 345 CURVE SMOOTH",
"532 151 OFFCURVE",
"456 90 OFFCURVE",
"305 90 CURVE SMOOTH"
);
}
);
width = 684;
},
{
anchors = (
{
name = top;
position = "{300, 690}";
}
);
background = {
paths = (
{
closed = 1;
nodes = (
"148 0 LINE",
"148 710 LINE",
"93 710 LINE",
"93 0 LINE"
);
},
{
closed = 1;
nodes = (
"118 50 LINE",
"118 0 LINE",
"301 0 LINE SMOOTH",
"541 0 OFFCURVE",
"645 105 OFFCURVE",
"645 353 CURVE SMOOTH",
"645 606 OFFCURVE",
"540 710 OFFCURVE",
"310 710 CURVE SMOOTH",
"118 710 LINE",
"118 660 LINE",
"319 660 LINE SMOOTH",
"499 660 OFFCURVE",
"588 589 OFFCURVE",
"588 353 CURVE SMOOTH",
"588 121 OFFCURVE",
"499 50 OFFCURVE",
"319 50 CURVE SMOOTH"
);
}
);
};
layerId = "12E3E5E3-6B17-4D77-9A28-32D63F2CCD05";
paths = (
{
closed = 1;
nodes = (
"120 0 LINE",
"120 690 LINE",
"100 690 LINE",
"100 0 LINE"
);
},
{
closed = 1;
nodes = (
"108 18 LINE",
"108 0 LINE",
"311 0 LINE SMOOTH",
"500 0 OFFCURVE",
"610 107 OFFCURVE",
"610 345 CURVE SMOOTH",
"610 583 OFFCURVE",
"500 690 OFFCURVE",
"311 690 CURVE SMOOTH",
"110 690 LINE",
"110 672 LINE",
"310 672 LINE SMOOTH",
"488 672 OFFCURVE",
"590 574 OFFCURVE",
"590 345 CURVE SMOOTH",
"590 116 OFFCURVE",
"488 18 OFFCURVE",
"310 18 CURVE SMOOTH"
);
}
);
userData = {
RMXScaler = {
height = 97.3;
width = 97.3;
};
};
width = 660;
}
);
leftMetricsKey = H;
rightMetricsKey = O;
unicode = 0044;
userData = {
RMXScaler = {
source = D;
};
};
},
{
color = 9;
glyphname = E;
lastChange = "2018-05-09 13:19:46 +0000";
layers = (
{
anchors = (
{
name = bottom;
position = "{349, 0}";
},
{
name = ogonek;
position = "{581, 0}";
},
{
name = top;
position = "{342, 690}";
}
);
background = {
paths = (
{
closed = 1;
nodes = (
"263 0 LINE",
"263 710 LINE",
"48 710 LINE",
"48 0 LINE"
);
},
{
closed = 1;
nodes = (
"621 537 LINE",
"621 710 LINE",
"167 710 LINE",
"167 537 LINE"
);
},
{
closed = 1;
nodes = (
"551 279 LINE",
"551 430 LINE",
"185 430 LINE",
"185 279 LINE"
);
},
{
closed = 1;
nodes = (
"621 0 LINE",
"621 173 LINE",
"167 173 LINE",
"167 0 LINE"
);
}
);
};
layerId = "84435905-EDCB-4949-A8A3-0E53308A2F50";
paths = (
{
closed = 1;
nodes = (
"263 0 LINE",
"263 690 LINE",
"48 690 LINE",
"48 0 LINE"
);
},
{
closed = 1;
nodes = (
"593 517 LINE",
"593 690 LINE",
"167 690 LINE",
"167 517 LINE"
);
},
{
closed = 1;
nodes = (
"523 269 LINE",
"523 420 LINE",
"185 420 LINE",
"185 269 LINE"
);
},
{
closed = 1;
nodes = (
"593 0 LINE",
"593 173 LINE",
"167 173 LINE",
"167 0 LINE"
);
}
);
width = 623;
},
{
anchors = (
{
name = bottom;
position = "{335, 0}";
},
{
name = ogonek;
position = "{538, 0}";
},
{
name = top;
position = "{324, 690}";
}
);
background = {
paths = (
{
closed = 1;
nodes = (
"185 0 LINE",
"185 710 LINE",
"80 710 LINE",
"80 0 LINE"
);
},
{
closed = 1;
nodes = (
"586 620 LINE",
"586 710 LINE",
"153 710 LINE",
"153 620 LINE"
);
},
{
closed = 1;
nodes = (
"521 314 LINE",
"521 400 LINE",
"166 400 LINE",
"166 314 LINE"
);
},
{
closed = 1;
nodes = (
"586 0 LINE",
"586 90 LINE",
"153 90 LINE",
"153 0 LINE"
);
}
);
};
layerId = "BBFAEC79-FC1B-4455-8BF7-285C9CA7D1F7";
paths = (
{
closed = 1;
nodes = (
"185 0 LINE",
"185 690 LINE",
"80 690 LINE",
"80 0 LINE"
);
},
{
closed = 1;
nodes = (
"556 600 LINE",
"556 690 LINE",
"153 690 LINE",
"153 600 LINE"
);
},
{
closed = 1;
nodes = (
"491 304 LINE",
"491 390 LINE",
"166 390 LINE",
"166 304 LINE"
);
},
{
closed = 1;
nodes = (
"556 0 LINE",
"556 90 LINE",
"153 90 LINE",
"153 0 LINE"
);
}
);
width = 606;
},
{
anchors = (
{
name = bottom;
position = "{325, 0}";
},
{
name = ogonek;
position = "{525, 0}";
},
{
name = top;
position = "{313, 690}";
}
);
background = {
paths = (
{
closed = 1;
nodes = (
"128 0 LINE",
"128 710 LINE",
"73 710 LINE",
"73 0 LINE"
);
},
{
closed = 1;
nodes = (
"543 660 LINE",
"543 710 LINE",
"115 710 LINE",
"115 660 LINE"
);
},
{
closed = 1;
nodes = (
"477 339 LINE",
"477 387 LINE",
"115 387 LINE",
"115 339 LINE"
);
},
{
closed = 1;
nodes = (
"543 0 LINE",
"543 50 LINE",
"115 50 LINE",
"115 0 LINE"
);
}
);
};
layerId = "12E3E5E3-6B17-4D77-9A28-32D63F2CCD05";
paths = (
{
closed = 1;
nodes = (
"120 0 LINE",
"120 690 LINE",
"100 690 LINE",
"100 0 LINE"
);
},
{
closed = 1;
nodes = (
"520 671 LINE",
"520 690 LINE",
"109 690 LINE",
"109 671 LINE"
);
},
{
closed = 1;
nodes = (
"460 342 LINE",
"460 361 LINE",
"111 361 LINE",
"111 342 LINE"
);
},
{
closed = 1;
nodes = (
"520 0 LINE",
"520 19 LINE",
"111 19 LINE",
"111 0 LINE"
);
}
);
userData = {
RMXScaler = {
height = 97.3;
width = 97.3;
};
};
width = 570;
}
);
leftMetricsKey = H;
unicode = 0045;
userData = {
RMXScaler = {
source = E;
};
};
},
{
color = 9;
glyphname = F;
lastChange = "2018-05-09 13:21:09 +0000";
layers = (
{
background = {
paths = (
{
closed = 1;
nodes = (
"268 0 LINE",
"268 710 LINE",
"48 710 LINE",
"48 0 LINE"
);
},
{
closed = 1;
nodes = (
"604 537 LINE",
"604 710 LINE",
"168 710 LINE",
"168 537 LINE"
);
},
{
closed = 1;
nodes = (
"541 248 LINE",
"541 401 LINE",
"168 401 LINE",
"168 248 LINE"
);
}
);
};
layerId = "84435905-EDCB-4949-A8A3-0E53308A2F50";
paths = (
{
closed = 1;
nodes = (
"268 0 LINE",
"268 690 LINE",
"48 690 LINE",
"48 0 LINE"
);
},
{
closed = 1;
nodes = (
"573 517 LINE",
"573 690 LINE",
"168 690 LINE",
"168 517 LINE"
);
},
{
closed = 1;
nodes = (
"510 238 LINE",
"510 391 LINE",
"168 391 LINE",
"168 238 LINE"
);
}
);
width = 588;
},
{
background = {
paths = (
{
closed = 1;
nodes = (
"185 0 LINE",
"185 710 LINE",
"80 710 LINE",
"80 0 LINE"
);
},
{
closed = 1;
nodes = (
"567 620 LINE",
"567 710 LINE",
"154 710 LINE",
"154 620 LINE"
);
},
{
closed = 1;
nodes = (
"502 300 LINE",
"502 387 LINE",
"154 387 LINE",
"154 300 LINE"
);
}
);
};
layerId = "BBFAEC79-FC1B-4455-8BF7-285C9CA7D1F7";
paths = (
{
closed = 1;
nodes = (
"185 0 LINE",
"185 690 LINE",
"80 690 LINE",
"80 0 LINE"
);
},
{
closed = 1;
nodes = (
"537 600 LINE",
"537 690 LINE",
"154 690 LINE",
"154 600 LINE"
);
},
{
closed = 1;
nodes = (
"472 290 LINE",
"472 377 LINE",
"154 377 LINE",
"154 290 LINE"
);
}
);
width = 567;
},
{
background = {
paths = (
{
closed = 1;
nodes = (
"175 0 LINE",
"175 710 LINE",
"120 710 LINE",
"120 0 LINE"
);
},
{
closed = 1;
nodes = (
"577 660 LINE",
"577 710 LINE",
"162 710 LINE",
"162 660 LINE"
);
},
{
closed = 1;
nodes = (
"510 331 LINE",
"510 379 LINE",
"162 379 LINE",
"162 331 LINE"
);
}
);
};
layerId = "12E3E5E3-6B17-4D77-9A28-32D63F2CCD05";
paths = (
{
closed = 1;
nodes = (
"120 0 LINE",
"120 690 LINE",
"100 690 LINE",
"100 0 LINE"
);
},
{
closed = 1;
nodes = (
"505 671 LINE",
"505 690 LINE",
"109 690 LINE",
"109 671 LINE"
);
},
{
closed = 1;
nodes = (
"454 342 LINE",
"454 361 LINE",
"111 361 LINE",
"111 342 LINE"
);
}
);
userData = {
RMXScaler = {
height = 97.3;
width = 97.3;
};
};
width = 525;
}
);
leftMetricsKey = H;
unicode = 0046;
userData = {
RMXScaler = {
source = F;
};
};
},
{
color = 9;
glyphname = G;
lastChange = "2018-05-09 15:29:59 +0000";
layers = (
{
anchors = (
{
name = bottom;
position = "{367, 0}";
},
{
name = top;
position = "{380, 690}";
}
);
background = {
paths = (
{
closed = 1;
nodes = (
"442 -16 OFFCURVE",
"503 40 OFFCURVE",
"530 101 CURVE",
"537 101 LINE",
"562 0 LINE",
"718 0 LINE",
"718 393 LINE",
"387 393 LINE",
"387 253 LINE",
"566 253 LINE",
"530 288 LINE",
"523 195 OFFCURVE",
"469 144 OFFCURVE",
"380 144 CURVE SMOOTH",
"272 144 OFFCURVE",
"235 213 OFFCURVE",
"235 353 CURVE SMOOTH",
"235 488 OFFCURVE",
"274 555 OFFCURVE",
"373 555 CURVE SMOOTH",
"450 555 OFFCURVE",
"482 518 OFFCURVE",
"498 464 CURVE",
"708 484 LINE",
"690 615 OFFCURVE",
"602 725 OFFCURVE",
"373 725 CURVE SMOOTH",
"137 725 OFFCURVE",
"10 592 OFFCURVE",
"10 353 CURVE SMOOTH",
"10 120 OFFCURVE",
"118 -16 OFFCURVE",
"322 -16 CURVE SMOOTH"
);
}
);
};
layerId = "84435905-EDCB-4949-A8A3-0E53308A2F50";
paths = (
{
closed = 1;
nodes = (
"440 -16 OFFCURVE",
"489 35 OFFCURVE",
"516 101 CURVE",
"517 101 LINE",
"542 0 LINE",
"702 0 LINE",
"702 393 LINE",
"387 393 LINE",
"387 253 LINE",
"551 253 LINE",
"515 288 LINE",
"514 269 LINE SMOOTH",
"510 192 OFFCURVE",
"467 144 OFFCURVE",
"380 144 CURVE SMOOTH",
"287 144 OFFCURVE",
"250 213 OFFCURVE",
"250 343 CURVE SMOOTH",
"250 468 OFFCURVE",
"289 535 OFFCURVE",
"373 535 CURVE SMOOTH",
"445 535 OFFCURVE",
"467 509 OFFCURVE",
"488 455 CURVE",
"698 455 LINE",
"670 606 OFFCURVE",
"592 705 OFFCURVE",
"373 705 CURVE SMOOTH",
"152 705 OFFCURVE",
"30 572 OFFCURVE",
"30 343 CURVE SMOOTH",
"30 120 OFFCURVE",
"133 -16 OFFCURVE",
"325 -16 CURVE SMOOTH"
);
}
);
width = 741;
},
{
anchors = (
{
name = bottom;
position = "{361, 0}";
},
{
name = top;
position = "{368, 690}";
}
);
background = {
paths = (
{
closed = 1;
nodes = (
"482 -16 OFFCURVE",
"550 52 OFFCURVE",
"584 125 CURVE",
"590 125 LINE",
"601 0 LINE",
"684 0 LINE",
"684 361 LINE",
"403 361 LINE",
"403 278 LINE",
"630 278 LINE",
"593 305 LINE",
"577 167 OFFCURVE",
"497 73 OFFCURVE",
"361 73 CURVE SMOOTH",
"218 73 OFFCURVE",
"132 171 OFFCURVE",
"132 355 CURVE SMOOTH",
"132 535 OFFCURVE",
"213 634 OFFCURVE",
"367 634 CURVE SMOOTH",
"496 634 OFFCURVE",
"552 581 OFFCURVE",
"574 490 CURVE",
"678 498 LINE",
"661 629 OFFCURVE",
"562 725 OFFCURVE",
"366 725 CURVE SMOOTH",
"150 725 OFFCURVE",
"25 588 OFFCURVE",
"25 355 CURVE SMOOTH",
"25 114 OFFCURVE",
"156 -16 OFFCURVE",
"343 -16 CURVE SMOOTH"
);
}
);
};
layerId = "BBFAEC79-FC1B-4455-8BF7-285C9CA7D1F7";
paths = (
{
closed = 1;
nodes = (
"467 -16 OFFCURVE",
"540 39 OFFCURVE",
"574 112 CURVE",
"575 112 LINE",
"586 0 LINE",
"669 0 LINE",
"669 366 LINE",
"363 366 LINE",
"363 283 LINE",
"615 283 LINE",
"578 305 LINE",
"578 285 LINE SMOOTH",
"578 165 OFFCURVE",
"495 73 OFFCURVE",
"361 73 CURVE SMOOTH",
"233 73 OFFCURVE",
"151 171 OFFCURVE",
"151 345 CURVE SMOOTH",
"151 515 OFFCURVE",
"228 615 OFFCURVE",
"367 615 CURVE SMOOTH",
"481 615 OFFCURVE",
"521 570 OFFCURVE",
"559 479 CURVE",
"665 479 LINE",
"622 620 OFFCURVE",
"547 705 OFFCURVE",
"366 705 CURVE SMOOTH",
"165 705 OFFCURVE",
"45 568 OFFCURVE",
"45 345 CURVE SMOOTH",
"45 114 OFFCURVE",
"171 -16 OFFCURVE",
"343 -16 CURVE SMOOTH"
);
}
);
width = 729;
},
{
anchors = (
{
name = bottom;
position = "{351, 0}";
},
{
name = top;
position = "{358, 690}";
}
);
background = {
paths = (
{
closed = 1;
nodes = (
"510 -15 OFFCURVE",
"583 82 OFFCURVE",
"607 140 CURVE",
"612 140 LINE",
"620 0 LINE",
"663 0 LINE",
"663 346 LINE",
"409 346 LINE",
"409 301 LINE",
"635 301 LINE",
"618 309 LINE",
"600 137 OFFCURVE",
"502 36 OFFCURVE",
"351 36 CURVE SMOOTH",
"187 36 OFFCURVE",
"93 155 OFFCURVE",
"93 355 CURVE SMOOTH",
"93 561 OFFCURVE",
"185 674 OFFCURVE",
"360 674 CURVE SMOOTH",
"504 674 OFFCURVE",
"576 622 OFFCURVE",
"603 499 CURVE",
"657 504 LINE",
"634 631 OFFCURVE",
"547 725 OFFCURVE",
"362 725 CURVE SMOOTH",
"156 725 OFFCURVE",
"36 585 OFFCURVE",
"36 355 CURVE SMOOTH",
"36 125 OFFCURVE",
"160 -15 OFFCURVE",
"351 -15 CURVE SMOOTH"
);
}
);
};
layerId = "12E3E5E3-6B17-4D77-9A28-32D63F2CCD05";
paths = (
{
closed = 1;
nodes = (
"486 -15 OFFCURVE",
"577 74 OFFCURVE",
"600 176 CURVE",
"601 176 LINE",
"604 0 LINE",
"620 0 LINE",
"620 340 LINE",
"335 340 LINE",
"335 322 LINE",
"610 322 LINE",
"601 331 LINE",
"601 285 LINE SMOOTH",
"601 123 OFFCURVE",
"508 4 OFFCURVE",
"348 4 CURVE SMOOTH",
"180 4 OFFCURVE",
"70 119 OFFCURVE",
"70 346 CURVE SMOOTH",
"70 571 OFFCURVE",
"180 686 OFFCURVE",
"348 686 CURVE SMOOTH",
"491 686 OFFCURVE",
"552 635 OFFCURVE",
"596 505 CURVE",
"615 505 LINE",
"569 648 OFFCURVE",
"496 705 OFFCURVE",
"348 705 CURVE SMOOTH",
"170 705 OFFCURVE",
"50 583 OFFCURVE",
"50 346 CURVE SMOOTH",
"50 107 OFFCURVE",
"170 -15 OFFCURVE",
"348 -15 CURVE SMOOTH"
);
}
);
userData = {
RMXScaler = {
height = 97.3;
width = 97.3;
};
};
width = 703;
}
);
leftMetricsKey = O;
unicode = 0047;
userData = {
RMXScaler = {
source = G;
};
};
},
{
color = 9;
glyphname = H;
lastChange = "2018-05-23 10:43:47 +0000";
layers = (
{
anchors = (
{
name = top;
position = "{379, 690}";
}
);
background = {
paths = (
{
closed = 1;
nodes = (
"496 445 LINE",
"268 445 LINE",
"268 710 LINE",
"48 710 LINE",
"48 0 LINE",
"268 0 LINE",
"268 270 LINE",
"496 270 LINE",
"496 0 LINE",
"716 0 LINE",
"716 710 LINE",
"496 710 LINE"
);
}
);
};
layerId = "84435905-EDCB-4949-A8A3-0E53308A2F50";
paths = (
{
closed = 1;
nodes = (
"473 435 LINE",
"268 435 LINE",
"268 690 LINE",
"48 690 LINE",
"48 0 LINE",
"268 0 LINE",
"268 260 LINE",
"473 260 LINE",
"473 0 LINE",
"693 0 LINE",
"693 690 LINE",
"473 690 LINE"
);
}
);
width = 741;
},
{
anchors = (
{
name = top;
position = "{357, 690}";
}
);
background = {
paths = (
{
closed = 1;
nodes = (
"561 405 LINE",
"185 405 LINE",
"185 710 LINE",
"80 710 LINE",
"80 0 LINE",
"185 0 LINE",
"185 315 LINE",
"561 315 LINE",
"561 0 LINE",
"666 0 LINE",
"666 710 LINE",
"561 710 LINE"
);
}
);
};
layerId = "BBFAEC79-FC1B-4455-8BF7-285C9CA7D1F7";
paths = (
{
closed = 1;
nodes = (
"531 395 LINE",
"185 395 LINE",
"185 690 LINE",
"80 690 LINE",
"80 0 LINE",
"185 0 LINE",
"185 305 LINE",
"531 305 LINE",
"531 0 LINE",
"636 0 LINE",
"636 690 LINE",
"531 690 LINE"
);
}
);
width = 716;
},
{
anchors = (
{
name = top;
position = "{345, 690}";
}
);
background = {
paths = (
{
closed = 1;
nodes = (
"616 389 LINE",
"179 389 LINE",
"179 710 LINE",
"124 710 LINE",
"124 0 LINE",
"179 0 LINE",
"179 339 LINE",
"616 339 LINE",
"616 0 LINE",
"671 0 LINE",
"671 710 LINE",
"616 710 LINE"
);
}
);
};
layerId = "12E3E5E3-6B17-4D77-9A28-32D63F2CCD05";
paths = (
{
closed = 1;
nodes = (
"570 361 LINE",
"120 361 LINE",
"120 690 LINE",
"100 690 LINE",
"100 0 LINE",
"120 0 LINE",
"120 342 LINE",
"570 342 LINE",
"570 0 LINE",
"590 0 LINE",
"590 690 LINE",
"570 690 LINE"
);
}
);
userData = {
RMXScaler = {
height = 97.3;
width = 97.3;
};
};
width = 690;
}
);
unicode = 0048;
userData = {
RMXScaler = {
source = H;
};
};
},
{
color = 9;
glyphname = I;
lastChange = "2018-05-23 21:50:58 +0000";
layers = (
{
anchors = (
{
name = bottom;
position = "{156, 0}";
},
{
name = ogonek;
position = "{228, 0}";
},
{
name = top;
position = "{155, 690}";
}
);
background = {
paths = (
{
closed = 1;
nodes = (
"268 0 LINE",
"268 710 LINE",
"48 710 LINE",
"48 0 LINE"
);
}
);
};
layerId = "84435905-EDCB-4949-A8A3-0E53308A2F50";
paths = (
{
closed = 1;
nodes = (
"268 0 LINE",
"268 690 LINE",
"48 690 LINE",
"48 0 LINE"
);
}
);
width = 316;
},
{
anchors = (
{
name = bottom;
position = "{132, 0}";
},
{
name = ogonek;
position = "{167, 0}";
},
{
name = top;
position = "{132, 690}";
}
);
background = {
paths = (
{
closed = 1;
nodes = (
"185 0 LINE",
"185 710 LINE",
"80 710 LINE",
"80 0 LINE"
);
}
);
};
layerId = "BBFAEC79-FC1B-4455-8BF7-285C9CA7D1F7";
paths = (
{
closed = 1;
nodes = (
"185 0 LINE",
"185 690 LINE",
"80 690 LINE",
"80 0 LINE"
);
}
);
width = 265;
},
{
anchors = (
{
name = bottom;
position = "{110, 0}";
},
{
name = ogonek;
position = "{113, 0}";
},
{
name = top;
position = "{110, 690}";
}
);
background = {
paths = (
{
closed = 1;
nodes = (
"178 0 LINE",
"178 710 LINE",
"123 710 LINE",
"123 0 LINE"
);
}
);
};
layerId = "12E3E5E3-6B17-4D77-9A28-32D63F2CCD05";
paths = (
{
closed = 1;
nodes = (
"120 0 LINE",
"120 690 LINE",
"100 690 LINE",
"100 0 LINE"
);
}
);
width = 220;
}
);
leftMetricsKey = H;
rightMetricsKey = H;
unicode = 0049;
userData = {
RMXScaler = {
source = I;
};
};
},
{
color = 9;
glyphname = J;
lastChange = "2018-05-09 11:06:59 +0000";
layers = (
{
anchors = (
{
name = top;
position = "{312, 690}";
}
);
background = {
paths = (
{
closed = 1;
nodes = (
"-15 6 LINE",
"20 -6 OFFCURVE",
"74 -15 OFFCURVE",
"139 -15 CURVE SMOOTH",
"331 -15 OFFCURVE",
"423 74 OFFCURVE",
"423 264 CURVE SMOOTH",
"423 710 LINE",
"203 710 LINE",
"203 263 LINE SMOOTH",
"203 184 OFFCURVE",
"170 155 OFFCURVE",
"101 155 CURVE SMOOTH",
"60 155 OFFCURVE",
"28 163 OFFCURVE",
"5 170 CURVE"
);
}
);
};
layerId = "84435905-EDCB-4949-A8A3-0E53308A2F50";
paths = (
{
closed = 1;
nodes = (
"10 6 LINE",
"55 -8 OFFCURVE",
"104 -15 OFFCURVE",
"159 -15 CURVE SMOOTH",
"341 -15 OFFCURVE",
"423 84 OFFCURVE",
"423 274 CURVE SMOOTH",
"423 690 LINE",
"203 690 LINE",
"203 273 LINE SMOOTH",
"203 194 OFFCURVE",
"175 155 OFFCURVE",
"109 155 CURVE SMOOTH",
"70 155 OFFCURVE",
"33 164 OFFCURVE",
"10 171 CURVE"
);
}
);
width = 461;
},
{
anchors = (
{
name = top;
position = "{282, 690}";
}
);
background = {
paths = (
{
closed = 1;
nodes = (
"0 -1 LINE",
"28 -9 OFFCURVE",
"66 -15 OFFCURVE",
"112 -15 CURVE SMOOTH",
"265 -15 OFFCURVE",
"332 77 OFFCURVE",
"332 256 CURVE SMOOTH",
"332 710 LINE",
"227 710 LINE",
"227 249 LINE SMOOTH",
"227 137 OFFCURVE",
"201 76 OFFCURVE",
"95 76 CURVE SMOOTH",
"66 76 OFFCURVE",
"40 80 OFFCURVE",
"10 86 CURVE"
);
}
);
};
layerId = "BBFAEC79-FC1B-4455-8BF7-285C9CA7D1F7";
paths = (
{
closed = 1;
nodes = (
"10 0 LINE",
"39 -9 OFFCURVE",
"71 -15 OFFCURVE",
"112 -15 CURVE SMOOTH",
"265 -15 OFFCURVE",
"332 77 OFFCURVE",
"332 256 CURVE SMOOTH",
"332 690 LINE",
"227 690 LINE",
"227 249 LINE SMOOTH",
"227 137 OFFCURVE",
"201 76 OFFCURVE",
"95 76 CURVE SMOOTH",
"66 76 OFFCURVE",
"40 81 OFFCURVE",
"10 89 CURVE"
);
}
);
width = 402;
},
{
anchors = (
{
name = top;
position = "{263, 690}";
}
);
background = {
paths = (
{
closed = 1;
nodes = (
"-5 -6 LINE",
"18 -12 OFFCURVE",
"54 -15 OFFCURVE",
"81 -15 CURVE SMOOTH",
"232 -15 OFFCURVE",
"290 76 OFFCURVE",
"290 262 CURVE SMOOTH",
"290 710 LINE",
"235 710 LINE",
"235 263 LINE SMOOTH",
"235 103 OFFCURVE",
"199 36 OFFCURVE",
"75 36 CURVE SMOOTH",
"52 36 OFFCURVE",
"20 38 OFFCURVE",
"1 42 CURVE"
);
}
);
};
layerId = "12E3E5E3-6B17-4D77-9A28-32D63F2CCD05";
paths = (
{
closed = 1;
nodes = (
"5 -1 LINE",
"29 -9 OFFCURVE",
"62 -15 OFFCURVE",
"91 -15 CURVE SMOOTH",
"202 -15 OFFCURVE",
"260 46 OFFCURVE",
"260 192 CURVE SMOOTH",
"260 690 LINE",
"240 690 LINE",
"240 192 LINE SMOOTH",
"240 58 OFFCURVE",
"190 4 OFFCURVE",
"91 4 CURVE SMOOTH",
"63 4 OFFCURVE",
"29 10 OFFCURVE",
"5 18 CURVE"
);
}
);
userData = {
RMXScaler = {
height = 97.3;
width = 97.3;
};
};
width = 350;
}
);
rightMetricsKey = U;
unicode = 004A;
userData = {
RMXScaler = {
source = J;
};
};
},
{
color = 9;
glyphname = K;
lastChange = "2018-05-18 19:21:02 +0000";
layers = (
{
anchors = (
{
name = bottom;
position = "{369, 0}";
},
{
name = top;
position = "{370, 690}";
}
);
background = {
paths = (
{
closed = 1;
nodes = (
"705 0 LINE",
"446 433 LINE",
"259 349 LINE",
"465 0 LINE"
);
},
{
closed = 1;
nodes = (
"268 0 LINE",
"268 690 LINE",
"48 690 LINE",
"48 0 LINE"
);
},
{
closed = 1;
nodes = (
"423 283 LINE",
"695 690 LINE",
"470 690 LINE",
"259 355 LINE"
);
}
);
};
layerId = "84435905-EDCB-4949-A8A3-0E53308A2F50";
paths = (
{
closed = 1;
nodes = (
"268 0 LINE",
"268 690 LINE",
"48 690 LINE",
"48 0 LINE"
);
},
{
closed = 1;
nodes = (
"433 453 LINE",
"429 293 LINE",
"695 690 LINE",
"470 690 LINE",
"268 369 LINE",
"261 369 LINE",
"261 334 LINE",
"268 334 LINE",
"465 0 LINE",
"705 0 LINE"
);
}
);
width = 710;
},
{
anchors = (
{
name = bottom;
position = "{340, 0}";
},
{
name = top;
position = "{339, 690}";
}
);
background = {
paths = (
{
closed = 1;
nodes = (
"615 0 LINE",
"264 407 LINE",
"179 352 LINE",
"488 0 LINE"
);
},
{
closed = 1;
nodes = (
"185 0 LINE",
"185 690 LINE",
"80 690 LINE",
"80 0 LINE"
);
},
{
closed = 1;
nodes = (
"263 317 LINE",
"607 690 LINE",
"486 690 LINE",
"182 357 LINE"
);
}
);
};
layerId = "BBFAEC79-FC1B-4455-8BF7-285C9CA7D1F7";
paths = (
{
closed = 1;
nodes = (
"185 0 LINE",
"185 690 LINE",
"80 690 LINE",
"80 0 LINE"
);
},
{
closed = 1;
nodes = (
"275 395 LINE",
"274 328 LINE",
"607 690 LINE",
"486 690 LINE",
"185 360 LINE",
"179 360 LINE",
"179 345 LINE",
"185 345 LINE",
"488 0 LINE",
"615 0 LINE"
);
}
);
width = 620;
},
{
anchors = (
{
name = bottom;
position = "{298, 0}";
},
{
name = top;
position = "{299, 690}";
}
);
background = {
paths = (
{
closed = 1;
nodes = (
"132 362 LINE",
"117 350 LINE",
"517 0 LINE",
"546 0 LINE"
);
},
{
closed = 1;
nodes = (
"120 0 LINE",
"120 690 LINE",
"100 690 LINE",
"100 0 LINE"
);
},
{
closed = 1;
nodes = (
"136 344 LINE",
"541 690 LINE",
"514 690 LINE",
"118 351 LINE"
);
}
);
};
layerId = "12E3E5E3-6B17-4D77-9A28-32D63F2CCD05";
paths = (
{
closed = 1;
nodes = (
"120 0 LINE",
"120 690 LINE",
"100 690 LINE",
"100 0 LINE"
);
},
{
closed = 1;
nodes = (
"138 357 LINE",
"138 345 LINE",
"541 690 LINE",
"514 690 LINE",
"120 353 LINE",
"118 353 LINE",
"118 347 LINE",
"120 347 LINE",
"517 0 LINE",
"546 0 LINE"
);
}
);
userData = {
RMXScaler = {
height = 97.3;
width = 97.3;
};
};
width = 556;
}
);
leftMetricsKey = H;
unicode = 004B;
userData = {
RMXScaler = {
source = K;
};
};
},
{
color = 9;
glyphname = L;
lastChange = "2018-05-18 13:45:57 +0000";
layers = (
{
anchors = (
{
name = bottom;
position = "{309, 0}";
},
{
name = periodcentered;
position = "{393, 370}";
},
{
name = top;
position = "{154, 690}";
},
{
name = topright;
position = "{404, 475}";
}
);
background = {
paths = (
{
closed = 1;
nodes = (
"268 0 LINE",
"268 710 LINE",
"48 710 LINE",
"48 0 LINE"
);
},
{
closed = 1;
nodes = (
"558 0 LINE",
"558 173 LINE",
"166 173 LINE",
"166 0 LINE"
);
}
);
};
layerId = "84435905-EDCB-4949-A8A3-0E53308A2F50";
paths = (
{
closed = 1;
nodes = (
"268 0 LINE",
"268 690 LINE",
"48 690 LINE",
"48 0 LINE"
);
},
{
closed = 1;
nodes = (
"526 0 LINE",
"526 173 LINE",
"166 173 LINE",
"166 0 LINE"
);
}
);
width = 541;
},
{
anchors = (
{
name = bottom;
position = "{295, 0}";
},
{
name = periodcentered;
position = "{364, 370}";
},
{
name = top;
position = "{134, 690}";
},
{
name = topright;
position = "{331, 468}";
}
);
background = {
paths = (
{
closed = 1;
nodes = (
"185 0 LINE",
"185 710 LINE",
"80 710 LINE",
"80 0 LINE"
);
},
{
closed = 1;
nodes = (
"520 0 LINE",
"520 90 LINE",
"152 90 LINE",
"152 0 LINE"
);
}
);
};
layerId = "BBFAEC79-FC1B-4455-8BF7-285C9CA7D1F7";
paths = (
{
closed = 1;
nodes = (
"185 0 LINE",
"185 690 LINE",
"80 690 LINE",
"80 0 LINE"
);
},
{
closed = 1;
nodes = (
"490 0 LINE",
"490 90 LINE",
"152 90 LINE",
"152 0 LINE"
);
}
);
width = 510;
},
{
anchors = (
{
name = bottom;
position = "{317, 0}";
},
{
name = periodcentered;
position = "{363, 370}";
},
{
name = top;
position = "{111, 690}";
},
{
name = topright;
position = "{312, 463}";
}
);
background = {
paths = (
{
closed = 1;
nodes = (
"178 0 LINE",
"178 710 LINE",
"123 710 LINE",
"123 0 LINE"
);
},
{
closed = 1;
nodes = (
"537 0 LINE",
"537 50 LINE",
"165 50 LINE",
"165 0 LINE"
);
}
);
};
layerId = "12E3E5E3-6B17-4D77-9A28-32D63F2CCD05";
paths = (
{
closed = 1;
nodes = (
"120 0 LINE",
"120 690 LINE",
"100 690 LINE",
"100 0 LINE"
);
},
{
closed = 1;
nodes = (
"115 0 LINE",
"495 0 LINE",
"495 19 LINE",
"115 19 LINE"
);
}
);
userData = {
RMXScaler = {
height = 97.3;
width = 97.3;
};
};
width = 515;
}
);
leftMetricsKey = H;
unicode = 004C;
userData = {
RMXScaler = {
source = L;
};
};
},
{
color = 9;
glyphname = M;
lastChange = "2018-05-19 10:31:03 +0000";
layers = (
{
background = {
paths = (
{
closed = 1;
nodes = (
"613 710 LINE",
"483 256 LINE",
"476 256 LINE",
"342 710 LINE",
"17 710 LINE",
"17 0 LINE",
"197 0 LINE",
"197 500 LINE",
"204 500 LINE",
"360 0 LINE",
"560 0 LINE",
"716 500 LINE",
"723 500 LINE",
"723 0 LINE",
"933 0 LINE",
"933 710 LINE"
);
}
);
};
layerId = "84435905-EDCB-4949-A8A3-0E53308A2F50";
paths = (
{
closed = 1;
nodes = (
"598 690 LINE",
"480 246 LINE",
"479 246 LINE",
"357 690 LINE",
"48 690 LINE",
"48 0 LINE",
"228 0 LINE",
"228 480 LINE",
"229 480 LINE",
"365 0 LINE",
"555 0 LINE",
"691 480 LINE",
"692 480 LINE",
"692 0 LINE",
"902 0 LINE",
"902 690 LINE"
);
}
);
width = 950;
},
{
background = {
paths = (
{
closed = 1;
nodes = (
"694 690 LINE",
"443 140 LINE",
"442 140 LINE",
"188 690 LINE",
"80 690 LINE",
"80 0 LINE",
"175 0 LINE",
"175 483 LINE",
"176 483 LINE",
"398 0 LINE",
"477 0 LINE",
"699 483 LINE",
"700 483 LINE",
"700 0 LINE",
"803 0 LINE",
"803 690 LINE"
);
}
);
};
layerId = "BBFAEC79-FC1B-4455-8BF7-285C9CA7D1F7";
paths = (
{
closed = 1;
nodes = (
"644 690 LINE",
"443 125 LINE",
"442 125 LINE",
"238 690 LINE",
"80 690 LINE",
"80 0 LINE",
"175 0 LINE",
"175 578 LINE",
"176 578 LINE",
"388 0 LINE",
"487 0 LINE",
"699 578 LINE",
"700 578 LINE",
"700 0 LINE",
"803 0 LINE",
"803 690 LINE"
);
}
);
width = 883;
},
{
background = {
paths = (
{
closed = 1;
nodes = (
"734 710 LINE",
"475 68 LINE",
"470 68 LINE",
"209 710 LINE",
"123 710 LINE",
"123 0 LINE",
"175 0 LINE",
"175 645 LINE",
"180 645 LINE",
"441 0 LINE",
"500 0 LINE",
"761 645 LINE",
"766 645 LINE",
"766 0 LINE",
"820 0 LINE",
"820 710 LINE"
);
}
);
};
layerId = "12E3E5E3-6B17-4D77-9A28-32D63F2CCD05";
paths = (
{
closed = 1;
nodes = (
"736 690 LINE",
"433 26 LINE",
"432 26 LINE",
"129 690 LINE",
"100 690 LINE",
"100 0 LINE",
"119 0 LINE",
"119 660 LINE",
"120 660 LINE",
"422 0 LINE",
"442 0 LINE",
"744 660 LINE",
"745 660 LINE",
"745 0 LINE",
"765 0 LINE",
"765 690 LINE"
);
}
);
userData = {
RMXScaler = {
height = 97.3;
width = 97.3;
};
};
width = 865;
}
);
leftMetricsKey = H;
rightMetricsKey = H;
unicode = 004D;
userData = {
RMXScaler = {
source = M;
};
};
},
{
color = 9;
glyphname = N;
lastChange = "2018-05-19 10:36:18 +0000";
layers = (
{
anchors = (
{
name = bottom;
position = "{395, 0}";
},
{
name = top;
position = "{397, 690}";
}
);
background = {
paths = (
{
closed = 1;
nodes = (
"534 289 LINE",
"287 710 LINE",
"48 710 LINE",
"48 0 LINE",
"233 0 LINE",
"233 423 LINE",
"240 423 LINE",
"488 0 LINE",
"726 0 LINE",
"726 710 LINE",
"541 710 LINE",
"541 289 LINE"
);
}
);
};
layerId = "84435905-EDCB-4949-A8A3-0E53308A2F50";
paths = (
{
closed = 1;
nodes = (
"512 289 LINE",
"282 690 LINE",
"48 690 LINE",
"48 0 LINE",
"233 0 LINE",
"233 403 LINE",
"234 403 LINE",
"464 0 LINE",
"698 0 LINE",
"698 690 LINE",
"513 690 LINE",
"513 289 LINE"
);
}
);
width = 746;
},
{
anchors = (
{
name = bottom;
position = "{361, 0}";
},
{
name = top;
position = "{367, 690}";
}
);
background = {
paths = (
{
closed = 1;
nodes = (
"175 0 LINE",
"175 513 LINE",
"176 513 LINE",
"546 0 LINE",
"641 0 LINE",
"641 690 LINE",
"546 690 LINE",
"546 177 LINE",
"545 177 LINE",
"175 690 LINE",
"80 690 LINE",
"80 0 LINE"
);
}
);
};
layerId = "BBFAEC79-FC1B-4455-8BF7-285C9CA7D1F7";
paths = (
{
closed = 1;
nodes = (
"175 0 LINE",
"175 528 LINE",
"176 528 LINE",
"534 0 LINE",
"641 0 LINE",
"641 690 LINE",
"546 690 LINE",
"546 162 LINE",
"545 162 LINE",
"187 690 LINE",
"80 690 LINE",
"80 0 LINE"
);
}
);
width = 721;
},
{
anchors = (
{
name = bottom;
position = "{358, 0}";
},
{
name = top;
position = "{364, 690}";
}
);
background = {
paths = (
{
closed = 1;
nodes = (
"619 98 LINE",
"172 710 LINE",
"123 710 LINE",
"123 0 LINE",
"175 0 LINE",
"175 612 LINE",
"179 612 LINE",
"626 0 LINE",
"675 0 LINE",
"675 710 LINE",
"623 710 LINE",
"623 98 LINE"
);
}
);
};
layerId = "12E3E5E3-6B17-4D77-9A28-32D63F2CCD05";
paths = (
{
closed = 1;
nodes = (
"119 0 LINE",
"119 662 LINE",
"120 662 LINE",
"570 0 LINE",
"595 0 LINE",
"595 690 LINE",
"576 690 LINE",
"576 28 LINE",
"575 28 LINE",
"125 690 LINE",
"100 690 LINE",
"100 0 LINE"
);
}
);
userData = {
RMXScaler = {
height = 97.3;
width = 97.3;
};
};
width = 695;
}
);
leftMetricsKey = H;
rightMetricsKey = H;
unicode = 004E;
userData = {
RMXScaler = {
source = N;
};
};
},
{
color = 9;
glyphname = O;
lastChange = "2018-05-23 21:45:33 +0000";
layers = (
{
anchors = (
{
name = bottom;
position = "{376, 0}";
},
{
name = top;
position = "{376, 710}";
}
);
background = {
paths = (
{
closed = 1;
nodes = (
"617 -15 OFFCURVE",
"744 117 OFFCURVE",
"744 355 CURVE SMOOTH",
"744 593 OFFCURVE",
"617 725 OFFCURVE",
"377 725 CURVE SMOOTH",
"137 725 OFFCURVE",
"10 593 OFFCURVE",
"10 355 CURVE SMOOTH",
"10 117 OFFCURVE",
"137 -15 OFFCURVE",
"377 -15 CURVE SMOOTH"
);
},
{
closed = 1;
nodes = (
"271 155 OFFCURVE",
"235 228 OFFCURVE",
"235 355 CURVE SMOOTH",
"235 482 OFFCURVE",
"271 555 OFFCURVE",
"377 555 CURVE SMOOTH",
"483 555 OFFCURVE",
"519 482 OFFCURVE",
"519 355 CURVE SMOOTH",
"519 228 OFFCURVE",
"483 155 OFFCURVE",
"377 155 CURVE SMOOTH"
);
}
);
};
layerId = "84435905-EDCB-4949-A8A3-0E53308A2F50";
paths = (
{
closed = 1;
nodes = (
"602 -15 OFFCURVE",
"724 117 OFFCURVE",
"724 345 CURVE SMOOTH",
"724 573 OFFCURVE",
"602 705 OFFCURVE",
"377 705 CURVE SMOOTH",
"152 705 OFFCURVE",
"30 573 OFFCURVE",
"30 345 CURVE SMOOTH",
"30 117 OFFCURVE",
"152 -15 OFFCURVE",
"377 -15 CURVE SMOOTH"
);
},
{
closed = 1;
nodes = (
"290 155 OFFCURVE",
"255 228 OFFCURVE",
"255 345 CURVE SMOOTH",
"255 462 OFFCURVE",
"290 535 OFFCURVE",
"377 535 CURVE SMOOTH",
"464 535 OFFCURVE",
"499 462 OFFCURVE",
"499 345 CURVE SMOOTH",
"499 228 OFFCURVE",
"464 155 OFFCURVE",
"377 155 CURVE SMOOTH"
);
}
);
width = 754;
},
{
anchors = (
{
name = bottom;
position = "{369, 0}";
},
{
name = top;
position = "{370, 710}";
}
);
background = {
paths = (
{
closed = 1;
nodes = (
"586 -15 OFFCURVE",
"712 121 OFFCURVE",
"712 355 CURVE SMOOTH",
"712 589 OFFCURVE",
"586 725 OFFCURVE",
"369 725 CURVE SMOOTH",
"153 725 OFFCURVE",
"27 589 OFFCURVE",
"27 355 CURVE SMOOTH",
"27 121 OFFCURVE",
"153 -15 OFFCURVE",
"369 -15 CURVE SMOOTH"
);
},
{
closed = 1;
nodes = (
"216 76 OFFCURVE",
"134 172 OFFCURVE",
"134 355 CURVE SMOOTH",
"134 538 OFFCURVE",
"216 634 OFFCURVE",
"369 634 CURVE SMOOTH",
"523 634 OFFCURVE",
"605 538 OFFCURVE",
"605 355 CURVE SMOOTH",
"605 172 OFFCURVE",
"523 76 OFFCURVE",
"369 76 CURVE SMOOTH"
);
}
);
};
layerId = "BBFAEC79-FC1B-4455-8BF7-285C9CA7D1F7";
paths = (
{
closed = 1;
nodes = (
"571 -15 OFFCURVE",
"694 121 OFFCURVE",
"694 345 CURVE SMOOTH",
"694 569 OFFCURVE",
"571 705 OFFCURVE",
"369 705 CURVE SMOOTH",
"168 705 OFFCURVE",
"45 569 OFFCURVE",
"45 345 CURVE SMOOTH",
"45 121 OFFCURVE",
"168 -15 OFFCURVE",
"369 -15 CURVE SMOOTH"
);
},
{
closed = 1;
nodes = (
"228 76 OFFCURVE",
"152 172 OFFCURVE",
"152 345 CURVE SMOOTH",
"152 518 OFFCURVE",
"228 614 OFFCURVE",
"369 614 CURVE SMOOTH",
"510 614 OFFCURVE",
"587 518 OFFCURVE",
"587 345 CURVE SMOOTH",
"587 172 OFFCURVE",
"510 76 OFFCURVE",
"369 76 CURVE SMOOTH"
);
}
);
width = 739;
},
{
anchors = (
{
name = bottom;
position = "{348, 0}";
},
{
name = top;
position = "{348, 690}";
}
);
background = {
paths = (
{
closed = 1;
nodes = (
"591 -15 OFFCURVE",
"713 123 OFFCURVE",
"713 355 CURVE SMOOTH",
"713 587 OFFCURVE",
"591 725 OFFCURVE",
"387 725 CURVE SMOOTH",
"183 725 OFFCURVE",
"61 587 OFFCURVE",
"61 355 CURVE SMOOTH",
"61 123 OFFCURVE",
"183 -15 OFFCURVE",
"387 -15 CURVE SMOOTH"
);
},
{
closed = 1;
nodes = (
"212 36 OFFCURVE",
"118 148 OFFCURVE",
"118 355 CURVE SMOOTH",
"118 562 OFFCURVE",
"212 674 OFFCURVE",
"387 674 CURVE SMOOTH",
"562 674 OFFCURVE",
"656 562 OFFCURVE",
"656 355 CURVE SMOOTH",
"656 148 OFFCURVE",
"562 36 OFFCURVE",
"387 36 CURVE SMOOTH"
);
}
);
};
layerId = "12E3E5E3-6B17-4D77-9A28-32D63F2CCD05";
paths = (
{
closed = 1;
nodes = (
"524 -15 OFFCURVE",
"644 107 OFFCURVE",
"644 345 CURVE SMOOTH",
"644 583 OFFCURVE",
"524 705 OFFCURVE",
"347 705 CURVE SMOOTH",
"170 705 OFFCURVE",
"50 583 OFFCURVE",
"50 345 CURVE SMOOTH",
"50 107 OFFCURVE",
"170 -15 OFFCURVE",
"347 -15 CURVE SMOOTH"
);
},
{
closed = 1;
nodes = (
"180 4 OFFCURVE",
"70 119 OFFCURVE",
"70 345 CURVE SMOOTH",
"70 571 OFFCURVE",
"180 686 OFFCURVE",
"347 686 CURVE SMOOTH",
"514 686 OFFCURVE",
"624 571 OFFCURVE",
"624 345 CURVE SMOOTH",
"624 119 OFFCURVE",
"514 4 OFFCURVE",
"347 4 CURVE SMOOTH"
);
}
);
userData = {
RMXScaler = {
height = 97.3;
width = 97.3;
};
};
width = 694;
}
);
unicode = 004F;
userData = {
RMXScaler = {
source = O;
};
};
},
{
color = 9;
glyphname = P;
lastChange = "2018-05-09 13:55:07 +0000";
layers = (
{
background = {
paths = (
{
closed = 1;
nodes = (
"268 0 LINE",
"268 710 LINE",
"48 710 LINE",
"48 0 LINE"
);
},
{
closed = 1;
nodes = (
"249 380 LINE",
"249 227 LINE",
"425 227 LINE SMOOTH",
"616 227 OFFCURVE",
"699 315 OFFCURVE",
"699 464 CURVE SMOOTH",
"699 622 OFFCURVE",
"616 710 OFFCURVE",
"434 710 CURVE SMOOTH",
"249 710 LINE",
"249 550 LINE",
"385 550 LINE SMOOTH",
"454 550 OFFCURVE",
"481 527 OFFCURVE",
"481 467 CURVE SMOOTH",
"481 405 OFFCURVE",
"454 380 OFFCURVE",
"385 380 CURVE SMOOTH"
);
}
);
};
layerId = "84435905-EDCB-4949-A8A3-0E53308A2F50";
paths = (
{
closed = 1;
nodes = (
"268 0 LINE",
"268 690 LINE",
"48 690 LINE",
"48 0 LINE"
);
},
{
closed = 1;
nodes = (
"249 370 LINE",
"249 217 LINE",
"392 217 LINE SMOOTH",
"583 217 OFFCURVE",
"666 305 OFFCURVE",
"666 449 CURVE SMOOTH",
"666 602 OFFCURVE",
"583 690 OFFCURVE",
"401 690 CURVE SMOOTH",
"249 690 LINE",
"249 530 LINE",
"352 530 LINE SMOOTH",
"421 530 OFFCURVE",
"448 507 OFFCURVE",
"448 452 CURVE SMOOTH",
"448 395 OFFCURVE",
"421 370 OFFCURVE",
"352 370 CURVE SMOOTH"
);
}
);
width = 686;
},
{
background = {
paths = (
{
closed = 1;
nodes = (
"185 0 LINE",
"185 710 LINE",
"80 710 LINE",
"80 0 LINE"
);
},
{
closed = 1;
nodes = (
"166 363 LINE",
"166 275 LINE",
"378 275 LINE SMOOTH",
"552 275 OFFCURVE",
"630 352 OFFCURVE",
"630 493 CURVE SMOOTH",
"630 635 OFFCURVE",
"552 710 OFFCURVE",
"380 710 CURVE SMOOTH",
"166 710 LINE",
"166 622 LINE",
"355 622 LINE SMOOTH",
"481 622 OFFCURVE",
"527 590 OFFCURVE",
"527 493 CURVE SMOOTH",
"527 397 OFFCURVE",
"481 363 OFFCURVE",
"354 363 CURVE SMOOTH"
);
}
);
};
layerId = "BBFAEC79-FC1B-4455-8BF7-285C9CA7D1F7";
paths = (
{
closed = 1;
nodes = (
"185 0 LINE",
"185 690 LINE",
"80 690 LINE",
"80 0 LINE"
);
},
{
closed = 1;
nodes = (
"166 343 LINE",
"166 255 LINE",
"368 255 LINE SMOOTH",
"522 255 OFFCURVE",
"600 342 OFFCURVE",
"600 473 CURVE SMOOTH",
"600 605 OFFCURVE",
"522 690 OFFCURVE",
"370 690 CURVE SMOOTH",
"166 690 LINE",
"166 602 LINE",
"355 602 LINE SMOOTH",
"451 602 OFFCURVE",
"497 560 OFFCURVE",
"497 473 CURVE SMOOTH",
"497 387 OFFCURVE",
"451 343 OFFCURVE",
"354 343 CURVE SMOOTH"
);
}
);
width = 630;
},
{
background = {
paths = (
{
closed = 1;
nodes = (
"139 0 LINE",
"139 710 LINE",
"84 710 LINE",
"84 0 LINE"
);
},
{
closed = 1;
nodes = (
"124 347 LINE",
"124 299 LINE",
"354 299 LINE SMOOTH",
"511 299 OFFCURVE",
"593 365 OFFCURVE",
"593 505 CURVE SMOOTH",
"593 645 OFFCURVE",
"511 710 OFFCURVE",
"354 710 CURVE SMOOTH",
"124 710 LINE",
"124 661 LINE",
"342 661 LINE SMOOTH",
"490 661 OFFCURVE",
"539 614 OFFCURVE",
"539 504 CURVE SMOOTH",
"539 394 OFFCURVE",
"490 347 OFFCURVE",
"342 347 CURVE SMOOTH"
);
}
);
};
layerId = "12E3E5E3-6B17-4D77-9A28-32D63F2CCD05";
paths = (
{
closed = 1;
nodes = (
"120 0 LINE",
"120 690 LINE",
"100 690 LINE",
"100 0 LINE"
);
},
{
closed = 1;
nodes = (
"115 307 LINE",
"115 288 LINE",
"340 288 LINE SMOOTH",
"495 288 OFFCURVE",
"564 359 OFFCURVE",
"564 491 CURVE SMOOTH",
"564 623 OFFCURVE",
"495 690 OFFCURVE",
"340 690 CURVE SMOOTH",
"115 690 LINE",
"115 671 LINE",
"340 671 LINE SMOOTH",
"483 671 OFFCURVE",
"544 612 OFFCURVE",
"544 491 CURVE SMOOTH",
"544 370 OFFCURVE",
"483 307 OFFCURVE",
"340 307 CURVE SMOOTH"
);
}
);
userData = {
RMXScaler = {
height = 97.3;
width = 97.3;
};
};
width = 599;
}
);
leftMetricsKey = H;
unicode = 0050;
userData = {
RMXScaler = {
source = P;
};
};
},
{
color = 9;
glyphname = Q;
lastChange = "2018-05-19 20:19:43 +0000";
layers = (
{
background = {
paths = (
{
closed = 1;
nodes = (
"721 -90 LINE",
"581 112 LINE",
"549 112 LINE",
"457 262 LINE",
"297 262 LINE",
"429 34 LINE",
"451 34 LINE",
"540 -90 LINE"
);
},
{
closed = 1;
nodes = (
"602 -15 OFFCURVE",
"724 117 OFFCURVE",
"724 345 CURVE SMOOTH",
"724 573 OFFCURVE",
"602 705 OFFCURVE",
"377 705 CURVE SMOOTH",
"152 705 OFFCURVE",
"30 573 OFFCURVE",
"30 345 CURVE SMOOTH",
"30 117 OFFCURVE",
"152 -15 OFFCURVE",
"377 -15 CURVE SMOOTH"
);
},
{
closed = 1;
nodes = (
"290 155 OFFCURVE",
"255 228 OFFCURVE",
"255 345 CURVE SMOOTH",
"255 462 OFFCURVE",
"290 535 OFFCURVE",
"377 535 CURVE SMOOTH",
"464 535 OFFCURVE",
"499 462 OFFCURVE",
"499 345 CURVE SMOOTH",
"499 228 OFFCURVE",
"464 155 OFFCURVE",
"377 155 CURVE SMOOTH"
);
}
);
};
layerId = "84435905-EDCB-4949-A8A3-0E53308A2F50";
paths = (
{
closed = 1;
nodes = (
"721 -90 LINE",
"581 112 LINE",
"549 112 LINE",
"457 262 LINE",
"297 262 LINE",
"429 34 LINE",
"451 34 LINE",
"540 -90 LINE"
);
},
{
closed = 1;
nodes = (
"602 -15 OFFCURVE",
"724 117 OFFCURVE",
"724 345 CURVE SMOOTH",
"724 573 OFFCURVE",
"602 705 OFFCURVE",
"377 705 CURVE SMOOTH",
"152 705 OFFCURVE",
"30 573 OFFCURVE",
"30 345 CURVE SMOOTH",
"30 117 OFFCURVE",
"152 -15 OFFCURVE",
"377 -15 CURVE SMOOTH"
);
},
{
closed = 1;
nodes = (
"290 155 OFFCURVE",
"255 228 OFFCURVE",
"255 345 CURVE SMOOTH",
"255 462 OFFCURVE",
"290 535 OFFCURVE",
"377 535 CURVE SMOOTH",
"464 535 OFFCURVE",
"499 462 OFFCURVE",
"499 345 CURVE SMOOTH",
"499 228 OFFCURVE",
"464 155 OFFCURVE",
"377 155 CURVE SMOOTH"
);
}
);
width = 754;
},
{
background = {
paths = (
{
closed = 1;
nodes = (
"713 -101 LINE",
"580 69 LINE",
"564 69 LINE",
"446 226 LINE",
"342 226 LINE",
"496 18 LINE",
"511 18 LINE",
"605 -101 LINE"
);
},
{
closed = 1;
nodes = (
"614 -15 OFFCURVE",
"740 121 OFFCURVE",
"740 355 CURVE SMOOTH",
"740 589 OFFCURVE",
"614 725 OFFCURVE",
"397 725 CURVE SMOOTH",
"181 725 OFFCURVE",
"55 589 OFFCURVE",
"55 355 CURVE SMOOTH",
"55 121 OFFCURVE",
"181 -15 OFFCURVE",
"397 -15 CURVE SMOOTH"
);
},
{
closed = 1;
nodes = (
"244 75 OFFCURVE",
"161 171 OFFCURVE",
"161 355 CURVE SMOOTH",
"161 539 OFFCURVE",
"244 635 OFFCURVE",
"397 635 CURVE SMOOTH",
"552 635 OFFCURVE",
"635 539 OFFCURVE",
"635 355 CURVE SMOOTH",
"635 171 OFFCURVE",
"552 75 OFFCURVE",
"397 75 CURVE SMOOTH"
);
}
);
};
layerId = "BBFAEC79-FC1B-4455-8BF7-285C9CA7D1F7";
paths = (
{
closed = 1;
nodes = (
"683 -90 LINE",
"560 69 LINE",
"550 69 LINE",
"426 226 LINE",
"322 226 LINE",
"481 18 LINE",
"491 18 LINE",
"575 -90 LINE"
);
},
{
closed = 1;
nodes = (
"571 -15 OFFCURVE",
"694 121 OFFCURVE",
"694 345 CURVE SMOOTH",
"694 569 OFFCURVE",
"571 705 OFFCURVE",
"369 705 CURVE SMOOTH",
"168 705 OFFCURVE",
"45 569 OFFCURVE",
"45 345 CURVE SMOOTH",
"45 121 OFFCURVE",
"168 -15 OFFCURVE",
"369 -15 CURVE SMOOTH"
);
},
{
closed = 1;
nodes = (
"228 76 OFFCURVE",
"152 172 OFFCURVE",
"152 345 CURVE SMOOTH",
"152 518 OFFCURVE",
"228 614 OFFCURVE",
"369 614 CURVE SMOOTH",
"510 614 OFFCURVE",
"587 518 OFFCURVE",
"587 345 CURVE SMOOTH",
"587 172 OFFCURVE",
"510 76 OFFCURVE",
"369 76 CURVE SMOOTH"
);
}
);
width = 739;
},
{
background = {
paths = (
{
closed = 1;
nodes = (
"691 -106 LINE",
"569 44 LINE",
"564 44 LINE",
"426 213 LINE",
"363 213 LINE",
"524 17 LINE",
"529 17 LINE",
"629 -106 LINE"
);
},
{
closed = 1;
nodes = (
"600 -15 OFFCURVE",
"722 123 OFFCURVE",
"722 355 CURVE SMOOTH",
"722 587 OFFCURVE",
"600 725 OFFCURVE",
"396 725 CURVE SMOOTH",
"192 725 OFFCURVE",
"70 587 OFFCURVE",
"70 355 CURVE SMOOTH",
"70 123 OFFCURVE",
"192 -15 OFFCURVE",
"396 -15 CURVE SMOOTH"
);
},
{
closed = 1;
nodes = (
"221 36 OFFCURVE",
"127 148 OFFCURVE",
"127 355 CURVE SMOOTH",
"127 562 OFFCURVE",
"221 674 OFFCURVE",
"396 674 CURVE SMOOTH",
"571 674 OFFCURVE",
"665 562 OFFCURVE",
"665 355 CURVE SMOOTH",
"665 148 OFFCURVE",
"571 36 OFFCURVE",
"396 36 CURVE SMOOTH"
);
}
);
};
layerId = "12E3E5E3-6B17-4D77-9A28-32D63F2CCD05";
paths = (
{
closed = 1;
nodes = (
"618 -90 LINE",
"513 42 LINE",
"508 47 LINE",
"389 197 LINE",
"365 197 LINE",
"493 36 LINE",
"500 29 LINE",
"595 -90 LINE"
);
},
{
closed = 1;
nodes = (
"524 -15 OFFCURVE",
"644 107 OFFCURVE",
"644 345 CURVE SMOOTH",
"644 583 OFFCURVE",
"524 705 OFFCURVE",
"347 705 CURVE SMOOTH",
"170 705 OFFCURVE",
"50 583 OFFCURVE",
"50 345 CURVE SMOOTH",
"50 107 OFFCURVE",
"170 -15 OFFCURVE",
"347 -15 CURVE SMOOTH"
);
},
{
closed = 1;
nodes = (
"180 4 OFFCURVE",
"70 119 OFFCURVE",
"70 345 CURVE SMOOTH",
"70 571 OFFCURVE",
"180 686 OFFCURVE",
"347 686 CURVE SMOOTH",
"514 686 OFFCURVE",
"624 571 OFFCURVE",
"624 345 CURVE SMOOTH",
"624 119 OFFCURVE",
"514 4 OFFCURVE",
"347 4 CURVE SMOOTH"
);
}
);
userData = {
RMXScaler = {
height = 97.3;
width = 97.3;
};
};
width = 694;
}
);
leftMetricsKey = O;
rightMetricsKey = O;
unicode = 0051;
userData = {
RMXScaler = {
source = Q;
};
};
},
{
color = 9;
glyphname = R;
lastChange = "2018-05-19 20:39:10 +0000";
layers = (
{
anchors = (
{
name = bottom;
position = "{360, 0}";
},
{
name = top;
position = "{357, 690}";
}
);
background = {
paths = (
{
closed = 1;
nodes = (
"267 0 LINE",
"267 690 LINE",
"48 690 LINE",
"48 0 LINE"
);
},
{
closed = 1;
nodes = (
"567 202 LINE SMOOTH",
"539 246 OFFCURVE",
"512 273 OFFCURVE",
"442 273 CURVE",
"442 255 LINE",
"594 266 OFFCURVE",
"661 341 OFFCURVE",
"661 472 CURVE SMOOTH",
"661 606 OFFCURVE",
"579 690 OFFCURVE",
"395 690 CURVE SMOOTH",
"248 690 LINE",
"248 531 LINE",
"359 531 LINE SMOOTH",
"428 531 OFFCURVE",
"449 507 OFFCURVE",
"449 457 CURVE SMOOTH",
"449 408 OFFCURVE",
"428 383 OFFCURVE",
"358 383 CURVE SMOOTH",
"248 383 LINE",
"248 239 LINE",
"283 239 LINE SMOOTH",
"316 239 OFFCURVE",
"326 229 OFFCURVE",
"342 202 CURVE SMOOTH",
"463 0 LINE",
"696 0 LINE"
);
}
);
};
layerId = "84435905-EDCB-4949-A8A3-0E53308A2F50";
paths = (
{
closed = 1;
nodes = (
"267 0 LINE",
"267 690 LINE",
"48 690 LINE",
"48 0 LINE"
);
},
{
closed = 1;
nodes = (
"567 202 LINE SMOOTH",
"539 246 OFFCURVE",
"512 273 OFFCURVE",
"442 273 CURVE",
"442 259 LINE",
"466 259 LINE SMOOTH",
"608 259 OFFCURVE",
"661 354 OFFCURVE",
"661 472 CURVE SMOOTH",
"661 606 OFFCURVE",
"579 690 OFFCURVE",
"395 690 CURVE SMOOTH",
"248 690 LINE",
"248 531 LINE",
"359 531 LINE SMOOTH",
"428 531 OFFCURVE",
"449 507 OFFCURVE",
"449 457 CURVE SMOOTH",
"449 408 OFFCURVE",
"428 383 OFFCURVE",
"358 383 CURVE SMOOTH",
"248 383 LINE",
"248 239 LINE",
"262 239 LINE",
"283 239 LINE",
"314 239 OFFCURVE",
"325 230 OFFCURVE",
"342 202 CURVE SMOOTH",
"463 0 LINE",
"696 0 LINE"
);
}
);
width = 701;
},
{
anchors = (
{
name = bottom;
position = "{341, 0}";
},
{
name = top;
position = "{338, 690}";
}
);
background = {
paths = (
{
closed = 1;
nodes = (
"185 0 LINE",
"185 690 LINE",
"80 690 LINE",
"80 0 LINE"
);
},
{
closed = 1;
nodes = (
"456 232 LINE SMOOTH",
"427 273 OFFCURVE",
"410 300 OFFCURVE",
"363 300 CURVE",
"363 291 LINE",
"506 293 OFFCURVE",
"589 357 OFFCURVE",
"589 484 CURVE SMOOTH",
"589 615 OFFCURVE",
"512 690 OFFCURVE",
"364 690 CURVE SMOOTH",
"166 690 LINE",
"166 602 LINE",
"344 602 LINE SMOOTH",
"440 602 OFFCURVE",
"487 571 OFFCURVE",
"487 484 CURVE SMOOTH",
"487 399 OFFCURVE",
"438 363 OFFCURVE",
"342 363 CURVE SMOOTH",
"166 363 LINE",
"166 279 LINE",
"256 279 LINE SMOOTH",
"301 279 OFFCURVE",
"315 261 OFFCURVE",
"341 224 CURVE SMOOTH",
"499 0 LINE",
"619 0 LINE"
);
}
);
};
layerId = "BBFAEC79-FC1B-4455-8BF7-285C9CA7D1F7";
paths = (
{
closed = 1;
nodes = (
"185 0 LINE",
"185 690 LINE",
"80 690 LINE",
"80 0 LINE"
);
},
{
closed = 1;
nodes = (
"456 232 LINE SMOOTH",
"422 281 OFFCURVE",
"404 302 OFFCURVE",
"353 302 CURVE",
"353 294 LINE",
"385 294 LINE SMOOTH",
"513 294 OFFCURVE",
"589 367 OFFCURVE",
"589 484 CURVE SMOOTH",
"589 615 OFFCURVE",
"512 690 OFFCURVE",
"364 690 CURVE SMOOTH",
"166 690 LINE",
"166 602 LINE",
"344 602 LINE SMOOTH",
"440 602 OFFCURVE",
"487 571 OFFCURVE",
"487 484 CURVE SMOOTH",
"487 399 OFFCURVE",
"438 363 OFFCURVE",
"342 363 CURVE SMOOTH",
"166 363 LINE",
"166 279 LINE",
"208 279 LINE",
"246 279 LINE",
"295 279 OFFCURVE",
"312 266 OFFCURVE",
"341 224 CURVE SMOOTH",
"499 0 LINE",
"619 0 LINE"
);
}
);
width = 639;
},
{
anchors = (
{
name = bottom;
position = "{299, 0}";
},
{
name = top;
position = "{276, 690}";
}
);
background = {
paths = (
{
closed = 1;
nodes = (
"120 0 LINE",
"120 690 LINE",
"100 690 LINE",
"100 0 LINE"
);
},
{
closed = 1;
nodes = (
"403 247 LINE SMOOTH",
"363 301 OFFCURVE",
"349 325 OFFCURVE",
"299 325 CURVE",
"319 320 LINE",
"469 320 OFFCURVE",
"554 378 OFFCURVE",
"554 507 CURVE SMOOTH",
"554 635 OFFCURVE",
"486 690 OFFCURVE",
"341 690 CURVE SMOOTH",
"111 690 LINE",
"111 672 LINE",
"341 672 LINE SMOOTH",
"475 672 OFFCURVE",
"534 622 OFFCURVE",
"534 507 CURVE SMOOTH",
"534 392 OFFCURVE",
"461 337 OFFCURVE",
"320 337 CURVE SMOOTH",
"111 337 LINE",
"111 319 LINE",
"252 319 LINE SMOOTH",
"322 319 OFFCURVE",
"340 300 OFFCURVE",
"384 240 CURVE SMOOTH",
"560 0 LINE",
"584 0 LINE"
);
}
);
};
layerId = "12E3E5E3-6B17-4D77-9A28-32D63F2CCD05";
paths = (
{
closed = 1;
nodes = (
"120 0 LINE",
"120 690 LINE",
"100 690 LINE",
"100 0 LINE"
);
},
{
closed = 1;
nodes = (
"389 266 LINE SMOOTH",
"363 302 OFFCURVE",
"339 325 OFFCURVE",
"304 325 CURVE",
"309 321 LINE",
"338 321 LINE SMOOTH",
"476 321 OFFCURVE",
"554 383 OFFCURVE",
"554 507 CURVE SMOOTH",
"554 635 OFFCURVE",
"486 690 OFFCURVE",
"341 690 CURVE SMOOTH",
"111 690 LINE",
"111 672 LINE",
"341 672 LINE SMOOTH",
"475 672 OFFCURVE",
"534 622 OFFCURVE",
"534 507 CURVE SMOOTH",
"534 392 OFFCURVE",
"461 337 OFFCURVE",
"320 337 CURVE SMOOTH",
"111 337 LINE",
"111 319 LINE",
"223 319 LINE",
"257 319 LINE",
"308 319 OFFCURVE",
"339 301 OFFCURVE",
"370 259 CURVE SMOOTH",
"560 0 LINE",
"584 0 LINE"
);
}
);
userData = {
RMXScaler = {
height = 97.3;
width = 97.3;
};
};
width = 619;
}
);
leftMetricsKey = H;
unicode = 0052;
userData = {
RMXScaler = {
source = R;
};
};
},
{
color = 9;
glyphname = S;
lastChange = "2018-05-09 15:18:09 +0000";
layers = (
{
anchors = (
{
name = bottom;
position = "{336, 0}";
},
{
name = top;
position = "{329, 690}";
}
);
background = {
paths = (
{
closed = 1;
nodes = (
"544 -15 OFFCURVE",
"653 69 OFFCURVE",
"653 217 CURVE SMOOTH",
"653 341 OFFCURVE",
"591 403 OFFCURVE",
"427 434 CURVE SMOOTH",
"325 453 LINE SMOOTH",
"259 465 OFFCURVE",
"236 480 OFFCURVE",
"236 513 CURVE SMOOTH",
"236 548 OFFCURVE",
"270 566 OFFCURVE",
"335 566 CURVE SMOOTH",
"416 566 OFFCURVE",
"439 540 OFFCURVE",
"449 484 CURVE",
"650 504 LINE",
"637 642 OFFCURVE",
"547 725 OFFCURVE",
"332 725 CURVE SMOOTH",
"128 725 OFFCURVE",
"26 638 OFFCURVE",
"26 498 CURVE SMOOTH",
"26 369 OFFCURVE",
"110 301 OFFCURVE",
"249 274 CURVE SMOOTH",
"363 252 LINE SMOOTH",
"423 240 OFFCURVE",
"443 229 OFFCURVE",
"443 199 CURVE SMOOTH",
"443 162 OFFCURVE",
"407 144 OFFCURVE",
"345 144 CURVE SMOOTH",
"262 144 OFFCURVE",
"228 164 OFFCURVE",
"215 228 CURVE",
"10 208 LINE",
"20 61 OFFCURVE",
"118 -15 OFFCURVE",
"339 -15 CURVE SMOOTH"
);
}
);
};
layerId = "84435905-EDCB-4949-A8A3-0E53308A2F50";
paths = (
{
closed = 1;
nodes = (
"529 -15 OFFCURVE",
"638 64 OFFCURVE",
"638 212 CURVE SMOOTH",
"638 336 OFFCURVE",
"575 396 OFFCURVE",
"412 424 CURVE SMOOTH",
"330 438 LINE SMOOTH",
"273 448 OFFCURVE",
"251 465 OFFCURVE",
"251 498 CURVE SMOOTH",
"251 533 OFFCURVE",
"285 546 OFFCURVE",
"335 546 CURVE SMOOTH",
"401 546 OFFCURVE",
"416 527 OFFCURVE",
"434 476 CURVE",
"635 476 LINE",
"602 629 OFFCURVE",
"532 705 OFFCURVE",
"332 705 CURVE SMOOTH",
"143 705 OFFCURVE",
"41 628 OFFCURVE",
"41 488 CURVE SMOOTH",
"41 349 OFFCURVE",
"125 289 OFFCURVE",
"264 264 CURVE SMOOTH",
"358 247 LINE SMOOTH",
"408 238 OFFCURVE",
"428 224 OFFCURVE",
"428 194 CURVE SMOOTH",
"428 157 OFFCURVE",
"392 144 OFFCURVE",
"345 144 CURVE SMOOTH",
"279 144 OFFCURVE",
"258 160 OFFCURVE",
"230 219 CURVE",
"25 219 LINE",
"52 57 OFFCURVE",
"133 -15 OFFCURVE",
"339 -15 CURVE SMOOTH"
);
}
);
width = 663;
},
{
anchors = (
{
name = bottom;
position = "{310, 0}";
},
{
name = top;
position = "{304, 690}";
}
);
background = {
paths = (
{
closed = 1;
nodes = (
"490 -15 OFFCURVE",
"587 67 OFFCURVE",
"587 194 CURVE SMOOTH",
"587 311 OFFCURVE",
"520 370 OFFCURVE",
"374 395 CURVE SMOOTH",
"285 410 LINE SMOOTH",
"188 426 OFFCURVE",
"150 461 OFFCURVE",
"150 529 CURVE SMOOTH",
"150 601 OFFCURVE",
"208 639 OFFCURVE",
"306 639 CURVE SMOOTH",
"418 639 OFFCURVE",
"464 607 OFFCURVE",
"480 515 CURVE",
"583 522 LINE",
"567 663 OFFCURVE",
"480 725 OFFCURVE",
"307 725 CURVE SMOOTH",
"143 725 OFFCURVE",
"47 652 OFFCURVE",
"47 522 CURVE SMOOTH",
"47 411 OFFCURVE",
"112 347 OFFCURVE",
"254 321 CURVE SMOOTH",
"343 305 LINE SMOOTH",
"443 287 OFFCURVE",
"484 260 OFFCURVE",
"484 190 CURVE SMOOTH",
"484 120 OFFCURVE",
"423 71 OFFCURVE",
"319 71 CURVE SMOOTH",
"195 71 OFFCURVE",
"144 113 OFFCURVE",
"128 195 CURVE",
"25 187 LINE",
"37 52 OFFCURVE",
"129 -15 OFFCURVE",
"316 -15 CURVE SMOOTH"
);
}
);
};
layerId = "BBFAEC79-FC1B-4455-8BF7-285C9CA7D1F7";
paths = (
{
closed = 1;
nodes = (
"475 -15 OFFCURVE",
"571 56 OFFCURVE",
"571 189 CURVE SMOOTH",
"571 301 OFFCURVE",
"505 359 OFFCURVE",
"374 384 CURVE SMOOTH",
"285 401 LINE SMOOTH",
"203 417 OFFCURVE",
"165 451 OFFCURVE",
"165 514 CURVE SMOOTH",
"165 586 OFFCURVE",
"223 619 OFFCURVE",
"306 619 CURVE SMOOTH",
"400 619 OFFCURVE",
"437 587 OFFCURVE",
"467 495 CURVE",
"570 495 LINE",
"534 646 OFFCURVE",
"455 705 OFFCURVE",
"307 705 CURVE SMOOTH",
"158 705 OFFCURVE",
"63 637 OFFCURVE",
"63 509 CURVE SMOOTH",
"63 403 OFFCURVE",
"127 336 OFFCURVE",
"254 312 CURVE SMOOTH",
"343 295 LINE SMOOTH",
"428 279 OFFCURVE",
"469 250 OFFCURVE",
"469 185 CURVE SMOOTH",
"469 109 OFFCURVE",
"413 71 OFFCURVE",
"319 71 CURVE SMOOTH",
"217 71 OFFCURVE",
"179 103 OFFCURVE",
"143 195 CURVE",
"40 195 LINE",
"72 50 OFFCURVE",
"146 -15 OFFCURVE",
"316 -15 CURVE SMOOTH"
);
}
);
width = 616;
},
{
anchors = (
{
name = bottom;
position = "{305, 0}";
},
{
name = top;
position = "{306, 690}";
}
);
background = {
paths = (
{
closed = 1;
nodes = (
"462 -15 OFFCURVE",
"558 61 OFFCURVE",
"558 186 CURVE SMOOTH",
"558 301 OFFCURVE",
"485 348 OFFCURVE",
"360 374 CURVE SMOOTH",
"262 394 LINE SMOOTH",
"158 415 OFFCURVE",
"115 455 OFFCURVE",
"115 535 CURVE SMOOTH",
"115 624 OFFCURVE",
"184 676 OFFCURVE",
"299 676 CURVE SMOOTH",
"421 676 OFFCURVE",
"478 637 OFFCURVE",
"498 528 CURVE",
"552 533 LINE",
"532 667 OFFCURVE",
"447 725 OFFCURVE",
"299 725 CURVE SMOOTH",
"151 725 OFFCURVE",
"61 653 OFFCURVE",
"61 532 CURVE SMOOTH",
"61 426 OFFCURVE",
"124 369 OFFCURVE",
"250 343 CURVE SMOOTH",
"348 323 LINE SMOOTH",
"452 302 OFFCURVE",
"504 271 OFFCURVE",
"504 182 CURVE SMOOTH",
"504 89 OFFCURVE",
"431 34 OFFCURVE",
"311 34 CURVE SMOOTH",
"182 34 OFFCURVE",
"107 82 OFFCURVE",
"91 182 CURVE",
"37 177 LINE",
"54 51 OFFCURVE",
"149 -15 OFFCURVE",
"309 -15 CURVE SMOOTH"
);
}
);
};
layerId = "12E3E5E3-6B17-4D77-9A28-32D63F2CCD05";
paths = (
{
closed = 1;
nodes = (
"473 -15 OFFCURVE",
"554 58 OFFCURVE",
"554 170 CURVE SMOOTH",
"554 271 OFFCURVE",
"518 329 OFFCURVE",
"345 356 CURVE SMOOTH",
"281 366 LINE SMOOTH",
"167 384 OFFCURVE",
"115 431 OFFCURVE",
"115 525 CURVE SMOOTH",
"115 623 OFFCURVE",
"185 686 OFFCURVE",
"308 686 CURVE SMOOTH",
"426 686 OFFCURVE",
"490 646 OFFCURVE",
"524 515 CURVE",
"544 515 LINE",
"509 656 OFFCURVE",
"438 705 OFFCURVE",
"308 705 CURVE SMOOTH",
"175 705 OFFCURVE",
"95 634 OFFCURVE",
"95 525 CURVE SMOOTH",
"95 422 OFFCURVE",
"154 366 OFFCURVE",
"277 347 CURVE SMOOTH",
"341 337 LINE SMOOTH",
"503 312 OFFCURVE",
"534 262 OFFCURVE",
"534 170 CURVE SMOOTH",
"534 69 OFFCURVE",
"462 4 OFFCURVE",
"326 4 CURVE SMOOTH",
"187 4 OFFCURVE",
"116 53 OFFCURVE",
"80 195 CURVE",
"60 195 LINE",
"96 43 OFFCURVE",
"176 -15 OFFCURVE",
"326 -15 CURVE SMOOTH"
);
}
);
userData = {
RMXScaler = {
height = 97.3;
width = 97.3;
};
};
width = 614;
},
{
anchors = (
{
name = bottom;
position = "{330, 0}";
},
{
name = top;
position = "{327, 710}";
}
);
associatedMasterId = "12E3E5E3-6B17-4D77-9A28-32D63F2CCD05";
background = {
paths = (
{
closed = 1;
nodes = (
"496 -15 OFFCURVE",
"590 55 OFFCURVE",
"590 183 CURVE SMOOTH",
"590 294 OFFCURVE",
"516 349 OFFCURVE",
"389 376 CURVE SMOOTH",
"294 396 LINE SMOOTH",
"194 417 OFFCURVE",
"152 471 OFFCURVE",
"152 536 CURVE SMOOTH",
"152 630 OFFCURVE",
"230 675 OFFCURVE",
"330 675 CURVE SMOOTH",
"453 675 OFFCURVE",
"512 638 OFFCURVE",
"534 530 CURVE",
"592 530 LINE",
"572 666 OFFCURVE",
"487 725 OFFCURVE",
"329 725 CURVE SMOOTH",
"181 725 OFFCURVE",
"94 648 OFFCURVE",
"94 533 CURVE SMOOTH",
"94 440 OFFCURVE",
"157 365 OFFCURVE",
"282 340 CURVE SMOOTH",
"377 321 LINE SMOOTH",
"477 301 OFFCURVE",
"532 263 OFFCURVE",
"532 177 CURVE SMOOTH",
"532 86 OFFCURVE",
"462 35 OFFCURVE",
"349 35 CURVE SMOOTH",
"217 35 OFFCURVE",
"151 72 OFFCURVE",
"129 175 CURVE",
"70 175 LINE",
"88 42 OFFCURVE",
"180 -15 OFFCURVE",
"348 -15 CURVE SMOOTH"
);
}
);
};
layerId = "373B906D-F1E8-45FF-8031-B215F20BDF67";
name = "Sep 19 17, 15:45";
paths = (
{
closed = 1;
nodes = (
"497 -15 OFFCURVE",
"591 55 OFFCURVE",
"591 183 CURVE SMOOTH",
"591 294 OFFCURVE",
"517 349 OFFCURVE",
"389 376 CURVE SMOOTH",
"294 396 LINE SMOOTH",
"194 417 OFFCURVE",
"152 471 OFFCURVE",
"152 536 CURVE SMOOTH",
"152 630 OFFCURVE",
"230 675 OFFCURVE",
"330 675 CURVE SMOOTH",
"450 675 OFFCURVE",
"508 638 OFFCURVE",
"529 530 CURVE",
"587 530 LINE",
"567 666 OFFCURVE",
"484 725 OFFCURVE",
"329 725 CURVE SMOOTH",
"181 725 OFFCURVE",
"94 648 OFFCURVE",
"94 533 CURVE SMOOTH",
"94 440 OFFCURVE",
"157 365 OFFCURVE",
"282 340 CURVE SMOOTH",
"377 321 LINE SMOOTH",
"478 301 OFFCURVE",
"533 263 OFFCURVE",
"533 177 CURVE SMOOTH",
"533 86 OFFCURVE",
"463 35 OFFCURVE",
"349 35 CURVE SMOOTH",
"217 35 OFFCURVE",
"151 72 OFFCURVE",
"129 175 CURVE",
"70 175 LINE",
"88 42 OFFCURVE",
"180 -15 OFFCURVE",
"348 -15 CURVE SMOOTH"
);
}
);
userData = {
RMXScaler = {
height = 97.3;
width = 97.3;
};
};
width = 662;
},
{
anchors = (
{
name = bottom;
position = "{320, 0}";
},
{
name = top;
position = "{317, 710}";
}
);
associatedMasterId = "12E3E5E3-6B17-4D77-9A28-32D63F2CCD05";
background = {
paths = (
{
closed = 1;
nodes = (
"488 -15 OFFCURVE",
"581 55 OFFCURVE",
"581 182 CURVE SMOOTH",
"581 294 OFFCURVE",
"507 350 OFFCURVE",
"379 376 CURVE SMOOTH",
"284 395 LINE SMOOTH",
"184 415 OFFCURVE",
"142 456 OFFCURVE",
"142 535 CURVE SMOOTH",
"142 623 OFFCURVE",
"210 675 OFFCURVE",
"321 675 CURVE SMOOTH",
"439 675 OFFCURVE",
"496 638 OFFCURVE",
"517 530 CURVE",
"575 530 LINE",
"555 666 OFFCURVE",
"473 725 OFFCURVE",
"321 725 CURVE SMOOTH",
"174 725 OFFCURVE",
"84 653 OFFCURVE",
"84 532 CURVE SMOOTH",
"84 426 OFFCURVE",
"146 365 OFFCURVE",
"272 340 CURVE SMOOTH",
"367 321 LINE SMOOTH",
"468 301 OFFCURVE",
"523 263 OFFCURVE",
"523 178 CURVE SMOOTH",
"523 86 OFFCURVE",
"453 35 OFFCURVE",
"339 35 CURVE SMOOTH",
"199 35 OFFCURVE",
"138 76 OFFCURVE",
"119 175 CURVE",
"60 175 LINE",
"75 42 OFFCURVE",
"167 -15 OFFCURVE",
"337 -15 CURVE SMOOTH"
);
}
);
};
guideLines = (
{
angle = 77.692;
position = "{311, 351}";
showMeasurement = 1;
}
);
layerId = "32D0548A-96A2-477E-A7D6-D5332F79EB29";
name = "Sep 20 17, 09:04";
paths = (
{
closed = 1;
nodes = (
"489 -15 OFFCURVE",
"582 55 OFFCURVE",
"582 182 CURVE SMOOTH",
"582 295 OFFCURVE",
"508 351 OFFCURVE",
"379 377 CURVE SMOOTH",
"284 396 LINE SMOOTH",
"184 416 OFFCURVE",
"142 457 OFFCURVE",
"142 535 CURVE SMOOTH",
"142 623 OFFCURVE",
"210 674 OFFCURVE",
"321 674 CURVE SMOOTH",
"438 674 OFFCURVE",
"495 637 OFFCURVE",
"516 530 CURVE",
"575 530 LINE",
"555 666 OFFCURVE",
"473 725 OFFCURVE",
"321 725 CURVE SMOOTH",
"173 725 OFFCURVE",
"83 653 OFFCURVE",
"83 532 CURVE SMOOTH",
"83 426 OFFCURVE",
"145 365 OFFCURVE",
"272 340 CURVE SMOOTH",
"367 321 LINE SMOOTH",
"468 301 OFFCURVE",
"523 263 OFFCURVE",
"523 178 CURVE SMOOTH",
"523 87 OFFCURVE",
"453 36 OFFCURVE",
"339 36 CURVE SMOOTH",
"200 36 OFFCURVE",
"139 77 OFFCURVE",
"120 175 CURVE",
"60 175 LINE",
"75 42 OFFCURVE",
"167 -15 OFFCURVE",
"337 -15 CURVE SMOOTH"
);
}
);
userData = {
RMXScaler = {
height = 97.3;
width = 97.3;
};
};
width = 649;
},
{
anchors = (
{
name = bottom;
position = "{320, 0}";
},
{
name = top;
position = "{317, 710}";
}
);
associatedMasterId = "12E3E5E3-6B17-4D77-9A28-32D63F2CCD05";
background = {
paths = (
{
closed = 1;
nodes = (
"468 725 OFFCURVE",
"309 725 CURVE SMOOTH",
"164 725 OFFCURVE",
"60 663 OFFCURVE",
"60 528 CURVE SMOOTH",
"60 413 OFFCURVE",
"133 359 OFFCURVE",
"258 334 CURVE SMOOTH",
"358 314 LINE SMOOTH",
"458 294 OFFCURVE",
"500 253 OFFCURVE",
"500 175 CURVE SMOOTH",
"500 87 OFFCURVE",
"432 36 OFFCURVE",
"321 36 CURVE SMOOTH",
"204 36 OFFCURVE",
"147 73 OFFCURVE",
"126 180 CURVE",
"67 180 LINE",
"87 44 OFFCURVE",
"169 -15 OFFCURVE",
"321 -15 CURVE SMOOTH",
"469 -15 OFFCURVE",
"559 57 OFFCURVE",
"559 178 CURVE SMOOTH",
"559 284 OFFCURVE",
"496 345 OFFCURVE",
"370 370 CURVE SMOOTH",
"270 390 LINE SMOOTH",
"170 410 OFFCURVE",
"119 445 OFFCURVE",
"119 532 CURVE SMOOTH",
"119 630 OFFCURVE",
"194 674 OFFCURVE",
"307 674 CURVE SMOOTH",
"429 674 OFFCURVE",
"502 641 OFFCURVE",
"522 535 CURVE",
"582 535 LINE",
"567 672 OFFCURVE"
);
}
);
};
guideLines = (
{
angle = 77.692;
position = "{311, 351}";
showMeasurement = 1;
},
{
angle = -11.3099;
position = "{384, 376}";
}
);
layerId = "64D3D5B7-76A4-40DD-BC47-BB2918530820";
name = "Sep 20 17, 09:09";
paths = (
{
closed = 1;
nodes = (
"469 -15 OFFCURVE",
"559 57 OFFCURVE",
"559 178 CURVE SMOOTH",
"559 284 OFFCURVE",
"496 345 OFFCURVE",
"370 370 CURVE SMOOTH",
"270 390 LINE SMOOTH",
"170 410 OFFCURVE",
"119 445 OFFCURVE",
"119 532 CURVE SMOOTH",
"119 624 OFFCURVE",
"186 674 OFFCURVE",
"307 674 CURVE SMOOTH",
"440 674 OFFCURVE",
"504 633 OFFCURVE",
"522 535 CURVE",
"582 535 LINE",
"568 663 OFFCURVE",
"480 725 OFFCURVE",
"309 725 CURVE SMOOTH",
"151 725 OFFCURVE",
"60 653 OFFCURVE",
"60 528 CURVE SMOOTH",
"60 413 OFFCURVE",
"133 359 OFFCURVE",
"258 334 CURVE SMOOTH",
"358 314 LINE SMOOTH",
"458 294 OFFCURVE",
"500 253 OFFCURVE",
"500 175 CURVE SMOOTH",
"500 87 OFFCURVE",
"432 36 OFFCURVE",
"321 36 CURVE SMOOTH",
"204 36 OFFCURVE",
"147 73 OFFCURVE",
"126 180 CURVE",
"67 180 LINE",
"87 44 OFFCURVE",
"169 -15 OFFCURVE",
"321 -15 CURVE SMOOTH"
);
}
);
userData = {
RMXScaler = {
height = 97.3;
width = 97.3;
};
};
width = 649;
}
);
unicode = 0053;
userData = {
RMXScaler = {
source = S;
};
};
},
{
color = 9;
glyphname = T;
lastChange = "2018-05-09 11:36:35 +0000";
layers = (
{
anchors = (
{
name = bottom;
position = "{312, 0}";
},
{
name = top;
position = "{309, 690}";
}
);
background = {
paths = (
{
closed = 1;
nodes = (
"-7 710 LINE",
"-7 537 LINE",
"198 537 LINE",
"198 0 LINE",
"418 0 LINE",
"418 537 LINE",
"623 537 LINE",
"623 710 LINE"
);
}
);
};
layerId = "84435905-EDCB-4949-A8A3-0E53308A2F50";
paths = (
{
closed = 1;
nodes = (
"5 690 LINE",
"5 517 LINE",
"198 517 LINE",
"198 0 LINE",
"418 0 LINE",
"418 517 LINE",
"611 517 LINE",
"611 690 LINE"
);
}
);
width = 616;
},
{
anchors = (
{
name = bottom;
position = "{276, 0}";
},
{
name = top;
position = "{273, 690}";
}
);
background = {
paths = (
{
closed = 1;
nodes = (
"-6 710 LINE",
"-6 620 LINE",
"221 620 LINE",
"221 0 LINE",
"326 0 LINE",
"326 620 LINE",
"552 620 LINE",
"552 710 LINE"
);
}
);
};
layerId = "BBFAEC79-FC1B-4455-8BF7-285C9CA7D1F7";
paths = (
{
closed = 1;
nodes = (
"10 690 LINE",
"10 600 LINE",
"221 600 LINE",
"221 0 LINE",
"326 0 LINE",
"326 600 LINE",
"537 600 LINE",
"537 690 LINE"
);
}
);
width = 547;
},
{
anchors = (
{
name = bottom;
position = "{260, 0}";
},
{
name = top;
position = "{259, 690}";
}
);
background = {
paths = (
{
closed = 1;
nodes = (
"-9 710 LINE",
"-9 660 LINE",
"231 660 LINE",
"231 0 LINE",
"286 0 LINE",
"286 660 LINE",
"526 660 LINE",
"526 710 LINE"
);
}
);
};
layerId = "12E3E5E3-6B17-4D77-9A28-32D63F2CCD05";
paths = (
{
closed = 1;
nodes = (
"10 690 LINE",
"10 671 LINE",
"250 671 LINE",
"250 0 LINE",
"270 0 LINE",
"270 671 LINE",
"510 671 LINE",
"510 690 LINE"
);
}
);
userData = {
RMXScaler = {
height = 97.3;
width = 97.3;
};
};
width = 520;
}
);
unicode = 0054;
userData = {
RMXScaler = {
source = T;
};
};
},
{
color = 9;
glyphname = U;
lastChange = "2018-05-24 13:56:38 +0000";
layers = (
{
anchors = (
{
name = bottom;
position = "{356, 0}";
},
{
name = ogonek;
position = "{450, 0}";
},
{
name = top;
position = "{352, 690}";
}
);
background = {
paths = (
{
closed = 1;
nodes = (
"586 -15 OFFCURVE",
"684 84 OFFCURVE",
"684 320 CURVE SMOOTH",
"684 710 LINE",
"464 710 LINE",
"464 315 LINE SMOOTH",
"464 204 OFFCURVE",
"445 155 OFFCURVE",
"356 155 CURVE SMOOTH",
"267 155 OFFCURVE",
"247 204 OFFCURVE",
"247 315 CURVE SMOOTH",
"247 710 LINE",
"27 710 LINE",
"27 320 LINE SMOOTH",
"27 84 OFFCURVE",
"126 -15 OFFCURVE",
"356 -15 CURVE SMOOTH"
);
}
);
};
layerId = "84435905-EDCB-4949-A8A3-0E53308A2F50";
paths = (
{
closed = 1;
nodes = (
"575 -15 OFFCURVE",
"673 74 OFFCURVE",
"673 310 CURVE SMOOTH",
"673 690 LINE",
"453 690 LINE",
"453 305 LINE SMOOTH",
"453 194 OFFCURVE",
"434 155 OFFCURVE",
"356 155 CURVE SMOOTH",
"278 155 OFFCURVE",
"258 194 OFFCURVE",
"258 305 CURVE SMOOTH",
"258 690 LINE",
"38 690 LINE",
"38 310 LINE SMOOTH",
"38 74 OFFCURVE",
"137 -15 OFFCURVE",
"356 -15 CURVE SMOOTH"
);
}
);
width = 711;
},
{
anchors = (
{
name = bottom;
position = "{346, 0}";
},
{
name = ogonek;
position = "{444, 0}";
},
{
name = top;
position = "{345, 690}";
}
);
background = {
anchors = (
{
name = bottom;
position = "{346, 0}";
},
{
name = ogonek;
position = "{444, 0}";
},
{
name = top;
position = "{345, 710}";
}
);
paths = (
{
closed = 1;
nodes = (
"533 -15 OFFCURVE",
"636 76 OFFCURVE",
"636 287 CURVE SMOOTH",
"636 710 LINE",
"530 710 LINE",
"530 297 LINE SMOOTH",
"530 131 OFFCURVE",
"468 76 OFFCURVE",
"346 76 CURVE SMOOTH",
"224 76 OFFCURVE",
"162 131 OFFCURVE",
"162 297 CURVE SMOOTH",
"162 710 LINE",
"57 710 LINE",
"57 287 LINE SMOOTH",
"57 76 OFFCURVE",
"159 -15 OFFCURVE",
"346 -15 CURVE SMOOTH"
);
}
);
};
layerId = "BBFAEC79-FC1B-4455-8BF7-285C9CA7D1F7";
paths = (
{
closed = 1;
nodes = (
"520 -15 OFFCURVE",
"623 76 OFFCURVE",
"623 287 CURVE SMOOTH",
"623 690 LINE",
"517 690 LINE",
"517 297 LINE SMOOTH",
"517 131 OFFCURVE",
"455 76 OFFCURVE",
"346 76 CURVE SMOOTH",
"237 76 OFFCURVE",
"175 131 OFFCURVE",
"175 297 CURVE SMOOTH",
"175 690 LINE",
"70 690 LINE",
"70 287 LINE SMOOTH",
"70 76 OFFCURVE",
"172 -15 OFFCURVE",
"346 -15 CURVE SMOOTH"
);
}
);
width = 693;
},
{
anchors = (
{
name = bottom;
position = "{332, 0}";
},
{
name = ogonek;
position = "{442, 0}";
},
{
name = top;
position = "{329, 690}";
}
);
background = {
paths = (
{
closed = 1;
nodes = (
"557 -15 OFFCURVE",
"661 71 OFFCURVE",
"661 262 CURVE SMOOTH",
"661 710 LINE",
"606 710 LINE",
"606 270 LINE SMOOTH",
"606 91 OFFCURVE",
"527 36 OFFCURVE",
"391 36 CURVE SMOOTH",
"255 36 OFFCURVE",
"176 91 OFFCURVE",
"176 270 CURVE SMOOTH",
"176 710 LINE",
"121 710 LINE",
"121 262 LINE SMOOTH",
"121 71 OFFCURVE",
"225 -15 OFFCURVE",
"391 -15 CURVE SMOOTH"
);
}
);
};
layerId = "12E3E5E3-6B17-4D77-9A28-32D63F2CCD05";
paths = (
{
closed = 1;
nodes = (
"486 -15 OFFCURVE",
"574 74 OFFCURVE",
"574 264 CURVE SMOOTH",
"574 690 LINE",
"554 690 LINE",
"554 264 LINE SMOOTH",
"554 87 OFFCURVE",
"476 3 OFFCURVE",
"332 3 CURVE SMOOTH",
"188 3 OFFCURVE",
"110 87 OFFCURVE",
"110 264 CURVE SMOOTH",
"110 690 LINE",
"90 690 LINE",
"90 264 LINE SMOOTH",
"90 74 OFFCURVE",
"178 -15 OFFCURVE",
"332 -15 CURVE SMOOTH"
);
}
);
userData = {
RMXScaler = {
height = 97.3;
width = 97.3;
};
};
width = 664;
}
);
unicode = 0055;
userData = {
RMXScaler = {
source = U;
};
};
},
{
color = 9;
glyphname = V;
lastChange = "2018-05-19 10:41:47 +0000";
layers = (
{
background = {
paths = (
{
closed = 1;
nodes = (
"363 183 LINE",
"356 183 LINE",
"217 710 LINE",
"-13 710 LINE",
"195 0 LINE",
"505 0 LINE",
"713 710 LINE",
"498 710 LINE"
);
}
);
};
layerId = "84435905-EDCB-4949-A8A3-0E53308A2F50";
paths = (
{
closed = 1;
nodes = (
"360 173 LINE",
"359 173 LINE",
"235 690 LINE",
"5 690 LINE",
"195 0 LINE",
"505 0 LINE",
"695 690 LINE",
"480 690 LINE"
);
}
);
width = 700;
},
{
background = {
paths = (
{
closed = 1;
nodes = (
"319 138 LINE",
"318 138 LINE",
"116 690 LINE",
"5 690 LINE",
"263 0 LINE",
"364 0 LINE",
"622 690 LINE",
"516 690 LINE"
);
}
);
};
layerId = "BBFAEC79-FC1B-4455-8BF7-285C9CA7D1F7";
paths = (
{
closed = 1;
nodes = (
"317 98 LINE",
"316 98 LINE",
"116 690 LINE",
"5 690 LINE",
"246 0 LINE",
"381 0 LINE",
"622 690 LINE",
"513 690 LINE"
);
}
);
width = 627;
},
{
background = {
paths = (
{
closed = 1;
nodes = (
"289 69 LINE",
"284 69 LINE",
"44 710 LINE",
"-15 710 LINE",
"254 0 LINE",
"316 0 LINE",
"585 710 LINE",
"527 710 LINE"
);
}
);
};
layerId = "12E3E5E3-6B17-4D77-9A28-32D63F2CCD05";
paths = (
{
closed = 1;
nodes = (
"291 27 LINE",
"290 27 LINE",
"28 690 LINE",
"5 690 LINE",
"280 0 LINE",
"300 0 LINE",
"575 690 LINE",
"553 690 LINE"
);
}
);
userData = {
RMXScaler = {
height = 97.3;
width = 97.3;
};
};
width = 580;
}
);
unicode = 0056;
userData = {
RMXScaler = {
source = V;
};
};
},
{
color = 9;
glyphname = W;
lastChange = "2018-05-19 10:44:13 +0000";
layers = (
{
anchors = (
{
name = top;
position = "{553, 690}";
}
);
background = {
paths = (
{
closed = 1;
nodes = (
"799 203 LINE",
"789 203 LINE",
"694 710 LINE",
"418 710 LINE",
"321 203 LINE",
"311 203 LINE",
"220 710 LINE",
"-16 710 LINE",
"154 0 LINE",
"446 0 LINE",
"535 487 LINE",
"541 487 LINE",
"631 0 LINE",
"923 0 LINE",
"1093 710 LINE",
"892 710 LINE"
);
}
);
};
layerId = "84435905-EDCB-4949-A8A3-0E53308A2F50";
paths = (
{
closed = 1;
nodes = (
"777 203 LINE",
"776 203 LINE",
"681 690 LINE",
"430 690 LINE",
"333 203 LINE",
"332 203 LINE",
"241 690 LINE",
"5 690 LINE",
"175 0 LINE",
"448 0 LINE",
"537 467 LINE",
"538 467 LINE",
"628 0 LINE",
"901 0 LINE",
"1071 690 LINE",
"870 690 LINE"
);
}
);
width = 1076;
},
{
anchors = (
{
name = top;
position = "{476, 690}";
}
);
background = {
paths = (
{
closed = 1;
nodes = (
"691 148 LINE",
"690 148 LINE",
"520 690 LINE",
"432 690 LINE",
"269 148 LINE",
"268 148 LINE",
"116 690 LINE",
"5 690 LINE",
"211 0 LINE",
"311 0 LINE",
"473 531 LINE",
"474 531 LINE",
"635 0 LINE",
"735 0 LINE",
"941 690 LINE",
"836 690 LINE"
);
}
);
};
layerId = "BBFAEC79-FC1B-4455-8BF7-285C9CA7D1F7";
paths = (
{
closed = 1;
nodes = (
"692 98 LINE",
"691 98 LINE",
"540 690 LINE",
"412 690 LINE",
"265 98 LINE",
"264 98 LINE",
"116 690 LINE",
"5 690 LINE",
"192 0 LINE",
"330 0 LINE",
"475 571 LINE",
"476 571 LINE",
"616 0 LINE",
"754 0 LINE",
"941 690 LINE",
"836 690 LINE"
);
}
);
width = 946;
},
{
anchors = (
{
name = top;
position = "{451, 690}";
}
);
background = {
paths = (
{
closed = 1;
nodes = (
"693 66 LINE",
"689 66 LINE",
"504 710 LINE",
"437 710 LINE",
"255 66 LINE",
"251 66 LINE",
"65 710 LINE",
"6 710 LINE",
"215 0 LINE",
"286 0 LINE",
"467 635 LINE",
"471 635 LINE",
"653 0 LINE",
"724 0 LINE",
"933 710 LINE",
"876 710 LINE"
);
}
);
};
layerId = "12E3E5E3-6B17-4D77-9A28-32D63F2CCD05";
paths = (
{
closed = 1;
nodes = (
"666 34 LINE",
"665 34 LINE",
"462 690 LINE",
"441 690 LINE",
"238 34 LINE",
"237 34 LINE",
"31 690 LINE",
"10 690 LINE",
"227 0 LINE",
"247 0 LINE",
"451 657 LINE",
"452 657 LINE",
"655 0 LINE",
"675 0 LINE",
"892 690 LINE",
"872 690 LINE"
);
}
);
userData = {
RMXScaler = {
height = 97.3;
width = 97.3;
};
};
width = 902;
}
);
unicode = 0057;
userData = {
RMXScaler = {
source = W;
};
};
},
{
color = 9;
glyphname = X;
lastChange = "2018-05-18 13:47:51 +0000";
layers = (
{
background = {
paths = (
{
closed = 1;
nodes = (
"206 0 LINE",
"380 331 LINE",
"473 331 LINE",
"691 710 LINE",
"476 710 LINE",
"309 394 LINE",
"215 394 LINE",
"-8 0 LINE"
);
},
{
closed = 1;
nodes = (
"694 0 LINE",
"429 481 LINE",
"348 481 LINE",
"225 710 LINE",
"-5 710 LINE",
"255 232 LINE",
"336 232 LINE",
"464 0 LINE"
);
}
);
};
layerId = "84435905-EDCB-4949-A8A3-0E53308A2F50";
paths = (
{
closed = 1;
nodes = (
"219 0 LINE",
"380 321 LINE",
"473 321 LINE",
"678 690 LINE",
"463 690 LINE",
"309 384 LINE",
"215 384 LINE",
"5 0 LINE"
);
},
{
closed = 1;
nodes = (
"681 0 LINE",
"439 451 LINE",
"358 451 LINE",
"238 690 LINE",
"8 690 LINE",
"245 242 LINE",
"326 242 LINE",
"451 0 LINE"
);
}
);
width = 686;
},
{
background = {
paths = (
{
closed = 1;
nodes = (
"102 0 LINE",
"293 283 LINE",
"327 283 LINE",
"610 710 LINE",
"501 710 LINE",
"315 429 LINE",
"281 429 LINE",
"-7 0 LINE"
);
},
{
closed = 1;
nodes = (
"613 0 LINE",
"353 369 LINE",
"325 409 LINE",
"112 710 LINE",
"-4 710 LINE",
"249 351 LINE",
"281 306 LINE",
"497 0 LINE"
);
}
);
};
layerId = "BBFAEC79-FC1B-4455-8BF7-285C9CA7D1F7";
paths = (
{
closed = 1;
nodes = (
"119 0 LINE",
"296 278 LINE",
"330 278 LINE",
"593 690 LINE",
"484 690 LINE",
"312 414 LINE",
"278 414 LINE",
"10 0 LINE"
);
},
{
closed = 1;
nodes = (
"596 0 LINE",
"352 361 LINE",
"326 399 LINE",
"129 690 LINE",
"13 690 LINE",
"248 343 LINE",
"274 305 LINE",
"480 0 LINE"
);
}
);
width = 606;
},
{
background = {
paths = (
{
closed = 1;
nodes = (
"108 0 LINE",
"325 315 LINE",
"339 315 LINE",
"610 710 LINE",
"550 710 LINE",
"337 397 LINE",
"323 397 LINE",
"48 0 LINE"
);
},
{
closed = 1;
nodes = (
"613 0 LINE",
"356 364 LINE",
"343 383 LINE",
"112 710 LINE",
"51 710 LINE",
"303 352 LINE",
"317 333 LINE",
"552 0 LINE"
);
}
);
};
layerId = "12E3E5E3-6B17-4D77-9A28-32D63F2CCD05";
paths = (
{
closed = 1;
nodes = (
"42 0 LINE",
"280 334 LINE",
"286 341 LINE",
"532 690 LINE",
"510 690 LINE",
"274 356 LINE",
"268 349 LINE",
"20 0 LINE"
);
},
{
closed = 1;
nodes = (
"535 0 LINE",
"286 352 LINE",
"281 359 LINE",
"47 690 LINE",
"23 690 LINE",
"268 343 LINE",
"273 336 LINE",
"511 0 LINE"
);
}
);
userData = {
RMXScaler = {
height = 97.3;
width = 97.3;
};
};
width = 555;
}
);
unicode = 0058;
userData = {
RMXScaler = {
source = X;
};
};
},
{
color = 9;
glyphname = Y;
lastChange = "2018-05-09 13:38:35 +0000";
layers = (
{
anchors = (
{
name = bottom;
position = "{358, 0}";
},
{
name = top;
position = "{357, 690}";
}
);
background = {
paths = (
{
closed = 1;
nodes = (
"521 710 LINE",
"375 451 LINE",
"368 451 LINE",
"217 710 LINE",
"-15 710 LINE",
"248 266 LINE",
"248 0 LINE",
"467 0 LINE",
"467 266 LINE",
"730 710 LINE"
);
}
);
};
layerId = "84435905-EDCB-4949-A8A3-0E53308A2F50";
paths = (
{
closed = 1;
nodes = (
"501 690 LINE",
"372 441 LINE",
"371 441 LINE",
"237 690 LINE",
"5 690 LINE",
"248 266 LINE",
"248 0 LINE",
"467 0 LINE",
"467 266 LINE",
"710 690 LINE"
);
}
);
width = 715;
},
{
anchors = (
{
name = bottom;
position = "{315, 0}";
},
{
name = top;
position = "{311, 690}";
}
);
background = {
paths = (
{
closed = 1;
nodes = (
"530 710 LINE",
"321 359 LINE",
"317 359 LINE",
"100 710 LINE",
"-15 710 LINE",
"260 260 LINE",
"260 0 LINE",
"364 0 LINE",
"364 260 LINE",
"639 710 LINE"
);
}
);
};
layerId = "BBFAEC79-FC1B-4455-8BF7-285C9CA7D1F7";
paths = (
{
closed = 1;
nodes = (
"513 690 LINE",
"319 349 LINE",
"318 349 LINE",
"117 690 LINE",
"2 690 LINE",
"260 250 LINE",
"260 0 LINE",
"364 0 LINE",
"364 250 LINE",
"622 690 LINE"
);
}
);
width = 624;
},
{
anchors = (
{
name = bottom;
position = "{312, 0}";
},
{
name = top;
position = "{286, 690}";
}
);
background = {
paths = (
{
closed = 1;
nodes = (
"556 710 LINE",
"313 319 LINE",
"310 319 LINE",
"62 710 LINE",
"1 710 LINE",
"281 264 LINE",
"281 0 LINE",
"335 0 LINE",
"335 264 LINE",
"615 710 LINE"
);
}
);
};
layerId = "12E3E5E3-6B17-4D77-9A28-32D63F2CCD05";
paths = (
{
closed = 1;
nodes = (
"532 690 LINE",
"280 298 LINE",
"279 298 LINE",
"28 690 LINE",
"5 690 LINE",
"270 277 LINE",
"270 0 LINE",
"289 0 LINE",
"289 277 LINE",
"554 690 LINE"
);
}
);
userData = {
RMXScaler = {
height = 97.3;
width = 97.3;
};
};
width = 559;
}
);
unicode = 0059;
userData = {
RMXScaler = {
source = Y;
};
};
},
{
color = 9;
glyphname = Z;
lastChange = "2018-05-18 13:48:15 +0000";
layers = (
{
anchors = (
{
name = top;
position = "{331, 690}";
}
);
background = {
paths = (
{
closed = 1;
nodes = (
"302 180 LINE",
"630 543 LINE",
"630 710 LINE",
"39 710 LINE",
"39 537 LINE",
"356 537 LINE",
"356 530 LINE",
"28 168 LINE",
"28 0 LINE",
"630 0 LINE",
"630 173 LINE",
"302 173 LINE"
);
}
);
};
layerId = "84435905-EDCB-4949-A8A3-0E53308A2F50";
paths = (
{
closed = 1;
nodes = (
"39 690 LINE",
"39 517 LINE",
"333 517 LINE",
"333 516 LINE",
"28 168 LINE",
"28 0 LINE",
"602 0 LINE",
"602 173 LINE",
"297 173 LINE",
"297 174 LINE",
"602 523 LINE",
"602 690 LINE"
);
}
);
width = 630;
},
{
anchors = (
{
name = top;
position = "{297, 690}";
}
);
background = {
anchors = (
{
name = top;
position = "{297, 710}";
}
);
paths = (
{
closed = 1;
nodes = (
"160 95 LINE",
"553 625 LINE",
"553 710 LINE",
"46 710 LINE",
"46 620 LINE",
"428 620 LINE",
"428 615 LINE",
"35 85 LINE",
"35 0 LINE",
"553 0 LINE",
"553 90 LINE",
"160 90 LINE"
);
}
);
};
layerId = "BBFAEC79-FC1B-4455-8BF7-285C9CA7D1F7";
paths = (
{
closed = 1;
nodes = (
"46 690 LINE",
"46 600 LINE",
"400 600 LINE",
"400 599 LINE",
"35 85 LINE",
"35 0 LINE",
"523 0 LINE",
"523 90 LINE",
"158 90 LINE",
"158 91 LINE",
"523 605 LINE",
"523 690 LINE"
);
}
);
width = 558;
},
{
anchors = (
{
name = top;
position = "{296, 690}";
}
);
background = {
paths = (
{
closed = 1;
nodes = (
"124 54 LINE",
"536 665 LINE",
"536 710 LINE",
"66 710 LINE",
"66 660 LINE",
"467 660 LINE",
"467 656 LINE",
"55 45 LINE",
"55 0 LINE",
"536 0 LINE",
"536 50 LINE",
"124 50 LINE"
);
}
);
};
layerId = "12E3E5E3-6B17-4D77-9A28-32D63F2CCD05";
paths = (
{
closed = 1;
nodes = (
"45 690 LINE",
"45 671 LINE",
"473 671 LINE",
"473 670 LINE",
"30 19 LINE",
"30 0 LINE",
"495 0 LINE",
"495 19 LINE",
"56 19 LINE",
"56 20 LINE",
"500 671 LINE",
"500 690 LINE"
);
}
);
userData = {
RMXScaler = {
height = 97.3;
width = 97.3;
};
};
width = 530;
}
);
unicode = 005A;
userData = {
RMXScaler = {
source = Z;
};
};
},
{
color = 9;
glyphname = a;
lastChange = "2018-05-23 15:46:46 +0000";
layers = (
{
anchors = (
{
name = bottom;
position = "{300, 0}";
},
{
name = ogonek;
position = "{536, 0}";
},
{
name = top;
position = "{317, 535}";
}
);
background = {
paths = (
{
closed = 1;
nodes = (
"146 553 OFFCURVE",
"77 495 OFFCURVE",
"43 352 CURVE",
"244 352 LINE",
"260 394 OFFCURVE",
"271 407 OFFCURVE",
"306 407 CURVE SMOOTH",
"343 407 OFFCURVE",
"355 385 OFFCURVE",
"355 356 CURVE SMOOTH",
"355 339 OFFCURVE",
"350 330 OFFCURVE",
"325 326 CURVE SMOOTH",
"205 309 LINE SMOOTH",
"74 290 OFFCURVE",
"20 235 OFFCURVE",
"20 145 CURVE SMOOTH",
"20 42 OFFCURVE",
"89 -14 OFFCURVE",
"199 -14 CURVE SMOOTH",
"289 -14 OFFCURVE",
"335 20 OFFCURVE",
"362 73 CURVE",
"363 73 LINE",
"380 0 LINE",
"560 0 LINE",
"560 344 LINE SMOOTH",
"560 487 OFFCURVE",
"478 553 OFFCURVE",
"313 553 CURVE SMOOTH"
);
},
{
closed = 1;
nodes = (
"251 121 OFFCURVE",
"232 134 OFFCURVE",
"232 161 CURVE SMOOTH",
"232 187 OFFCURVE",
"248 199 OFFCURVE",
"281 205 CURVE SMOOTH",
"323 213 LINE SMOOTH",
"352 219 OFFCURVE",
"368 228 OFFCURVE",
"368 248 CURVE",
"355 248 LINE",
"355 200 LINE SMOOTH",
"355 150 OFFCURVE",
"330 121 OFFCURVE",
"281 121 CURVE SMOOTH"
);
}
);
};
layerId = "84435905-EDCB-4949-A8A3-0E53308A2F50";
paths = (
{
closed = 1;
nodes = (
"146 553 OFFCURVE",
"77 495 OFFCURVE",
"43 352 CURVE",
"244 352 LINE",
"260 394 OFFCURVE",
"272 407 OFFCURVE",
"307 407 CURVE SMOOTH",
"340 407 OFFCURVE",
"355 389 OFFCURVE",
"355 364 CURVE SMOOTH",
"355 356 LINE",
"355 339 OFFCURVE",
"350 330 OFFCURVE",
"325 326 CURVE SMOOTH",
"205 309 LINE SMOOTH",
"74 290 OFFCURVE",
"20 235 OFFCURVE",
"20 145 CURVE SMOOTH",
"20 42 OFFCURVE",
"89 -14 OFFCURVE",
"199 -14 CURVE SMOOTH",
"289 -14 OFFCURVE",
"335 20 OFFCURVE",
"362 73 CURVE",
"363 73 LINE",
"380 0 LINE",
"560 0 LINE",
"560 344 LINE SMOOTH",
"560 487 OFFCURVE",
"478 553 OFFCURVE",
"313 553 CURVE SMOOTH"
);
},
{
closed = 1;
nodes = (
"251 121 OFFCURVE",
"232 134 OFFCURVE",
"232 161 CURVE SMOOTH",
"232 187 OFFCURVE",
"248 199 OFFCURVE",
"281 205 CURVE SMOOTH",
"323 213 LINE SMOOTH",
"352 219 OFFCURVE",
"368 228 OFFCURVE",
"368 248 CURVE",
"355 248 LINE",
"355 200 LINE SMOOTH",
"355 150 OFFCURVE",
"330 121 OFFCURVE",
"281 121 CURVE SMOOTH"
);
}
);
userData = {
RMXScaler = {
height = 100.1;
};
};
width = 595;
},
{
anchors = (
{
name = bottom;
position = "{264, 0}";
},
{
name = ogonek;
position = "{470, 0}";
},
{
name = top;
position = "{285, 528}";
}
);
background = {
paths = (
{
closed = 1;
nodes = (
"161 544 OFFCURVE",
"96 490 OFFCURVE",
"65 366 CURVE",
"163 366 LINE",
"188 443 OFFCURVE",
"217 463 OFFCURVE",
"282 463 CURVE SMOOTH",
"356 463 OFFCURVE",
"386 431 OFFCURVE",
"386 363 CURVE SMOOTH",
"386 334 OFFCURVE",
"378 323 OFFCURVE",
"349 317 CURVE SMOOTH",
"222 292 LINE SMOOTH",
"100 268 OFFCURVE",
"45 223 OFFCURVE",
"45 129 CURVE SMOOTH",
"45 40 OFFCURVE",
"106 -14 OFFCURVE",
"217 -14 CURVE SMOOTH",
"309 -14 OFFCURVE",
"363 28 OFFCURVE",
"387 76 CURVE",
"388 76 LINE",
"398 0 LINE",
"483 0 LINE",
"483 353 LINE SMOOTH",
"483 480 OFFCURVE",
"413 544 OFFCURVE",
"282 544 CURVE SMOOTH"
);
},
{
closed = 1;
nodes = (
"181 65 OFFCURVE",
"147 87 OFFCURVE",
"147 135 CURVE SMOOTH",
"147 181 OFFCURVE",
"173 205 OFFCURVE",
"232 218 CURVE SMOOTH",
"349 243 LINE SMOOTH",
"379 249 OFFCURVE",
"387 258 OFFCURVE",
"395 281 CURVE",
"386 281 LINE",
"386 224 LINE SMOOTH",
"386 126 OFFCURVE",
"323 65 OFFCURVE",
"237 65 CURVE SMOOTH"
);
}
);
};
layerId = "BBFAEC79-FC1B-4455-8BF7-285C9CA7D1F7";
paths = (
{
closed = 1;
nodes = (
"161 544 OFFCURVE",
"96 490 OFFCURVE",
"65 366 CURVE",
"163 366 LINE",
"188 443 OFFCURVE",
"220 463 OFFCURVE",
"287 463 CURVE SMOOTH",
"357 463 OFFCURVE",
"386 425 OFFCURVE",
"386 374 CURVE SMOOTH",
"386 360 LINE",
"386 335 OFFCURVE",
"378 323 OFFCURVE",
"349 317 CURVE SMOOTH",
"222 292 LINE SMOOTH",
"100 268 OFFCURVE",
"45 223 OFFCURVE",
"45 129 CURVE SMOOTH",
"45 40 OFFCURVE",
"106 -14 OFFCURVE",
"217 -14 CURVE SMOOTH",
"309 -14 OFFCURVE",
"363 28 OFFCURVE",
"387 76 CURVE",
"388 76 LINE",
"398 0 LINE",
"483 0 LINE",
"483 353 LINE SMOOTH",
"483 480 OFFCURVE",
"413 544 OFFCURVE",
"282 544 CURVE SMOOTH"
);
},
{
closed = 1;
nodes = (
"181 65 OFFCURVE",
"147 87 OFFCURVE",
"147 135 CURVE SMOOTH",
"147 184 OFFCURVE",
"173 208 OFFCURVE",
"232 221 CURVE SMOOTH",
"349 246 LINE SMOOTH",
"379 252 OFFCURVE",
"387 261 OFFCURVE",
"395 284 CURVE",
"386 284 LINE",
"386 224 LINE SMOOTH",
"386 126 OFFCURVE",
"323 65 OFFCURVE",
"237 65 CURVE SMOOTH"
);
}
);
width = 545;
},
{
anchors = (
{
name = bottom;
position = "{269, 0}";
},
{
name = ogonek;
position = "{446, 0}";
},
{
name = top;
position = "{291, 515}";
}
);
background = {
paths = (
{
closed = 1;
nodes = (
"182 530 OFFCURVE",
"123 477 OFFCURVE",
"90 365 CURVE",
"110 365 LINE",
"139 465 OFFCURVE",
"191 512 OFFCURVE",
"284 512 CURVE SMOOTH",
"382 512 OFFCURVE",
"433 461 OFFCURVE",
"433 351 CURVE SMOOTH",
"433 327 OFFCURVE",
"424 312 OFFCURVE",
"388 303 CURVE SMOOTH",
"202 257 LINE SMOOTH",
"111 235 OFFCURVE",
"70 190 OFFCURVE",
"70 118 CURVE SMOOTH",
"70 31 OFFCURVE",
"136 -15 OFFCURVE",
"233 -15 CURVE SMOOTH",
"343 -15 OFFCURVE",
"410 58 OFFCURVE",
"432 130 CURVE",
"433 130 LINE",
"437 0 LINE",
"453 0 LINE",
"453 351 LINE SMOOTH",
"453 473 OFFCURVE",
"390 530 OFFCURVE",
"284 530 CURVE SMOOTH"
);
},
{
closed = 1;
nodes = (
"146 3 OFFCURVE",
"90 42 OFFCURVE",
"90 117 CURVE SMOOTH",
"90 182 OFFCURVE",
"120 219 OFFCURVE",
"207 240 CURVE SMOOTH",
"389 285 LINE SMOOTH",
"421 293 OFFCURVE",
"436 303 OFFCURVE",
"438 326 CURVE",
"434 326 LINE",
"434 221 LINE SMOOTH",
"434 81 OFFCURVE",
"336 3 OFFCURVE",
"233 3 CURVE SMOOTH"
);
}
);
};
layerId = "12E3E5E3-6B17-4D77-9A28-32D63F2CCD05";
paths = (
{
closed = 1;
nodes = (
"182 530 OFFCURVE",
"123 477 OFFCURVE",
"90 365 CURVE",
"110 365 LINE",
"139 465 OFFCURVE",
"191 512 OFFCURVE",
"284 512 CURVE SMOOTH",
"382 512 OFFCURVE",
"433 461 OFFCURVE",
"433 351 CURVE SMOOTH",
"433 345 LINE",
"433 326 OFFCURVE",
"419 311 OFFCURVE",
"388 303 CURVE SMOOTH",
"202 257 LINE SMOOTH",
"111 235 OFFCURVE",
"70 190 OFFCURVE",
"70 118 CURVE SMOOTH",
"70 31 OFFCURVE",
"136 -15 OFFCURVE",
"233 -15 CURVE SMOOTH",
"343 -15 OFFCURVE",
"410 58 OFFCURVE",
"432 130 CURVE",
"433 130 LINE",
"437 0 LINE",
"453 0 LINE",
"453 351 LINE SMOOTH",
"453 473 OFFCURVE",
"390 530 OFFCURVE",
"284 530 CURVE SMOOTH"
);
},
{
closed = 1;
nodes = (
"146 3 OFFCURVE",
"90 42 OFFCURVE",
"90 117 CURVE SMOOTH",
"90 182 OFFCURVE",
"120 219 OFFCURVE",
"207 240 CURVE SMOOTH",
"389 285 LINE SMOOTH",
"421 293 OFFCURVE",
"436 303 OFFCURVE",
"438 326 CURVE",
"434 326 LINE",
"434 221 LINE SMOOTH",
"434 81 OFFCURVE",
"336 3 OFFCURVE",
"233 3 CURVE SMOOTH"
);
}
);
width = 533;
}
);
rightMetricsKey = n;
unicode = 0061;
userData = {
RMXScaler = {
source = a;
};
};
},
{
glyphname = b;
lastChange = "2018-05-25 22:28:22 +0000";
layers = (
{
background = {
paths = (
{
closed = 1;
nodes = (
"60 0 LINE",
"246 0 LINE",
"264 97 LINE",
"271 97 LINE",
"292 38 OFFCURVE",
"341 -15 OFFCURVE",
"439 -15 CURVE SMOOTH",
"572 -15 OFFCURVE",
"652 94 OFFCURVE",
"652 268 CURVE SMOOTH",
"652 443 OFFCURVE",
"572 550 OFFCURVE",
"439 550 CURVE SMOOTH",
"346 550 OFFCURVE",
"298 508 OFFCURVE",
"277 451 CURVE",
"270 451 LINE",
"270 750 LINE",
"60 750 LINE"
);
},
{
closed = 1;
nodes = (
"417 390 OFFCURVE",
"439 350 OFFCURVE",
"439 268 CURVE SMOOTH",
"439 185 OFFCURVE",
"417 145 OFFCURVE",
"353 145 CURVE SMOOTH",
"290 145 OFFCURVE",
"268 185 OFFCURVE",
"268 268 CURVE SMOOTH",
"268 350 OFFCURVE",
"290 390 OFFCURVE",
"353 390 CURVE SMOOTH"
);
}
);
};
components = (
{
name = p;
transform = "{1, 0, 0, -1, 0, 535}";
}
);
layerId = "84435905-EDCB-4949-A8A3-0E53308A2F50";
userData = {
RMXScaler = {
height = 100.1;
};
};
width = 627;
},
{
background = {
paths = (
{
closed = 1;
nodes = (
"91 0 LINE",
"176 0 LINE",
"189 91 LINE",
"194 91 LINE",
"230 21 OFFCURVE",
"283 -15 OFFCURVE",
"366 -15 CURVE SMOOTH",
"507 -15 OFFCURVE",
"590 88 OFFCURVE",
"590 264 CURVE SMOOTH",
"590 440 OFFCURVE",
"507 543 OFFCURVE",
"361 543 CURVE SMOOTH",
"280 543 OFFCURVE",
"225 507 OFFCURVE",
"196 444 CURVE",
"191 444 LINE",
"191 750 LINE",
"91 750 LINE"
);
},
{
closed = 1;
nodes = (
"438 458 OFFCURVE",
"488 394 OFFCURVE",
"488 264 CURVE SMOOTH",
"488 134 OFFCURVE",
"438 70 OFFCURVE",
"338 70 CURVE SMOOTH",
"238 70 OFFCURVE",
"189 144 OFFCURVE",
"189 264 CURVE SMOOTH",
"189 383 OFFCURVE",
"238 458 OFFCURVE",
"338 458 CURVE SMOOTH"
);
}
);
};
layerId = "BBFAEC79-FC1B-4455-8BF7-285C9CA7D1F7";
paths = (
{
closed = 1;
nodes = (
"72 0 LINE",
"157 0 LINE",
"170 76 LINE",
"171 76 LINE",
"199 29 OFFCURVE",
"246 -15 OFFCURVE",
"339 -15 CURVE SMOOTH",
"475 -15 OFFCURVE",
"559 88 OFFCURVE",
"559 264 CURVE SMOOTH",
"559 440 OFFCURVE",
"468 543 OFFCURVE",
"331 543 CURVE SMOOTH",
"253 543 OFFCURVE",
"202 512 OFFCURVE",
"173 459 CURVE",
"172 459 LINE",
"172 740 LINE",
"72 740 LINE"
);
},
{
closed = 1;
nodes = (
"405 458 OFFCURVE",
"457 394 OFFCURVE",
"457 264 CURVE SMOOTH",
"457 134 OFFCURVE",
"405 70 OFFCURVE",
"313 70 CURVE SMOOTH",
"221 70 OFFCURVE",
"170 149 OFFCURVE",
"170 264 CURVE SMOOTH",
"170 383 OFFCURVE",
"221 458 OFFCURVE",
"313 458 CURVE SMOOTH"
);
}
);
width = 599;
},
{
background = {
paths = (
{
closed = 1;
nodes = (
"102 0 LINE",
"145 0 LINE",
"156 95 LINE",
"160 95 LINE",
"193 32 OFFCURVE",
"253 -15 OFFCURVE",
"339 -15 CURVE SMOOTH",
"487 -15 OFFCURVE",
"569 87 OFFCURVE",
"569 261 CURVE SMOOTH",
"569 436 OFFCURVE",
"487 538 OFFCURVE",
"339 538 CURVE SMOOTH",
"253 538 OFFCURVE",
"192 496 OFFCURVE",
"161 434 CURVE",
"157 434 LINE",
"157 750 LINE",
"102 750 LINE"
);
},
{
closed = 1;
nodes = (
"454 486 OFFCURVE",
"512 413 OFFCURVE",
"512 261 CURVE SMOOTH",
"512 110 OFFCURVE",
"454 37 OFFCURVE",
"337 37 CURVE SMOOTH",
"213 37 OFFCURVE",
"153 139 OFFCURVE",
"153 261 CURVE SMOOTH",
"153 384 OFFCURVE",
"213 486 OFFCURVE",
"337 486 CURVE SMOOTH"
);
}
);
};
components = (
{
name = p;
transform = "{1, 0, 0, -1, 0, 515}";
}
);
layerId = "12E3E5E3-6B17-4D77-9A28-32D63F2CCD05";
width = 569;
}
);
leftMetricsKey = n;
rightMetricsKey = o;
unicode = 0062;
userData = {
RMXScaler = {
source = b;
};
};
},
{
color = 9;
glyphname = c;
lastChange = "2018-05-23 15:25:54 +0000";
layers = (
{
anchors = (
{
name = bottom;
position = "{301, 0}";
},
{
name = top;
position = "{301, 535}";
}
);
background = {
paths = (
{
closed = 1;
nodes = (
"492 -15 OFFCURVE",
"569 62 OFFCURVE",
"583 207 CURVE",
"389 227 LINE",
"382 176 OFFCURVE",
"365 145 OFFCURVE",
"308 145 CURVE SMOOTH",
"246 145 OFFCURVE",
"225 190 OFFCURVE",
"225 264 CURVE SMOOTH",
"225 347 OFFCURVE",
"247 390 OFFCURVE",
"309 390 CURVE SMOOTH",
"365 390 OFFCURVE",
"382 360 OFFCURVE",
"389 307 CURVE",
"583 327 LINE",
"568 461 OFFCURVE",
"498 550 OFFCURVE",
"301 550 CURVE SMOOTH",
"119 550 OFFCURVE",
"12 448 OFFCURVE",
"12 264 CURVE SMOOTH",
"12 88 OFFCURVE",
"119 -15 OFFCURVE",
"301 -15 CURVE SMOOTH"
);
}
);
};
layerId = "84435905-EDCB-4949-A8A3-0E53308A2F50";
paths = (
{
closed = 1;
nodes = (
"479 -15 OFFCURVE",
"551 67 OFFCURVE",
"575 227 CURVE",
"378 227 LINE",
"366 176 OFFCURVE",
"355 145 OFFCURVE",
"309 145 CURVE SMOOTH",
"259 145 OFFCURVE",
"241 190 OFFCURVE",
"241 264 CURVE SMOOTH",
"241 347 OFFCURVE",
"259 390 OFFCURVE",
"309 390 CURVE SMOOTH",
"354 390 OFFCURVE",
"366 363 OFFCURVE",
"378 310 CURVE",
"575 310 LINE",
"557 464 OFFCURVE",
"485 550 OFFCURVE",
"301 550 CURVE SMOOTH",
"135 550 OFFCURVE",
"28 448 OFFCURVE",
"28 264 CURVE SMOOTH",
"28 88 OFFCURVE",
"135 -15 OFFCURVE",
"301 -15 CURVE SMOOTH"
);
}
);
userData = {
RMXScaler = {
height = 100.1;
};
};
width = 597;
},
{
anchors = (
{
name = bottom;
position = "{282, 0}";
},
{
name = top;
position = "{282, 528}";
}
);
background = {
paths = (
{
closed = 1;
nodes = (
"428 -15 OFFCURVE",
"498 49 OFFCURVE",
"513 167 CURVE",
"413 175 LINE",
"402 105 OFFCURVE",
"365 70 OFFCURVE",
"283 70 CURVE SMOOTH",
"184 70 OFFCURVE",
"137 139 OFFCURVE",
"137 264 CURVE SMOOTH",
"137 390 OFFCURVE",
"183 458 OFFCURVE",
"282 458 CURVE SMOOTH",
"362 458 OFFCURVE",
"402 419 OFFCURVE",
"412 350 CURVE",
"513 358 LINE",
"499 476 OFFCURVE",
"421 543 OFFCURVE",
"282 543 CURVE SMOOTH",
"124 543 OFFCURVE",
"34 439 OFFCURVE",
"34 264 CURVE SMOOTH",
"34 90 OFFCURVE",
"124 -15 OFFCURVE",
"282 -15 CURVE SMOOTH"
);
}
);
};
layerId = "BBFAEC79-FC1B-4455-8BF7-285C9CA7D1F7";
paths = (
{
closed = 1;
nodes = (
"420 -15 OFFCURVE",
"488 59 OFFCURVE",
"513 187 CURVE",
"413 187 LINE",
"389 102 OFFCURVE",
"358 70 OFFCURVE",
"282 70 CURVE SMOOTH",
"189 70 OFFCURVE",
"143 139 OFFCURVE",
"143 264 CURVE SMOOTH",
"143 390 OFFCURVE",
"189 458 OFFCURVE",
"282 458 CURVE SMOOTH",
"361 458 OFFCURVE",
"391 424 OFFCURVE",
"411 345 CURVE",
"512 345 LINE",
"488 483 OFFCURVE",
"417 543 OFFCURVE",
"282 543 CURVE SMOOTH",
"130 543 OFFCURVE",
"40 439 OFFCURVE",
"40 264 CURVE SMOOTH",
"40 85 OFFCURVE",
"130 -15 OFFCURVE",
"282 -15 CURVE SMOOTH"
);
}
);
width = 543;
},
{
anchors = (
{
name = bottom;
position = "{271, 0}";
},
{
name = top;
position = "{270, 515}";
}
);
background = {
paths = (
{
closed = 1;
nodes = (
"427 -15 OFFCURVE",
"500 51 OFFCURVE",
"513 157 CURVE",
"459 163 LINE",
"446 78 OFFCURVE",
"396 36 OFFCURVE",
"301 36 CURVE SMOOTH",
"183 36 OFFCURVE",
"120 112 OFFCURVE",
"120 262 CURVE SMOOTH",
"120 412 OFFCURVE",
"182 487 OFFCURVE",
"300 487 CURVE SMOOTH",
"395 487 OFFCURVE",
"447 447 OFFCURVE",
"459 360 CURVE",
"513 366 LINE",
"499 474 OFFCURVE",
"426 538 OFFCURVE",
"300 538 CURVE SMOOTH",
"155 538 OFFCURVE",
"64 436 OFFCURVE",
"64 262 CURVE SMOOTH",
"64 88 OFFCURVE",
"156 -15 OFFCURVE",
"301 -15 CURVE SMOOTH"
);
}
);
};
layerId = "12E3E5E3-6B17-4D77-9A28-32D63F2CCD05";
paths = (
{
closed = 1;
nodes = (
"377 -15 OFFCURVE",
"436 38 OFFCURVE",
"471 159 CURVE",
"451 159 LINE",
"420 54 OFFCURVE",
"370 4 OFFCURVE",
"270 4 CURVE SMOOTH",
"143 4 OFFCURVE",
"70 95 OFFCURVE",
"70 258 CURVE SMOOTH",
"70 420 OFFCURVE",
"144 511 OFFCURVE",
"269 511 CURVE SMOOTH",
"366 511 OFFCURVE",
"422 469 OFFCURVE",
"449 361 CURVE",
"469 361 LINE",
"438 481 OFFCURVE",
"378 530 OFFCURVE",
"269 530 CURVE SMOOTH",
"132 530 OFFCURVE",
"50 431 OFFCURVE",
"50 258 CURVE SMOOTH",
"50 84 OFFCURVE",
"131 -15 OFFCURVE",
"270 -15 CURVE SMOOTH"
);
}
);
width = 521;
}
);
leftMetricsKey = o;
unicode = 0063;
userData = {
RMXScaler = {
source = c;
};
};
},
{
glyphname = d;
lastChange = "2018-05-26 10:12:01 +0000";
layers = (
{
anchors = (
{
name = topright;
position = "{719, 535}";
}
);
background = {
paths = (
{
closed = 1;
nodes = (
"415 750 LINE",
"415 451 LINE",
"408 451 LINE",
"387 508 OFFCURVE",
"339 550 OFFCURVE",
"246 550 CURVE SMOOTH",
"113 550 OFFCURVE",
"33 443 OFFCURVE",
"33 268 CURVE SMOOTH",
"33 94 OFFCURVE",
"113 -15 OFFCURVE",
"246 -15 CURVE SMOOTH",
"344 -15 OFFCURVE",
"393 38 OFFCURVE",
"414 97 CURVE",
"421 97 LINE",
"439 0 LINE",
"625 0 LINE",
"625 750 LINE"
);
},
{
closed = 1;
nodes = (
"395 390 OFFCURVE",
"417 350 OFFCURVE",
"417 268 CURVE SMOOTH",
"417 185 OFFCURVE",
"395 145 OFFCURVE",
"332 145 CURVE SMOOTH",
"268 145 OFFCURVE",
"246 185 OFFCURVE",
"246 268 CURVE SMOOTH",
"246 350 OFFCURVE",
"268 390 OFFCURVE",
"332 390 CURVE SMOOTH"
);
}
);
};
components = (
{
name = p;
transform = "{-1, 0, 0, -1, 627, 535}";
}
);
layerId = "84435905-EDCB-4949-A8A3-0E53308A2F50";
userData = {
RMXScaler = {
height = 100.1;
};
};
width = 627;
},
{
anchors = (
{
name = topright;
position = "{642, 528}";
}
);
background = {
paths = (
{
closed = 1;
nodes = (
"456 750 LINE",
"456 444 LINE",
"451 444 LINE",
"422 507 OFFCURVE",
"367 543 OFFCURVE",
"286 543 CURVE SMOOTH",
"140 543 OFFCURVE",
"57 440 OFFCURVE",
"57 264 CURVE SMOOTH",
"57 88 OFFCURVE",
"140 -15 OFFCURVE",
"281 -15 CURVE SMOOTH",
"364 -15 OFFCURVE",
"417 21 OFFCURVE",
"453 91 CURVE",
"458 91 LINE",
"471 0 LINE",
"556 0 LINE",
"556 750 LINE"
);
},
{
closed = 1;
nodes = (
"409 458 OFFCURVE",
"458 383 OFFCURVE",
"458 264 CURVE SMOOTH",
"458 144 OFFCURVE",
"409 70 OFFCURVE",
"309 70 CURVE SMOOTH",
"209 70 OFFCURVE",
"159 134 OFFCURVE",
"159 264 CURVE SMOOTH",
"159 394 OFFCURVE",
"209 458 OFFCURVE",
"309 458 CURVE SMOOTH"
);
}
);
};
layerId = "BBFAEC79-FC1B-4455-8BF7-285C9CA7D1F7";
paths = (
{
closed = 1;
nodes = (
"427 740 LINE",
"427 459 LINE",
"426 459 LINE",
"397 512 OFFCURVE",
"346 543 OFFCURVE",
"268 543 CURVE SMOOTH",
"131 543 OFFCURVE",
"40 440 OFFCURVE",
"40 264 CURVE SMOOTH",
"40 88 OFFCURVE",
"124 -15 OFFCURVE",
"260 -15 CURVE SMOOTH",
"353 -15 OFFCURVE",
"400 29 OFFCURVE",
"428 76 CURVE",
"429 76 LINE",
"442 0 LINE",
"527 0 LINE",
"527 740 LINE"
);
},
{
closed = 1;
nodes = (
"378 458 OFFCURVE",
"429 383 OFFCURVE",
"429 264 CURVE SMOOTH",
"429 149 OFFCURVE",
"378 70 OFFCURVE",
"286 70 CURVE SMOOTH",
"194 70 OFFCURVE",
"142 134 OFFCURVE",
"142 264 CURVE SMOOTH",
"142 394 OFFCURVE",
"194 458 OFFCURVE",
"286 458 CURVE SMOOTH"
);
}
);
width = 599;
},
{
anchors = (
{
name = topright;
position = "{584, 515}";
}
);
background = {
paths = (
{
closed = 1;
nodes = (
"477 750 LINE",
"477 434 LINE",
"473 434 LINE",
"442 496 OFFCURVE",
"381 538 OFFCURVE",
"295 538 CURVE SMOOTH",
"147 538 OFFCURVE",
"65 436 OFFCURVE",
"65 261 CURVE SMOOTH",
"65 87 OFFCURVE",
"147 -15 OFFCURVE",
"295 -15 CURVE SMOOTH",
"381 -15 OFFCURVE",
"441 32 OFFCURVE",
"474 95 CURVE",
"478 95 LINE",
"489 0 LINE",
"532 0 LINE",
"532 750 LINE"
);
},
{
closed = 1;
nodes = (
"421 486 OFFCURVE",
"481 384 OFFCURVE",
"481 261 CURVE SMOOTH",
"481 139 OFFCURVE",
"421 37 OFFCURVE",
"297 37 CURVE SMOOTH",
"180 37 OFFCURVE",
"122 110 OFFCURVE",
"122 261 CURVE SMOOTH",
"122 413 OFFCURVE",
"180 486 OFFCURVE",
"297 486 CURVE SMOOTH"
);
}
);
};
components = (
{
name = p;
transform = "{-1, 0, 0, -1, 569, 515}";
}
);
layerId = "12E3E5E3-6B17-4D77-9A28-32D63F2CCD05";
width = 569;
}
);
leftMetricsKey = o;
rightMetricsKey = "=|n";
unicode = 0064;
userData = {
RMXScaler = {
source = d;
};
};
},
{
color = 9;
glyphname = e;
lastChange = "2018-05-24 14:24:56 +0000";
layers = (
{
anchors = (
{
name = bottom;
position = "{307, 0}";
},
{
name = ogonek;
position = "{391, 0}";
},
{
name = top;
position = "{308, 535}";
}
);
background = {
paths = (
{
closed = 1;
nodes = (
"487 -15 OFFCURVE",
"562 46 OFFCURVE",
"591 158 CURVE",
"399 175 LINE",
"388 141 OFFCURVE",
"364 125 OFFCURVE",
"315 125 CURVE SMOOTH",
"248 125 OFFCURVE",
"219 162 OFFCURVE",
"219 268 CURVE SMOOTH",
"219 371 OFFCURVE",
"242 411 OFFCURVE",
"310 411 CURVE SMOOTH",
"375 411 OFFCURVE",
"398 373 OFFCURVE",
"398 301 CURVE",
"417 331 LINE",
"195 331 LINE",
"195 210 LINE",
"595 211 LINE",
"595 287 LINE SMOOTH",
"595 453 OFFCURVE",
"492 553 OFFCURVE",
"307 553 CURVE SMOOTH",
"120 553 OFFCURVE",
"12 447 OFFCURVE",
"12 267 CURVE SMOOTH",
"12 88 OFFCURVE",
"115 -15 OFFCURVE",
"308 -15 CURVE SMOOTH"
);
}
);
};
layerId = "84435905-EDCB-4949-A8A3-0E53308A2F50";
paths = (
{
closed = 1;
nodes = (
"470 -15 OFFCURVE",
"536 39 OFFCURVE",
"575 171 CURVE",
"383 171 LINE",
"367 142 OFFCURVE",
"359 125 OFFCURVE",
"313 125 CURVE SMOOTH",
"257 125 OFFCURVE",
"232 162 OFFCURVE",
"232 268 CURVE SMOOTH",
"232 376 OFFCURVE",
"259 411 OFFCURVE",
"309 411 CURVE SMOOTH",
"358 411 OFFCURVE",
"382 378 OFFCURVE",
"382 301 CURVE",
"401 331 LINE",
"208 331 LINE",
"208 210 LINE",
"579 211 LINE",
"579 287 LINE SMOOTH",
"579 453 OFFCURVE",
"476 553 OFFCURVE",
"307 553 CURVE SMOOTH",
"136 553 OFFCURVE",
"28 447 OFFCURVE",
"28 267 CURVE SMOOTH",
"28 88 OFFCURVE",
"130 -15 OFFCURVE",
"307 -15 CURVE SMOOTH"
);
}
);
userData = {
RMXScaler = {
height = 100.1;
};
};
width = 609;
},
{
anchors = (
{
name = bottom;
position = "{288, 0}";
},
{
name = ogonek;
position = "{374, 0}";
},
{
name = top;
position = "{286, 528}";
}
);
background = {
paths = (
{
closed = 1;
nodes = (
"409 -15 OFFCURVE",
"479 45 OFFCURVE",
"512 146 CURVE",
"414 146 LINE",
"383 95 OFFCURVE",
"357 70 OFFCURVE",
"288 70 CURVE SMOOTH",
"193 70 OFFCURVE",
"141 134 OFFCURVE",
"141 264 CURVE SMOOTH",
"141 399 OFFCURVE",
"191 462 OFFCURVE",
"282 462 CURVE SMOOTH",
"374 462 OFFCURVE",
"418 403 OFFCURVE",
"418 289 CURVE",
"432 308 LINE",
"113 308 LINE",
"113 233 LINE",
"516 233 LINE",
"516 289 LINE SMOOTH",
"516 451 OFFCURVE",
"427 544 OFFCURVE",
"282 544 CURVE SMOOTH",
"137 544 OFFCURVE",
"40 441 OFFCURVE",
"40 263 CURVE SMOOTH",
"40 89 OFFCURVE",
"126 -15 OFFCURVE",
"289 -15 CURVE SMOOTH"
);
}
);
};
layerId = "BBFAEC79-FC1B-4455-8BF7-285C9CA7D1F7";
paths = (
{
closed = 1;
nodes = (
"409 -15 OFFCURVE",
"479 45 OFFCURVE",
"512 146 CURVE",
"414 146 LINE",
"383 95 OFFCURVE",
"357 70 OFFCURVE",
"288 70 CURVE SMOOTH",
"193 70 OFFCURVE",
"141 134 OFFCURVE",
"141 264 CURVE SMOOTH",
"141 399 OFFCURVE",
"191 462 OFFCURVE",
"282 462 CURVE SMOOTH",
"374 462 OFFCURVE",
"418 403 OFFCURVE",
"418 289 CURVE",
"432 308 LINE",
"113 308 LINE",
"113 235 LINE",
"516 235 LINE",
"516 289 LINE SMOOTH",
"516 451 OFFCURVE",
"427 544 OFFCURVE",
"282 544 CURVE SMOOTH",
"137 544 OFFCURVE",
"40 441 OFFCURVE",
"40 263 CURVE SMOOTH",
"40 89 OFFCURVE",
"126 -15 OFFCURVE",
"289 -15 CURVE SMOOTH"
);
}
);
width = 561;
},
{
anchors = (
{
name = bottom;
position = "{271, 0}";
},
{
name = ogonek;
position = "{379, 0}";
},
{
name = top;
position = "{271, 515}";
}
);
background = {
paths = (
{
closed = 1;
nodes = (
"435 -15 OFFCURVE",
"494 49 OFFCURVE",
"516 128 CURVE",
"461 133 LINE",
"443 77 OFFCURVE",
"404 34 OFFCURVE",
"304 34 CURVE SMOOTH",
"189 34 OFFCURVE",
"120 107 OFFCURVE",
"120 257 CURVE SMOOTH",
"120 416 OFFCURVE",
"186 489 OFFCURVE",
"297 489 CURVE SMOOTH",
"408 489 OFFCURVE",
"472 421 OFFCURVE",
"472 276 CURVE",
"482 290 LINE",
"100 290 LINE",
"100 244 LINE",
"526 244 LINE",
"526 285 LINE SMOOTH",
"526 445 OFFCURVE",
"438 538 OFFCURVE",
"297 538 CURVE SMOOTH",
"158 538 OFFCURVE",
"65 440 OFFCURVE",
"65 258 CURVE SMOOTH",
"65 77 OFFCURVE",
"161 -15 OFFCURVE",
"304 -15 CURVE SMOOTH"
);
}
);
};
layerId = "12E3E5E3-6B17-4D77-9A28-32D63F2CCD05";
paths = (
{
closed = 1;
nodes = (
"361 -15 OFFCURVE",
"417 24 OFFCURVE",
"460 123 CURVE",
"438 123 LINE",
"401 41 OFFCURVE",
"353 4 OFFCURVE",
"263 4 CURVE SMOOTH",
"132 4 OFFCURVE",
"70 96 OFFCURVE",
"70 258 CURVE SMOOTH",
"70 420 OFFCURVE",
"140 511 OFFCURVE",
"269 511 CURVE SMOOTH",
"389 511 OFFCURVE",
"450 421 OFFCURVE",
"450 267 CURVE",
"457 273 LINE",
"65 273 LINE",
"65 255 LINE",
"470 255 LINE",
"470 267 LINE SMOOTH",
"470 432 OFFCURVE",
"400 530 OFFCURVE",
"269 530 CURVE SMOOTH",
"129 530 OFFCURVE",
"50 431 OFFCURVE",
"50 258 CURVE SMOOTH",
"50 85 OFFCURVE",
"121 -15 OFFCURVE",
"263 -15 CURVE SMOOTH"
);
}
);
width = 520;
}
);
leftMetricsKey = o;
unicode = 0065;
userData = {
RMXScaler = {
source = e;
};
};
},
{
color = 9;
glyphname = f;
lastChange = "2018-05-08 15:45:44 +0000";
layers = (
{
background = {
paths = (
{
closed = 1;
nodes = (
"426 380 LINE",
"426 535 LINE",
"10 535 LINE",
"10 380 LINE"
);
},
{
closed = 1;
nodes = (
"420 757 OFFCURVE",
"368 765 OFFCURVE",
"310 765 CURVE SMOOTH",
"156 765 OFFCURVE",
"93 706 OFFCURVE",
"93 572 CURVE SMOOTH",
"93 0 LINE",
"303 0 LINE",
"303 529 LINE SMOOTH",
"303 576 OFFCURVE",
"312 603 OFFCURVE",
"366 603 CURVE SMOOTH",
"391 603 OFFCURVE",
"414 600 OFFCURVE",
"425 598 CURVE",
"445 750 LINE"
);
}
);
};
layerId = "84435905-EDCB-4949-A8A3-0E53308A2F50";
paths = (
{
closed = 1;
nodes = (
"415 380 LINE",
"415 535 LINE",
"10 535 LINE",
"10 380 LINE"
);
},
{
closed = 1;
nodes = (
"395 750 OFFCURVE",
"358 755 OFFCURVE",
"310 755 CURVE SMOOTH",
"156 755 OFFCURVE",
"93 676 OFFCURVE",
"93 542 CURVE SMOOTH",
"93 0 LINE",
"303 0 LINE",
"303 519 LINE SMOOTH",
"303 572 OFFCURVE",
"317 593 OFFCURVE",
"371 593 CURVE SMOOTH",
"393 593 OFFCURVE",
"414 590 OFFCURVE",
"425 588 CURVE",
"425 741 LINE"
);
}
);
userData = {
RMXScaler = {
height = 100.1;
};
};
width = 415;
},
{
background = {
paths = (
{
closed = 1;
nodes = (
"348 443 LINE",
"348 528 LINE",
"14 528 LINE",
"14 443 LINE"
);
},
{
closed = 1;
nodes = (
"346 761 OFFCURVE",
"314 765 OFFCURVE",
"285 765 CURVE SMOOTH",
"177 765 OFFCURVE",
"110 713 OFFCURVE",
"110 580 CURVE SMOOTH",
"110 0 LINE",
"210 0 LINE",
"210 573 LINE SMOOTH",
"210 651 OFFCURVE",
"238 678 OFFCURVE",
"303 678 CURVE SMOOTH",
"323 678 OFFCURVE",
"342 676 OFFCURVE",
"355 673 CURVE",
"365 756 LINE"
);
}
);
};
layerId = "BBFAEC79-FC1B-4455-8BF7-285C9CA7D1F7";
paths = (
{
closed = 1;
nodes = (
"348 443 LINE",
"348 528 LINE",
"20 528 LINE",
"20 443 LINE"
);
},
{
closed = 1;
nodes = (
"339 751 OFFCURVE",
"312 755 OFFCURVE",
"283 755 CURVE SMOOTH",
"180 755 OFFCURVE",
"115 693 OFFCURVE",
"115 570 CURVE SMOOTH",
"115 0 LINE",
"215 0 LINE",
"215 563 LINE SMOOTH",
"215 635 OFFCURVE",
"243 668 OFFCURVE",
"303 668 CURVE SMOOTH",
"323 668 OFFCURVE",
"342 666 OFFCURVE",
"358 663 CURVE",
"358 746 LINE"
);
}
);
width = 348;
},
{
background = {
paths = (
{
closed = 1;
nodes = (
"380 474 LINE",
"380 523 LINE",
"72 523 LINE",
"72 474 LINE"
);
},
{
closed = 1;
nodes = (
"388 760 OFFCURVE",
"359 765 OFFCURVE",
"335 765 CURVE SMOOTH",
"230 765 OFFCURVE",
"177 708 OFFCURVE",
"177 578 CURVE SMOOTH",
"177 0 LINE",
"232 0 LINE",
"232 577 LINE SMOOTH",
"232 675 OFFCURVE",
"256 715 OFFCURVE",
"340 715 CURVE SMOOTH",
"357 715 OFFCURVE",
"379 712 OFFCURVE",
"394 708 CURVE",
"402 755 LINE"
);
}
);
};
layerId = "12E3E5E3-6B17-4D77-9A28-32D63F2CCD05";
paths = (
{
closed = 1;
nodes = (
"331 497 LINE",
"331 515 LINE",
"40 515 LINE",
"40 497 LINE"
);
},
{
closed = 1;
nodes = (
"324 751 OFFCURVE",
"304 755 OFFCURVE",
"276 755 CURVE SMOOTH",
"199 755 OFFCURVE",
"150 712 OFFCURVE",
"150 599 CURVE SMOOTH",
"150 0 LINE",
"170 0 LINE",
"170 599 LINE SMOOTH",
"170 702 OFFCURVE",
"209 736 OFFCURVE",
"276 736 CURVE SMOOTH",
"304 736 OFFCURVE",
"324 732 OFFCURVE",
"341 728 CURVE",
"341 746 LINE"
);
}
);
width = 331;
}
);
unicode = 0066;
userData = {
RMXScaler = {
source = f;
};
};
},
{
color = 9;
glyphname = g;
lastChange = "2018-05-23 15:32:17 +0000";
layers = (
{
anchors = (
{
name = top;
position = "{312, 535}";
}
);
background = {
paths = (
{
closed = 1;
nodes = (
"507 -210 OFFCURVE",
"587 -109 OFFCURVE",
"587 78 CURVE SMOOTH",
"587 535 LINE",
"401 535 LINE",
"383 438 LINE",
"376 438 LINE",
"355 497 OFFCURVE",
"306 550 OFFCURVE",
"208 550 CURVE SMOOTH",
"75 550 OFFCURVE",
"-5 440 OFFCURVE",
"-5 286 CURVE SMOOTH",
"-5 132 OFFCURVE",
"72 32 OFFCURVE",
"198 32 CURVE SMOOTH",
"288 32 OFFCURVE",
"343 72 OFFCURVE",
"371 118 CURVE",
"377 118 LINE",
"377 39 LINE SMOOTH",
"377 -28 OFFCURVE",
"356 -60 OFFCURVE",
"295 -60 CURVE SMOOTH",
"241 -60 OFFCURVE",
"227 -37 OFFCURVE",
"216 1 CURVE",
"5 -19 LINE",
"20 -141 OFFCURVE",
"111 -210 OFFCURVE",
"295 -210 CURVE SMOOTH"
);
},
{
closed = 1;
nodes = (
"237 167 OFFCURVE",
"210 205 OFFCURVE",
"210 284 CURVE SMOOTH",
"210 355 OFFCURVE",
"237 395 OFFCURVE",
"295 395 CURVE SMOOTH",
"353 395 OFFCURVE",
"379 355 OFFCURVE",
"379 284 CURVE SMOOTH",
"379 205 OFFCURVE",
"353 167 OFFCURVE",
"295 167 CURVE SMOOTH"
);
}
);
};
layerId = "84435905-EDCB-4949-A8A3-0E53308A2F50";
paths = (
{
closed = 1;
nodes = (
"377 -28 OFFCURVE",
"358 -50 OFFCURVE",
"317 -50 CURVE SMOOTH",
"280 -50 OFFCURVE",
"264 -38 OFFCURVE",
"248 0 CURVE",
"37 0 LINE",
"62 -137 OFFCURVE",
"143 -200 OFFCURVE",
"317 -200 CURVE SMOOTH",
"517 -200 OFFCURVE",
"587 -89 OFFCURVE",
"587 98 CURVE SMOOTH",
"587 535 LINE",
"401 535 LINE",
"383 447 LINE",
"382 447 LINE",
"361 501 OFFCURVE",
"322 550 OFFCURVE",
"229 550 CURVE SMOOTH",
"102 550 OFFCURVE",
"28 441 OFFCURVE",
"28 282 CURVE SMOOTH",
"28 122 OFFCURVE",
"112 35 OFFCURVE",
"229 35 CURVE SMOOTH",
"312 35 OFFCURVE",
"351 67 OFFCURVE",
"376 114 CURVE",
"377 114 LINE",
"377 29 LINE SMOOTH"
);
},
{
closed = 1;
nodes = (
"262 180 OFFCURVE",
"241 220 OFFCURVE",
"241 288 CURVE SMOOTH",
"241 356 OFFCURVE",
"262 395 OFFCURVE",
"310 395 CURVE SMOOTH",
"359 395 OFFCURVE",
"380 356 OFFCURVE",
"380 288 CURVE SMOOTH",
"380 220 OFFCURVE",
"359 180 OFFCURVE",
"310 180 CURVE SMOOTH"
);
}
);
userData = {
RMXScaler = {
height = 100.1;
};
};
width = 627;
},
{
anchors = (
{
name = top;
position = "{295, 528}";
}
);
background = {
paths = (
{
closed = 1;
nodes = (
"454 -210 OFFCURVE",
"527 -117 OFFCURVE",
"527 44 CURVE SMOOTH",
"527 528 LINE",
"442 528 LINE",
"429 437 LINE",
"424 437 LINE",
"400 491 OFFCURVE",
"356 543 OFFCURVE",
"257 543 CURVE SMOOTH",
"107 543 OFFCURVE",
"28 434 OFFCURVE",
"28 275 CURVE SMOOTH",
"28 116 OFFCURVE",
"103 9 OFFCURVE",
"257 9 CURVE SMOOTH",
"357 9 OFFCURVE",
"398 66 OFFCURVE",
"421 109 CURVE",
"427 109 LINE",
"427 43 LINE SMOOTH",
"427 -67 OFFCURVE",
"387 -126 OFFCURVE",
"285 -126 CURVE SMOOTH",
"195 -126 OFFCURVE",
"164 -89 OFFCURVE",
"152 -38 CURVE",
"50 -48 LINE",
"62 -148 OFFCURVE",
"132 -210 OFFCURVE",
"285 -210 CURVE SMOOTH"
);
},
{
closed = 1;
nodes = (
"180 92 OFFCURVE",
"130 156 OFFCURVE",
"130 275 CURVE SMOOTH",
"130 388 OFFCURVE",
"180 458 OFFCURVE",
"279 458 CURVE SMOOTH",
"380 458 OFFCURVE",
"429 381 OFFCURVE",
"429 275 CURVE SMOOTH",
"429 173 OFFCURVE",
"380 92 OFFCURVE",
"279 92 CURVE SMOOTH"
);
}
);
};
layerId = "BBFAEC79-FC1B-4455-8BF7-285C9CA7D1F7";
paths = (
{
closed = 1;
nodes = (
"427 -57 OFFCURVE",
"387 -116 OFFCURVE",
"285 -116 CURVE SMOOTH",
"200 -116 OFFCURVE",
"179 -83 OFFCURVE",
"152 -31 CURVE",
"50 -31 LINE",
"72 -141 OFFCURVE",
"142 -200 OFFCURVE",
"285 -200 CURVE SMOOTH",
"454 -200 OFFCURVE",
"527 -107 OFFCURVE",
"527 54 CURVE SMOOTH",
"527 528 LINE",
"442 528 LINE",
"429 452 LINE",
"428 452 LINE",
"402 497 OFFCURVE",
"360 543 OFFCURVE",
"267 543 CURVE SMOOTH",
"131 543 OFFCURVE",
"40 440 OFFCURVE",
"40 279 CURVE SMOOTH",
"40 118 OFFCURVE",
"129 17 OFFCURVE",
"266 17 CURVE SMOOTH",
"344 17 OFFCURVE",
"397 49 OFFCURVE",
"426 99 CURVE",
"427 99 LINE",
"427 53 LINE SMOOTH"
);
},
{
closed = 1;
nodes = (
"194 100 OFFCURVE",
"142 164 OFFCURVE",
"142 279 CURVE SMOOTH",
"142 394 OFFCURVE",
"194 458 OFFCURVE",
"286 458 CURVE SMOOTH",
"378 458 OFFCURVE",
"429 379 OFFCURVE",
"429 279 CURVE SMOOTH",
"429 175 OFFCURVE",
"378 100 OFFCURVE",
"286 100 CURVE SMOOTH"
);
}
);
width = 599;
},
{
anchors = (
{
name = top;
position = "{285, 515}";
}
);
background = {
paths = (
{
closed = 1;
nodes = (
"410 -214 OFFCURVE",
"482 -129 OFFCURVE",
"482 39 CURVE SMOOTH",
"482 523 LINE",
"439 523 LINE",
"428 428 LINE",
"424 428 LINE",
"397 479 OFFCURVE",
"343 538 OFFCURVE",
"245 538 CURVE SMOOTH",
"98 538 OFFCURVE",
"15 436 OFFCURVE",
"15 273 CURVE SMOOTH",
"15 101 OFFCURVE",
"90 -1 OFFCURVE",
"245 -1 CURVE SMOOTH",
"341 -1 OFFCURVE",
"397 57 OFFCURVE",
"423 115 CURVE",
"427 115 LINE",
"427 41 LINE SMOOTH",
"427 -104 OFFCURVE",
"377 -164 OFFCURVE",
"258 -164 CURVE SMOOTH",
"153 -164 OFFCURVE",
"106 -123 OFFCURVE",
"96 -55 CURVE",
"40 -61 LINE",
"53 -158 OFFCURVE",
"122 -214 OFFCURVE",
"258 -214 CURVE SMOOTH"
);
},
{
closed = 1;
nodes = (
"131 49 OFFCURVE",
"72 129 OFFCURVE",
"72 273 CURVE SMOOTH",
"72 410 OFFCURVE",
"131 486 OFFCURVE",
"244 486 CURVE SMOOTH",
"366 486 OFFCURVE",
"430 389 OFFCURVE",
"430 273 CURVE SMOOTH",
"430 163 OFFCURVE",
"363 49 OFFCURVE",
"244 49 CURVE SMOOTH"
);
}
);
};
layerId = "12E3E5E3-6B17-4D77-9A28-32D63F2CCD05";
paths = (
{
closed = 1;
nodes = (
"458 -96 OFFCURVE",
"417 -186 OFFCURVE",
"272 -186 CURVE SMOOTH",
"178 -186 OFFCURVE",
"133 -157 OFFCURVE",
"90 -65 CURVE",
"70 -65 LINE",
"114 -167 OFFCURVE",
"170 -205 OFFCURVE",
"271 -205 CURVE SMOOTH",
"427 -205 OFFCURVE",
"478 -107 OFFCURVE",
"478 45 CURVE SMOOTH",
"478 515 LINE",
"462 515 LINE",
"459 375 LINE",
"458 375 LINE",
"436 460 OFFCURVE",
"370 530 OFFCURVE",
"264 530 CURVE SMOOTH",
"127 530 OFFCURVE",
"50 428 OFFCURVE",
"50 267 CURVE SMOOTH",
"50 107 OFFCURVE",
"127 5 OFFCURVE",
"264 5 CURVE SMOOTH",
"378 5 OFFCURVE",
"440 78 OFFCURVE",
"457 154 CURVE",
"458 154 LINE",
"458 47 LINE SMOOTH"
);
},
{
closed = 1;
nodes = (
"139 24 OFFCURVE",
"70 117 OFFCURVE",
"70 267 CURVE SMOOTH",
"70 418 OFFCURVE",
"139 511 OFFCURVE",
"264 511 CURVE SMOOTH",
"379 511 OFFCURVE",
"458 423 OFFCURVE",
"458 267 CURVE SMOOTH",
"458 99 OFFCURVE",
"375 24 OFFCURVE",
"264 24 CURVE SMOOTH"
);
}
);
width = 568;
}
);
leftMetricsKey = o;
rightMetricsKey = "=|n";
unicode = 0067;
userData = {
RMXScaler = {
source = g;
};
};
},
{
color = 9;
glyphname = h;
lastChange = "2018-05-09 11:04:05 +0000";
layers = (
{
anchors = (
{
name = top;
position = "{145, 731}";
}
);
background = {
paths = (
{
closed = 1;
nodes = (
"250 0 LINE",
"250 279 LINE SMOOTH",
"250 333 OFFCURVE",
"283 370 OFFCURVE",
"336 370 CURVE SMOOTH",
"384 370 OFFCURVE",
"399 342 OFFCURVE",
"399 292 CURVE SMOOTH",
"399 0 LINE",
"609 0 LINE",
"609 347 LINE SMOOTH",
"609 469 OFFCURVE",
"564 550 OFFCURVE",
"435 550 CURVE SMOOTH",
"331 550 OFFCURVE",
"287 494 OFFCURVE",
"257 427 CURVE",
"250 427 LINE",
"250 750 LINE",
"40 750 LINE",
"40 0 LINE"
);
}
);
};
layerId = "84435905-EDCB-4949-A8A3-0E53308A2F50";
paths = (
{
closed = 1;
nodes = (
"250 0 LINE",
"250 279 LINE SMOOTH",
"250 335 OFFCURVE",
"266 370 OFFCURVE",
"311 370 CURVE SMOOTH",
"354 370 OFFCURVE",
"367 342 OFFCURVE",
"367 292 CURVE SMOOTH",
"367 0 LINE",
"577 0 LINE",
"577 347 LINE SMOOTH",
"577 469 OFFCURVE",
"532 550 OFFCURVE",
"410 550 CURVE SMOOTH",
"309 550 OFFCURVE",
"275 492 OFFCURVE",
"251 437 CURVE",
"250 437 LINE",
"250 740 LINE",
"40 740 LINE",
"40 0 LINE"
);
}
);
userData = {
RMXScaler = {
height = 100.1;
};
};
width = 612;
},
{
anchors = (
{
name = top;
position = "{121, 730}";
}
);
background = {
paths = (
{
closed = 1;
nodes = (
"172 0 LINE",
"172 291 LINE SMOOTH",
"172 388 OFFCURVE",
"235 453 OFFCURVE",
"321 453 CURVE SMOOTH",
"395 453 OFFCURVE",
"431 411 OFFCURVE",
"431 317 CURVE SMOOTH",
"431 0 LINE",
"531 0 LINE",
"531 356 LINE SMOOTH",
"531 480 OFFCURVE",
"467 543 OFFCURVE",
"355 543 CURVE SMOOTH",
"264 543 OFFCURVE",
"212 501 OFFCURVE",
"177 437 CURVE",
"172 437 LINE",
"172 750 LINE",
"72 750 LINE",
"72 0 LINE"
);
}
);
};
layerId = "BBFAEC79-FC1B-4455-8BF7-285C9CA7D1F7";
paths = (
{
closed = 1;
nodes = (
"172 0 LINE",
"172 280 LINE SMOOTH",
"172 388 OFFCURVE",
"227 453 OFFCURVE",
"310 453 CURVE SMOOTH",
"384 453 OFFCURVE",
"419 409 OFFCURVE",
"419 323 CURVE SMOOTH",
"419 0 LINE",
"519 0 LINE",
"519 346 LINE SMOOTH",
"519 466 OFFCURVE",
"459 543 OFFCURVE",
"337 543 CURVE SMOOTH",
"251 543 OFFCURVE",
"204 500 OFFCURVE",
"173 447 CURVE",
"172 447 LINE",
"172 740 LINE",
"72 740 LINE",
"72 0 LINE"
);
}
);
width = 581;
},
{
anchors = (
{
name = top;
position = "{100, 730}";
}
);
background = {
paths = (
{
closed = 1;
nodes = (
"157 0 LINE",
"157 284 LINE SMOOTH",
"157 405 OFFCURVE",
"237 485 OFFCURVE",
"338 485 CURVE SMOOTH",
"426 485 OFFCURVE",
"469 439 OFFCURVE",
"469 339 CURVE SMOOTH",
"469 0 LINE",
"524 0 LINE",
"524 348 LINE SMOOTH",
"524 472 OFFCURVE",
"459 538 OFFCURVE",
"348 538 CURVE SMOOTH",
"259 538 OFFCURVE",
"196 491 OFFCURVE",
"161 428 CURVE",
"157 428 LINE",
"157 750 LINE",
"102 750 LINE",
"102 0 LINE"
);
}
);
};
layerId = "12E3E5E3-6B17-4D77-9A28-32D63F2CCD05";
paths = (
{
closed = 1;
nodes = (
"110 0 LINE",
"110 282 LINE SMOOTH",
"110 419 OFFCURVE",
"194 511 OFFCURVE",
"302 511 CURVE SMOOTH",
"409 511 OFFCURVE",
"453 445 OFFCURVE",
"453 340 CURVE SMOOTH",
"453 0 LINE",
"473 0 LINE",
"473 340 LINE SMOOTH",
"473 460 OFFCURVE",
"419 530 OFFCURVE",
"302 530 CURVE SMOOTH",
"196 530 OFFCURVE",
"128 452 OFFCURVE",
"111 380 CURVE",
"110 380 LINE",
"110 740 LINE",
"90 740 LINE",
"90 0 LINE"
);
}
);
width = 553;
}
);
leftMetricsKey = n;
rightMetricsKey = n;
unicode = 0068;
userData = {
RMXScaler = {
source = h;
};
};
},
{
glyphname = j;
lastChange = "2018-05-25 08:32:28 +0000";
layers = (
{
background = {
anchors = (
{
name = top;
position = "{175, 535}";
}
);
paths = (
{
closed = 1;
nodes = (
"-56 -196 LINE",
"-29 -202 OFFCURVE",
"12 -210 OFFCURVE",
"65 -210 CURVE SMOOTH",
"220 -210 OFFCURVE",
"277 -134 OFFCURVE",
"277 31 CURVE SMOOTH",
"277 535 LINE",
"72 535 LINE",
"72 34 LINE SMOOTH",
"72 -32 OFFCURVE",
"51 -56 OFFCURVE",
"-4 -56 CURVE SMOOTH",
"-19 -56 OFFCURVE",
"-40 -53 OFFCURVE",
"-56 -51 CURVE"
);
},
{
closed = 1;
nodes = (
"245 600 OFFCURVE",
"286 634 OFFCURVE",
"286 697 CURVE SMOOTH",
"286 760 OFFCURVE",
"245 794 OFFCURVE",
"176 794 CURVE SMOOTH",
"105 794 OFFCURVE",
"64 760 OFFCURVE",
"64 697 CURVE SMOOTH",
"64 634 OFFCURVE",
"105 600 OFFCURVE",
"176 600 CURVE SMOOTH"
);
}
);
};
components = (
{
name = jdotless;
},
{
name = dotaccentcomb;
transform = "{1, 0, 0, 1, 158, 0}";
}
);
layerId = "84435905-EDCB-4949-A8A3-0E53308A2F50";
userData = {
RMXScaler = {
height = 100.1;
};
};
width = 305;
},
{
components = (
{
name = jdotless;
},
{
name = dotaccentcomb;
transform = "{1, 0, 0, 1, 138, 0}";
}
);
layerId = "BBFAEC79-FC1B-4455-8BF7-285C9CA7D1F7";
width = 261;
},
{
background = {
anchors = (
{
name = top;
position = "{129, 515}";
}
);
paths = (
{
closed = 1;
nodes = (
"-15 -204 LINE",
"-4 -207 OFFCURVE",
"15 -210 OFFCURVE",
"30 -210 CURVE SMOOTH",
"119 -210 OFFCURVE",
"156 -165 OFFCURVE",
"156 -50 CURVE SMOOTH",
"156 515 LINE",
"101 515 LINE",
"101 -50 LINE SMOOTH",
"101 -136 OFFCURVE",
"82 -161 OFFCURVE",
"24 -161 CURVE SMOOTH",
"12 -161 OFFCURVE",
"-5 -159 OFFCURVE",
"-15 -157 CURVE"
);
},
{
closed = 1;
nodes = (
"153 600 OFFCURVE",
"171 614 OFFCURVE",
"171 643 CURVE SMOOTH",
"171 672 OFFCURVE",
"153 686 OFFCURVE",
"129 686 CURVE SMOOTH",
"104 686 OFFCURVE",
"87 672 OFFCURVE",
"87 643 CURVE SMOOTH",
"87 614 OFFCURVE",
"104 600 OFFCURVE",
"129 600 CURVE SMOOTH"
);
}
);
};
components = (
{
name = jdotless;
},
{
name = dotaccentcomb;
transform = "{1, 0, 0, 1, 113, 0}";
}
);
layerId = "12E3E5E3-6B17-4D77-9A28-32D63F2CCD05";
width = 212;
}
);
unicode = 006A;
userData = {
RMXScaler = {
source = j;
};
};
},
{
color = 9;
glyphname = k;
lastChange = "2018-05-23 15:37:04 +0000";
layers = (
{
anchors = (
{
name = bottom;
position = "{317, 0}";
}
);
background = {
paths = (
{
closed = 1;
nodes = (
"394 215 LINE",
"600 535 LINE",
"390 535 LINE",
"239 271 LINE"
);
},
{
closed = 1;
nodes = (
"250 0 LINE",
"250 740 LINE",
"40 740 LINE",
"40 0 LINE"
);
},
{
closed = 1;
nodes = (
"610 0 LINE",
"433 331 LINE",
"245 269 LINE",
"380 0 LINE"
);
}
);
};
layerId = "84435905-EDCB-4949-A8A3-0E53308A2F50";
paths = (
{
closed = 1;
nodes = (
"250 0 LINE",
"250 740 LINE",
"40 740 LINE",
"40 0 LINE"
);
},
{
closed = 1;
nodes = (
"610 0 LINE",
"404 384 LINE",
"398 222 LINE",
"600 535 LINE",
"390 535 LINE",
"250 290 LINE",
"243 290 LINE",
"243 259 LINE",
"250 259 LINE",
"380 0 LINE"
);
}
);
userData = {
RMXScaler = {
height = 100.1;
};
};
width = 605;
},
{
anchors = (
{
name = bottom;
position = "{276, 0}";
}
);
background = {
paths = (
{
closed = 1;
nodes = (
"244 242 LINE",
"504 528 LINE",
"386 528 LINE",
"167 279 LINE"
);
},
{
closed = 1;
nodes = (
"172 0 LINE",
"172 740 LINE",
"72 740 LINE",
"72 0 LINE"
);
},
{
closed = 1;
nodes = (
"514 0 LINE",
"244 330 LINE",
"167 274 LINE",
"392 0 LINE"
);
}
);
};
layerId = "BBFAEC79-FC1B-4455-8BF7-285C9CA7D1F7";
paths = (
{
closed = 1;
nodes = (
"172 0 LINE",
"172 740 LINE",
"72 740 LINE",
"72 0 LINE"
);
},
{
closed = 1;
nodes = (
"514 0 LINE",
"254 319 LINE",
"252 251 LINE",
"504 528 LINE",
"386 528 LINE",
"172 285 LINE",
"167 285 LINE",
"167 268 LINE",
"172 268 LINE",
"392 0 LINE"
);
}
);
width = 519;
},
{
anchors = (
{
name = bottom;
position = "{249, 0}";
}
);
background = {
paths = (
{
closed = 1;
nodes = (
"128 257 LINE",
"419 515 LINE",
"391 515 LINE",
"110 266 LINE"
);
},
{
closed = 1;
nodes = (
"110 0 LINE",
"110 740 LINE",
"90 740 LINE",
"90 0 LINE"
);
},
{
closed = 1;
nodes = (
"124 276 LINE",
"108 264 LINE",
"400 0 LINE",
"429 0 LINE"
);
}
);
};
layerId = "12E3E5E3-6B17-4D77-9A28-32D63F2CCD05";
paths = (
{
closed = 1;
nodes = (
"110 0 LINE",
"110 740 LINE",
"90 740 LINE",
"90 0 LINE"
);
},
{
closed = 1;
nodes = (
"429 0 LINE",
"130 271 LINE",
"130 259 LINE",
"419 515 LINE",
"391 515 LINE",
"110 266 LINE",
"108 266 LINE",
"108 262 LINE",
"110 262 LINE",
"400 0 LINE"
);
}
);
width = 449;
}
);
leftMetricsKey = n;
unicode = 006B;
userData = {
RMXScaler = {
source = k;
};
};
},
{
color = 9;
glyphname = l;
lastChange = "2018-05-23 15:37:23 +0000";
layers = (
{
anchors = (
{
name = bottom;
position = "{148, 0}";
},
{
name = periodcentered;
position = "{305, 370}";
},
{
name = top;
position = "{145, 731}";
},
{
name = topright;
position = "{340, 535}";
}
);
background = {
paths = (
{
closed = 1;
nodes = (
"250 0 LINE",
"250 750 LINE",
"40 750 LINE",
"40 0 LINE"
);
}
);
};
layerId = "84435905-EDCB-4949-A8A3-0E53308A2F50";
paths = (
{
closed = 1;
nodes = (
"250 0 LINE",
"250 740 LINE",
"40 740 LINE",
"40 0 LINE"
);
}
);
userData = {
RMXScaler = {
height = 100.1;
};
};
width = 290;
},
{
anchors = (
{
name = bottom;
position = "{122, 0}";
},
{
name = periodcentered;
position = "{258, 370}";
},
{
name = top;
position = "{121, 710}";
},
{
name = topright;
position = "{258, 528}";
}
);
layerId = "BBFAEC79-FC1B-4455-8BF7-285C9CA7D1F7";
paths = (
{
closed = 1;
nodes = (
"172 0 LINE",
"172 740 LINE",
"72 740 LINE",
"72 0 LINE"
);
}
);
width = 244;
},
{
anchors = (
{
name = bottom;
position = "{100, 0}";
},
{
name = periodcentered;
position = "{250, 370}";
},
{
name = top;
position = "{100, 730}";
},
{
name = topright;
position = "{210, 515}";
}
);
background = {
paths = (
{
closed = 1;
nodes = (
"156 0 LINE",
"156 750 LINE",
"101 750 LINE",
"101 0 LINE"
);
}
);
};
layerId = "12E3E5E3-6B17-4D77-9A28-32D63F2CCD05";
paths = (
{
closed = 1;
nodes = (
"110 0 LINE",
"110 740 LINE",
"90 740 LINE",
"90 0 LINE"
);
}
);
width = 200;
}
);
leftMetricsKey = n;
rightMetricsKey = "=|n";
unicode = 006C;
userData = {
RMXScaler = {
source = l;
};
};
},
{
color = 9;
glyphname = m;
lastChange = "2018-05-18 23:02:18 +0000";
layers = (
{
background = {
paths = (
{
closed = 1;
nodes = (
"36 0 LINE",
"246 0 LINE",
"246 279 LINE SMOOTH",
"246 335 OFFCURVE",
"282 370 OFFCURVE",
"329 370 CURVE SMOOTH",
"375 370 OFFCURVE",
"390 342 OFFCURVE",
"390 292 CURVE SMOOTH",
"390 0 LINE",
"600 0 LINE",
"600 279 LINE SMOOTH",
"600 335 OFFCURVE",
"636 370 OFFCURVE",
"683 370 CURVE SMOOTH",
"729 370 OFFCURVE",
"744 342 OFFCURVE",
"744 292 CURVE SMOOTH",
"744 0 LINE",
"954 0 LINE",
"954 347 LINE SMOOTH",
"954 469 OFFCURVE",
"908 550 OFFCURVE",
"782 550 CURVE SMOOTH",
"679 550 OFFCURVE",
"633 502 OFFCURVE",
"598 427 CURVE",
"591 427 LINE",
"574 499 OFFCURVE",
"529 550 OFFCURVE",
"428 550 CURVE SMOOTH",
"335 550 OFFCURVE",
"283 502 OFFCURVE",
"249 427 CURVE",
"242 427 LINE",
"222 535 LINE",
"36 535 LINE"
);
},
{
closed = 0;
nodes = (
"567 415 LINE",
"552 498 OFFCURVE",
"503 550 OFFCURVE",
"406 550 CURVE SMOOTH",
"305 550 OFFCURVE",
"267 492 OFFCURVE",
"243 437 CURVE",
"242 437 LINE",
"222 535 LINE",
"36 535 LINE",
"36 0 LINE",
"246 0 LINE",
"246 279 LINE SMOOTH",
"246 335 OFFCURVE",
"262 370 OFFCURVE",
"307 370 CURVE SMOOTH",
"350 370 OFFCURVE",
"363 342 OFFCURVE",
"363 292 CURVE SMOOTH",
"363 0 LINE",
"573 0 LINE",
"573 279 LINE SMOOTH",
"573 335 OFFCURVE",
"589 370 OFFCURVE",
"634 370 CURVE SMOOTH",
"677 370 OFFCURVE",
"690 342 OFFCURVE",
"690 292 CURVE SMOOTH",
"690 0 LINE",
"900 0 LINE",
"900 347 LINE SMOOTH",
"900 469 OFFCURVE",
"855 550 OFFCURVE",
"733 550 CURVE SMOOTH",
"632 550 OFFCURVE",
"594 492 OFFCURVE",
"570 437 CURVE",
"569 437 LINE",
"549 535 LINE"
);
}
);
};
layerId = "84435905-EDCB-4949-A8A3-0E53308A2F50";
paths = (
{
closed = 1;
nodes = (
"40 0 LINE",
"250 0 LINE",
"250 279 LINE SMOOTH",
"250 335 OFFCURVE",
"266 370 OFFCURVE",
"309 370 CURVE SMOOTH",
"351 370 OFFCURVE",
"364 342 OFFCURVE",
"364 292 CURVE SMOOTH",
"364 0 LINE",
"574 0 LINE",
"574 279 LINE SMOOTH",
"574 335 OFFCURVE",
"590 370 OFFCURVE",
"633 370 CURVE SMOOTH",
"675 370 OFFCURVE",
"688 342 OFFCURVE",
"688 292 CURVE SMOOTH",
"688 0 LINE",
"898 0 LINE",
"898 347 LINE SMOOTH",
"898 469 OFFCURVE",
"853 550 OFFCURVE",
"732 550 CURVE SMOOTH",
"624 550 OFFCURVE",
"585 488 OFFCURVE",
"561 432 CURVE",
"560 432 LINE",
"543 502 OFFCURVE",
"499 550 OFFCURVE",
"408 550 CURVE SMOOTH",
"308 550 OFFCURVE",
"271 492 OFFCURVE",
"247 437 CURVE",
"246 437 LINE",
"226 535 LINE",
"40 535 LINE"
);
}
);
userData = {
RMXScaler = {
height = 100.1;
};
};
width = 933;
},
{
background = {
paths = (
{
closed = 1;
nodes = (
"66 0 LINE",
"166 0 LINE",
"166 280 LINE SMOOTH",
"166 388 OFFCURVE",
"216 453 OFFCURVE",
"299 453 CURVE SMOOTH",
"368 453 OFFCURVE",
"403 409 OFFCURVE",
"403 323 CURVE SMOOTH",
"403 0 LINE",
"503 0 LINE",
"503 280 LINE SMOOTH",
"503 388 OFFCURVE",
"553 453 OFFCURVE",
"636 453 CURVE SMOOTH",
"705 453 OFFCURVE",
"740 409 OFFCURVE",
"740 323 CURVE SMOOTH",
"740 0 LINE",
"840 0 LINE",
"840 346 LINE SMOOTH",
"840 466 OFFCURVE",
"780 543 OFFCURVE",
"663 543 CURVE SMOOTH",
"562 543 OFFCURVE",
"519 490 OFFCURVE",
"488 437 CURVE",
"487 437 LINE",
"462 504 OFFCURVE",
"408 543 OFFCURVE",
"326 543 CURVE SMOOTH",
"240 543 OFFCURVE",
"196 500 OFFCURVE",
"165 447 CURVE",
"164 447 LINE",
"151 528 LINE",
"66 528 LINE"
);
}
);
};
layerId = "BBFAEC79-FC1B-4455-8BF7-285C9CA7D1F7";
paths = (
{
closed = 1;
nodes = (
"72 0 LINE",
"172 0 LINE",
"172 280 LINE SMOOTH",
"172 388 OFFCURVE",
"222 453 OFFCURVE",
"302 453 CURVE SMOOTH",
"371 453 OFFCURVE",
"406 409 OFFCURVE",
"406 323 CURVE SMOOTH",
"406 0 LINE",
"506 0 LINE",
"506 280 LINE SMOOTH",
"506 388 OFFCURVE",
"556 453 OFFCURVE",
"636 453 CURVE SMOOTH",
"705 453 OFFCURVE",
"740 409 OFFCURVE",
"740 323 CURVE SMOOTH",
"740 0 LINE",
"840 0 LINE",
"840 346 LINE SMOOTH",
"840 466 OFFCURVE",
"780 543 OFFCURVE",
"663 543 CURVE SMOOTH",
"562 543 OFFCURVE",
"522 490 OFFCURVE",
"491 437 CURVE",
"490 437 LINE",
"465 504 OFFCURVE",
"411 543 OFFCURVE",
"329 543 CURVE SMOOTH",
"243 543 OFFCURVE",
"202 500 OFFCURVE",
"171 447 CURVE",
"170 447 LINE",
"157 528 LINE",
"72 528 LINE"
);
}
);
width = 902;
},
{
background = {
paths = (
{
closed = 1;
nodes = (
"86 0 LINE",
"141 0 LINE",
"141 284 LINE SMOOTH",
"141 405 OFFCURVE",
"221 485 OFFCURVE",
"317 485 CURVE SMOOTH",
"400 485 OFFCURVE",
"443 439 OFFCURVE",
"443 338 CURVE SMOOTH",
"443 0 LINE",
"498 0 LINE",
"498 284 LINE SMOOTH",
"498 405 OFFCURVE",
"578 485 OFFCURVE",
"674 485 CURVE SMOOTH",
"757 485 OFFCURVE",
"800 439 OFFCURVE",
"800 338 CURVE SMOOTH",
"800 0 LINE",
"855 0 LINE",
"855 347 LINE SMOOTH",
"855 472 OFFCURVE",
"790 538 OFFCURVE",
"684 538 CURVE SMOOTH",
"599 538 OFFCURVE",
"532 494 OFFCURVE",
"493 420 CURVE",
"489 420 LINE",
"469 494 OFFCURVE",
"412 538 OFFCURVE",
"327 538 CURVE SMOOTH",
"242 538 OFFCURVE",
"179 489 OFFCURVE",
"144 428 CURVE",
"140 428 LINE",
"129 523 LINE",
"86 523 LINE"
);
}
);
};
layerId = "12E3E5E3-6B17-4D77-9A28-32D63F2CCD05";
paths = (
{
closed = 1;
nodes = (
"90 0 LINE",
"110 0 LINE",
"110 282 LINE SMOOTH",
"110 419 OFFCURVE",
"191 511 OFFCURVE",
"296 511 CURVE SMOOTH",
"398 511 OFFCURVE",
"442 445 OFFCURVE",
"442 340 CURVE SMOOTH",
"442 0 LINE",
"462 0 LINE",
"462 282 LINE SMOOTH",
"462 419 OFFCURVE",
"543 511 OFFCURVE",
"648 511 CURVE SMOOTH",
"750 511 OFFCURVE",
"794 445 OFFCURVE",
"794 340 CURVE SMOOTH",
"794 0 LINE",
"814 0 LINE",
"814 340 LINE SMOOTH",
"814 460 OFFCURVE",
"760 530 OFFCURVE",
"648 530 CURVE SMOOTH",
"543 530 OFFCURVE",
"481 452 OFFCURVE",
"460 377 CURVE",
"459 377 LINE",
"449 472 OFFCURVE",
"397 530 OFFCURVE",
"296 530 CURVE SMOOTH",
"193 530 OFFCURVE",
"129 452 OFFCURVE",
"110 380 CURVE",
"109 380 LINE",
"106 515 LINE",
"90 515 LINE"
);
}
);
width = 894;
}
);
leftMetricsKey = n;
rightMetricsKey = n;
unicode = 006D;
userData = {
RMXScaler = {
source = m;
};
};
},
{
color = 9;
glyphname = n;
lastChange = "2018-05-24 11:28:48 +0000";
layers = (
{
anchors = (
{
name = apostrophe;
position = "{-45, 535}";
},
{
name = bottom;
position = "{299, 0}";
},
{
name = top;
position = "{301, 535}";
}
);
background = {
paths = (
{
closed = 1;
nodes = (
"225 0 LINE",
"225 279 LINE SMOOTH",
"225 335 OFFCURVE",
"261 370 OFFCURVE",
"311 370 CURVE SMOOTH",
"359 370 OFFCURVE",
"374 342 OFFCURVE",
"374 292 CURVE SMOOTH",
"374 0 LINE",
"584 0 LINE",
"584 347 LINE SMOOTH",
"584 469 OFFCURVE",
"538 550 OFFCURVE",
"410 550 CURVE SMOOTH",
"314 550 OFFCURVE",
"262 502 OFFCURVE",
"228 427 CURVE",
"221 427 LINE",
"201 535 LINE",
"15 535 LINE",
"15 0 LINE"
);
}
);
};
layerId = "84435905-EDCB-4949-A8A3-0E53308A2F50";
paths = (
{
closed = 1;
nodes = (
"40 0 LINE",
"250 0 LINE",
"250 279 LINE SMOOTH",
"250 335 OFFCURVE",
"266 370 OFFCURVE",
"311 370 CURVE SMOOTH",
"354 370 OFFCURVE",
"367 342 OFFCURVE",
"367 292 CURVE SMOOTH",
"367 0 LINE",
"577 0 LINE",
"577 347 LINE SMOOTH",
"577 469 OFFCURVE",
"532 550 OFFCURVE",
"410 550 CURVE SMOOTH",
"309 550 OFFCURVE",
"271 492 OFFCURVE",
"247 437 CURVE",
"246 437 LINE",
"226 535 LINE",
"40 535 LINE"
);
}
);
userData = {
RMXScaler = {
height = 100.1;
};
};
width = 612;
},
{
anchors = (
{
name = apostrophe;
position = "{1, 528}";
},
{
name = bottom;
position = "{295, 0}";
},
{
name = top;
position = "{293, 528}";
}
);
background = {
paths = (
{
closed = 1;
nodes = (
"172 0 LINE",
"172 290 LINE SMOOTH",
"172 388 OFFCURVE",
"234 453 OFFCURVE",
"322 453 CURVE SMOOTH",
"396 453 OFFCURVE",
"431 409 OFFCURVE",
"431 323 CURVE SMOOTH",
"431 0 LINE",
"531 0 LINE",
"531 356 LINE SMOOTH",
"531 476 OFFCURVE",
"471 543 OFFCURVE",
"354 543 CURVE SMOOTH",
"265 543 OFFCURVE",
"210 500 OFFCURVE",
"175 437 CURVE",
"170 437 LINE",
"157 528 LINE",
"72 528 LINE",
"72 0 LINE"
);
}
);
};
layerId = "BBFAEC79-FC1B-4455-8BF7-285C9CA7D1F7";
paths = (
{
closed = 1;
nodes = (
"72 0 LINE",
"172 0 LINE",
"172 280 LINE SMOOTH",
"172 388 OFFCURVE",
"227 453 OFFCURVE",
"310 453 CURVE SMOOTH",
"384 453 OFFCURVE",
"419 409 OFFCURVE",
"419 323 CURVE SMOOTH",
"419 0 LINE",
"519 0 LINE",
"519 346 LINE SMOOTH",
"519 466 OFFCURVE",
"459 543 OFFCURVE",
"337 543 CURVE SMOOTH",
"251 543 OFFCURVE",
"202 500 OFFCURVE",
"171 447 CURVE",
"170 447 LINE",
"157 528 LINE",
"72 528 LINE"
);
}
);
width = 581;
},
{
anchors = (
{
name = apostrophe;
position = "{11, 515}";
},
{
name = bottom;
position = "{287, 0}";
},
{
name = top;
position = "{288, 515}";
}
);
background = {
paths = (
{
closed = 1;
nodes = (
"158 0 LINE",
"158 284 LINE SMOOTH",
"158 405 OFFCURVE",
"238 485 OFFCURVE",
"339 485 CURVE SMOOTH",
"427 485 OFFCURVE",
"470 439 OFFCURVE",
"470 338 CURVE SMOOTH",
"470 0 LINE",
"525 0 LINE",
"525 347 LINE SMOOTH",
"525 472 OFFCURVE",
"460 538 OFFCURVE",
"349 538 CURVE SMOOTH",
"259 538 OFFCURVE",
"196 489 OFFCURVE",
"161 428 CURVE",
"157 428 LINE",
"146 523 LINE",
"103 523 LINE",
"103 0 LINE"
);
}
);
};
layerId = "12E3E5E3-6B17-4D77-9A28-32D63F2CCD05";
paths = (
{
closed = 1;
nodes = (
"90 0 LINE",
"110 0 LINE",
"110 282 LINE SMOOTH",
"110 419 OFFCURVE",
"196 511 OFFCURVE",
"304 511 CURVE SMOOTH",
"411 511 OFFCURVE",
"455 445 OFFCURVE",
"455 340 CURVE SMOOTH",
"455 0 LINE",
"475 0 LINE",
"475 340 LINE SMOOTH",
"475 460 OFFCURVE",
"421 530 OFFCURVE",
"304 530 CURVE SMOOTH",
"198 530 OFFCURVE",
"129 452 OFFCURVE",
"110 380 CURVE",
"109 380 LINE",
"106 515 LINE",
"90 515 LINE"
);
}
);
width = 555;
}
);
unicode = 006E;
userData = {
RMXScaler = {
source = n;
};
};
},
{
color = 9;
glyphname = o;
lastChange = "2018-05-25 11:30:33 +0000";
layers = (
{
anchors = (
{
name = bottom;
position = "{310, 0}";
},
{
name = top;
position = "{310, 535}";
}
);
background = {
paths = (
{
closed = 1;
nodes = (
"509 -15 OFFCURVE",
"612 88 OFFCURVE",
"612 267 CURVE SMOOTH",
"612 446 OFFCURVE",
"509 550 OFFCURVE",
"310 550 CURVE SMOOTH",
"111 550 OFFCURVE",
"8 446 OFFCURVE",
"8 267 CURVE SMOOTH",
"8 88 OFFCURVE",
"111 -15 OFFCURVE",
"310 -15 CURVE SMOOTH"
);
},
{
closed = 1;
nodes = (
"242 140 OFFCURVE",
"221 180 OFFCURVE",
"221 267 CURVE SMOOTH",
"221 355 OFFCURVE",
"242 395 OFFCURVE",
"310 395 CURVE SMOOTH",
"378 395 OFFCURVE",
"399 355 OFFCURVE",
"399 267 CURVE SMOOTH",
"399 180 OFFCURVE",
"378 140 OFFCURVE",
"310 140 CURVE SMOOTH"
);
}
);
};
layerId = "84435905-EDCB-4949-A8A3-0E53308A2F50";
paths = (
{
closed = 1;
nodes = (
"489 -15 OFFCURVE",
"592 88 OFFCURVE",
"592 267 CURVE SMOOTH",
"592 446 OFFCURVE",
"489 550 OFFCURVE",
"310 550 CURVE SMOOTH",
"131 550 OFFCURVE",
"28 446 OFFCURVE",
"28 267 CURVE SMOOTH",
"28 88 OFFCURVE",
"131 -15 OFFCURVE",
"310 -15 CURVE SMOOTH"
);
},
{
closed = 1;
nodes = (
"260 140 OFFCURVE",
"241 173 OFFCURVE",
"241 267 CURVE SMOOTH",
"241 360 OFFCURVE",
"260 395 OFFCURVE",
"310 395 CURVE SMOOTH",
"360 395 OFFCURVE",
"379 360 OFFCURVE",
"379 267 CURVE SMOOTH",
"379 173 OFFCURVE",
"360 140 OFFCURVE",
"310 140 CURVE SMOOTH"
);
}
);
userData = {
RMXScaler = {
height = 100.1;
};
};
width = 620;
},
{
anchors = (
{
name = bottom;
position = "{288, 0}";
},
{
name = top;
position = "{288, 528}";
}
);
background = {
paths = (
{
closed = 1;
nodes = (
"452 -15 OFFCURVE",
"543 85 OFFCURVE",
"543 265 CURVE SMOOTH",
"543 444 OFFCURVE",
"452 543 OFFCURVE",
"288 543 CURVE SMOOTH",
"125 543 OFFCURVE",
"34 444 OFFCURVE",
"34 265 CURVE SMOOTH",
"34 85 OFFCURVE",
"125 -15 OFFCURVE",
"288 -15 CURVE SMOOTH"
);
},
{
closed = 1;
nodes = (
"185 70 OFFCURVE",
"136 137 OFFCURVE",
"136 265 CURVE SMOOTH",
"136 392 OFFCURVE",
"185 458 OFFCURVE",
"288 458 CURVE SMOOTH",
"392 458 OFFCURVE",
"441 392 OFFCURVE",
"441 265 CURVE SMOOTH",
"441 137 OFFCURVE",
"392 70 OFFCURVE",
"288 70 CURVE SMOOTH"
);
}
);
};
layerId = "BBFAEC79-FC1B-4455-8BF7-285C9CA7D1F7";
paths = (
{
closed = 1;
nodes = (
"445 -15 OFFCURVE",
"537 90 OFFCURVE",
"537 265 CURVE SMOOTH",
"537 439 OFFCURVE",
"445 543 OFFCURVE",
"288 543 CURVE SMOOTH",
"132 543 OFFCURVE",
"40 439 OFFCURVE",
"40 265 CURVE SMOOTH",
"40 90 OFFCURVE",
"132 -15 OFFCURVE",
"288 -15 CURVE SMOOTH"
);
},
{
closed = 1;
nodes = (
"193 70 OFFCURVE",
"142 137 OFFCURVE",
"142 265 CURVE SMOOTH",
"142 392 OFFCURVE",
"193 458 OFFCURVE",
"288 458 CURVE SMOOTH",
"384 458 OFFCURVE",
"435 392 OFFCURVE",
"435 265 CURVE SMOOTH",
"435 137 OFFCURVE",
"384 70 OFFCURVE",
"288 70 CURVE SMOOTH"
);
}
);
width = 577;
},
{
anchors = (
{
name = bottom;
position = "{272, 0}";
},
{
name = top;
position = "{272, 515}";
}
);
background = {
paths = (
{
closed = 1;
nodes = (
"457 -15 OFFCURVE",
"549 84 OFFCURVE",
"549 262 CURVE SMOOTH",
"549 440 OFFCURVE",
"457 538 OFFCURVE",
"308 538 CURVE SMOOTH",
"159 538 OFFCURVE",
"67 440 OFFCURVE",
"67 262 CURVE SMOOTH",
"67 84 OFFCURVE",
"159 -15 OFFCURVE",
"308 -15 CURVE SMOOTH"
);
},
{
closed = 1;
nodes = (
"187 36 OFFCURVE",
"124 108 OFFCURVE",
"124 262 CURVE SMOOTH",
"124 416 OFFCURVE",
"187 487 OFFCURVE",
"308 487 CURVE SMOOTH",
"429 487 OFFCURVE",
"492 416 OFFCURVE",
"492 262 CURVE SMOOTH",
"492 108 OFFCURVE",
"429 36 OFFCURVE",
"308 36 CURVE SMOOTH"
);
}
);
};
layerId = "12E3E5E3-6B17-4D77-9A28-32D63F2CCD05";
paths = (
{
closed = 1;
nodes = (
"412 -15 OFFCURVE",
"494 85 OFFCURVE",
"494 258 CURVE SMOOTH",
"494 431 OFFCURVE",
"412 530 OFFCURVE",
"272 530 CURVE SMOOTH",
"132 530 OFFCURVE",
"50 431 OFFCURVE",
"50 258 CURVE SMOOTH",
"50 85 OFFCURVE",
"132 -15 OFFCURVE",
"272 -15 CURVE SMOOTH"
);
},
{
closed = 1;
nodes = (
"144 4 OFFCURVE",
"70 96 OFFCURVE",
"70 258 CURVE SMOOTH",
"70 420 OFFCURVE",
"144 511 OFFCURVE",
"272 511 CURVE SMOOTH",
"400 511 OFFCURVE",
"474 420 OFFCURVE",
"474 258 CURVE SMOOTH",
"474 96 OFFCURVE",
"400 4 OFFCURVE",
"272 4 CURVE SMOOTH"
);
}
);
width = 544;
},
{
anchors = (
{
name = top;
position = "{306, 515}";
}
);
associatedMasterId = "12E3E5E3-6B17-4D77-9A28-32D63F2CCD05";
background = {
paths = (
{
closed = 1;
nodes = (
"447 -15 OFFCURVE",
"547 78 OFFCURVE",
"547 257 CURVE SMOOTH",
"547 436 OFFCURVE",
"447 530 OFFCURVE",
"307 530 CURVE SMOOTH",
"168 530 OFFCURVE",
"67 436 OFFCURVE",
"67 257 CURVE SMOOTH",
"67 78 OFFCURVE",
"168 -15 OFFCURVE",
"307 -15 CURVE SMOOTH"
);
},
{
closed = 1;
nodes = (
"191 32 OFFCURVE",
"123 108 OFFCURVE",
"123 257 CURVE SMOOTH",
"123 406 OFFCURVE",
"191 483 OFFCURVE",
"307 483 CURVE SMOOTH",
"423 483 OFFCURVE",
"491 406 OFFCURVE",
"491 257 CURVE SMOOTH",
"491 108 OFFCURVE",
"423 32 OFFCURVE",
"307 32 CURVE SMOOTH"
);
}
);
};
layerId = "F19F4929-3D78-4F4E-A282-9D1509606D78";
name = "Sep 19 17, 13:24";
paths = (
{
closed = 1;
nodes = (
"457 -15 OFFCURVE",
"547 84 OFFCURVE",
"547 257 CURVE SMOOTH",
"547 430 OFFCURVE",
"457 529 OFFCURVE",
"307 529 CURVE SMOOTH",
"157 529 OFFCURVE",
"67 430 OFFCURVE",
"67 257 CURVE SMOOTH",
"67 84 OFFCURVE",
"157 -15 OFFCURVE",
"307 -15 CURVE SMOOTH"
);
},
{
closed = 1;
nodes = (
"185 33 OFFCURVE",
"123 109 OFFCURVE",
"123 257 CURVE SMOOTH",
"123 405 OFFCURVE",
"185 481 OFFCURVE",
"307 481 CURVE SMOOTH",
"429 481 OFFCURVE",
"491 405 OFFCURVE",
"491 257 CURVE SMOOTH",
"491 109 OFFCURVE",
"429 33 OFFCURVE",
"307 33 CURVE SMOOTH"
);
}
);
width = 614;
}
);
unicode = 006F;
userData = {
RMXScaler = {
source = o;
};
};
},
{
color = 9;
glyphname = p;
lastChange = "2018-05-09 23:03:32 +0000";
layers = (
{
background = {
paths = (
{
closed = 1;
nodes = (
"234 -195 LINE",
"234 84 LINE",
"241 84 LINE",
"262 27 OFFCURVE",
"310 -15 OFFCURVE",
"403 -15 CURVE SMOOTH",
"536 -15 OFFCURVE",
"616 92 OFFCURVE",
"616 267 CURVE SMOOTH",
"616 441 OFFCURVE",
"536 550 OFFCURVE",
"403 550 CURVE SMOOTH",
"305 550 OFFCURVE",
"256 497 OFFCURVE",
"235 438 CURVE",
"228 438 LINE",
"210 535 LINE",
"24 535 LINE",
"24 -195 LINE"
);
},
{
closed = 1;
nodes = (
"254 145 OFFCURVE",
"232 185 OFFCURVE",
"232 267 CURVE SMOOTH",
"232 350 OFFCURVE",
"254 390 OFFCURVE",
"317 390 CURVE SMOOTH",
"381 390 OFFCURVE",
"403 350 OFFCURVE",
"403 267 CURVE SMOOTH",
"403 185 OFFCURVE",
"381 145 OFFCURVE",
"317 145 CURVE SMOOTH"
);
}
);
};
layerId = "84435905-EDCB-4949-A8A3-0E53308A2F50";
paths = (
{
closed = 1;
nodes = (
"250 -185 LINE",
"250 74 LINE",
"251 74 LINE",
"276 22 OFFCURVE",
"315 -15 OFFCURVE",
"398 -15 CURVE SMOOTH",
"520 -15 OFFCURVE",
"599 92 OFFCURVE",
"599 267 CURVE SMOOTH",
"599 441 OFFCURVE",
"525 550 OFFCURVE",
"398 550 CURVE SMOOTH",
"305 550 OFFCURVE",
"266 501 OFFCURVE",
"245 447 CURVE",
"244 447 LINE",
"226 535 LINE",
"40 535 LINE",
"40 -185 LINE"
);
},
{
closed = 1;
nodes = (
"268 145 OFFCURVE",
"248 185 OFFCURVE",
"248 268 CURVE SMOOTH",
"248 351 OFFCURVE",
"268 390 OFFCURVE",
"317 390 CURVE SMOOTH",
"365 390 OFFCURVE",
"386 351 OFFCURVE",
"386 268 CURVE SMOOTH",
"386 185 OFFCURVE",
"365 145 OFFCURVE",
"317 145 CURVE SMOOTH"
);
}
);
userData = {
RMXScaler = {
height = 100.1;
};
};
width = 627;
},
{
background = {
paths = (
{
closed = 1;
nodes = (
"166 -195 LINE",
"166 84 LINE",
"171 84 LINE",
"200 21 OFFCURVE",
"255 -15 OFFCURVE",
"336 -15 CURVE SMOOTH",
"482 -15 OFFCURVE",
"565 88 OFFCURVE",
"565 264 CURVE SMOOTH",
"565 440 OFFCURVE",
"482 543 OFFCURVE",
"341 543 CURVE SMOOTH",
"258 543 OFFCURVE",
"205 507 OFFCURVE",
"169 437 CURVE",
"164 437 LINE",
"151 528 LINE",
"66 528 LINE",
"66 -195 LINE"
);
},
{
closed = 1;
nodes = (
"213 70 OFFCURVE",
"164 145 OFFCURVE",
"164 264 CURVE SMOOTH",
"164 384 OFFCURVE",
"213 458 OFFCURVE",
"313 458 CURVE SMOOTH",
"413 458 OFFCURVE",
"463 394 OFFCURVE",
"463 264 CURVE SMOOTH",
"463 134 OFFCURVE",
"413 70 OFFCURVE",
"313 70 CURVE SMOOTH"
);
}
);
};
layerId = "BBFAEC79-FC1B-4455-8BF7-285C9CA7D1F7";
paths = (
{
closed = 1;
nodes = (
"172 -185 LINE",
"172 69 LINE",
"173 69 LINE",
"202 16 OFFCURVE",
"253 -15 OFFCURVE",
"331 -15 CURVE SMOOTH",
"468 -15 OFFCURVE",
"559 88 OFFCURVE",
"559 264 CURVE SMOOTH",
"559 440 OFFCURVE",
"475 543 OFFCURVE",
"339 543 CURVE SMOOTH",
"246 543 OFFCURVE",
"199 499 OFFCURVE",
"171 452 CURVE",
"170 452 LINE",
"157 528 LINE",
"72 528 LINE",
"72 -185 LINE"
);
},
{
closed = 1;
nodes = (
"221 70 OFFCURVE",
"170 145 OFFCURVE",
"170 264 CURVE SMOOTH",
"170 379 OFFCURVE",
"221 458 OFFCURVE",
"313 458 CURVE SMOOTH",
"405 458 OFFCURVE",
"457 394 OFFCURVE",
"457 264 CURVE SMOOTH",
"457 134 OFFCURVE",
"405 70 OFFCURVE",
"313 70 CURVE SMOOTH"
);
}
);
width = 599;
},
{
background = {
paths = (
{
closed = 1;
nodes = (
"158 -200 LINE",
"158 89 LINE",
"162 89 LINE",
"193 27 OFFCURVE",
"254 -15 OFFCURVE",
"340 -15 CURVE SMOOTH",
"488 -15 OFFCURVE",
"570 87 OFFCURVE",
"570 262 CURVE SMOOTH",
"570 436 OFFCURVE",
"488 538 OFFCURVE",
"340 538 CURVE SMOOTH",
"254 538 OFFCURVE",
"194 491 OFFCURVE",
"161 428 CURVE",
"157 428 LINE",
"146 523 LINE",
"103 523 LINE",
"103 -200 LINE"
);
},
{
closed = 1;
nodes = (
"214 37 OFFCURVE",
"154 139 OFFCURVE",
"154 262 CURVE SMOOTH",
"154 384 OFFCURVE",
"214 486 OFFCURVE",
"338 486 CURVE SMOOTH",
"455 486 OFFCURVE",
"513 413 OFFCURVE",
"513 262 CURVE SMOOTH",
"513 110 OFFCURVE",
"455 37 OFFCURVE",
"338 37 CURVE SMOOTH"
);
}
);
};
layerId = "12E3E5E3-6B17-4D77-9A28-32D63F2CCD05";
paths = (
{
closed = 1;
nodes = (
"110 -190 LINE",
"110 134 LINE",
"111 134 LINE",
"128 58 OFFCURVE",
"190 -15 OFFCURVE",
"304 -15 CURVE SMOOTH",
"442 -15 OFFCURVE",
"519 87 OFFCURVE",
"519 257 CURVE SMOOTH",
"519 428 OFFCURVE",
"442 530 OFFCURVE",
"304 530 CURVE SMOOTH",
"198 530 OFFCURVE",
"132 460 OFFCURVE",
"110 375 CURVE",
"109 375 LINE",
"106 515 LINE",
"90 515 LINE",
"90 -190 LINE"
);
},
{
closed = 1;
nodes = (
"193 4 OFFCURVE",
"110 79 OFFCURVE",
"110 257 CURVE SMOOTH",
"110 423 OFFCURVE",
"189 511 OFFCURVE",
"304 511 CURVE SMOOTH",
"430 511 OFFCURVE",
"499 418 OFFCURVE",
"499 257 CURVE SMOOTH",
"499 97 OFFCURVE",
"430 4 OFFCURVE",
"304 4 CURVE SMOOTH"
);
}
);
width = 569;
}
);
leftMetricsKey = n;
rightMetricsKey = o;
unicode = 0070;
userData = {
RMXScaler = {
source = p;
};
};
},
{
glyphname = q;
lastChange = "2018-05-25 08:09:38 +0000";
layers = (
{
background = {
paths = (
{
closed = 1;
nodes = (
"625 535 LINE",
"439 535 LINE",
"421 438 LINE",
"414 438 LINE",
"393 497 OFFCURVE",
"344 550 OFFCURVE",
"246 550 CURVE SMOOTH",
"113 550 OFFCURVE",
"33 441 OFFCURVE",
"33 267 CURVE SMOOTH",
"33 92 OFFCURVE",
"113 -15 OFFCURVE",
"246 -15 CURVE SMOOTH",
"339 -15 OFFCURVE",
"387 27 OFFCURVE",
"408 84 CURVE",
"415 84 LINE",
"415 -195 LINE",
"625 -195 LINE"
);
},
{
closed = 1;
nodes = (
"268 145 OFFCURVE",
"246 185 OFFCURVE",
"246 267 CURVE SMOOTH",
"246 350 OFFCURVE",
"268 390 OFFCURVE",
"332 390 CURVE SMOOTH",
"395 390 OFFCURVE",
"417 350 OFFCURVE",
"417 267 CURVE SMOOTH",
"417 185 OFFCURVE",
"395 145 OFFCURVE",
"332 145 CURVE SMOOTH"
);
}
);
};
components = (
{
name = p;
transform = "{-1, 0, 0, 1, 627, 0}";
}
);
layerId = "84435905-EDCB-4949-A8A3-0E53308A2F50";
userData = {
RMXScaler = {
height = 100.1;
};
};
width = 627;
},
{
background = {
paths = (
{
closed = 1;
nodes = (
"556 528 LINE",
"471 528 LINE",
"458 437 LINE",
"453 437 LINE",
"417 507 OFFCURVE",
"364 543 OFFCURVE",
"281 543 CURVE SMOOTH",
"140 543 OFFCURVE",
"57 440 OFFCURVE",
"57 264 CURVE SMOOTH",
"57 88 OFFCURVE",
"140 -15 OFFCURVE",
"286 -15 CURVE SMOOTH",
"367 -15 OFFCURVE",
"422 21 OFFCURVE",
"451 84 CURVE",
"456 84 LINE",
"456 -195 LINE",
"556 -195 LINE"
);
},
{
closed = 1;
nodes = (
"209 70 OFFCURVE",
"159 134 OFFCURVE",
"159 264 CURVE SMOOTH",
"159 394 OFFCURVE",
"209 458 OFFCURVE",
"309 458 CURVE SMOOTH",
"409 458 OFFCURVE",
"458 384 OFFCURVE",
"458 264 CURVE SMOOTH",
"458 145 OFFCURVE",
"409 70 OFFCURVE",
"309 70 CURVE SMOOTH"
);
}
);
};
components = (
{
name = p;
transform = "{-1, 0, 0, 1, 599, 0}";
}
);
layerId = "BBFAEC79-FC1B-4455-8BF7-285C9CA7D1F7";
width = 599;
},
{
background = {
paths = (
{
closed = 1;
nodes = (
"532 523 LINE",
"489 523 LINE",
"478 428 LINE",
"474 428 LINE",
"441 491 OFFCURVE",
"381 538 OFFCURVE",
"295 538 CURVE SMOOTH",
"147 538 OFFCURVE",
"65 436 OFFCURVE",
"65 262 CURVE SMOOTH",
"65 87 OFFCURVE",
"147 -15 OFFCURVE",
"295 -15 CURVE SMOOTH",
"381 -15 OFFCURVE",
"442 27 OFFCURVE",
"473 89 CURVE",
"477 89 LINE",
"477 -200 LINE",
"532 -200 LINE"
);
},
{
closed = 1;
nodes = (
"180 37 OFFCURVE",
"122 110 OFFCURVE",
"122 262 CURVE SMOOTH",
"122 413 OFFCURVE",
"180 486 OFFCURVE",
"297 486 CURVE SMOOTH",
"421 486 OFFCURVE",
"481 384 OFFCURVE",
"481 262 CURVE SMOOTH",
"481 139 OFFCURVE",
"421 37 OFFCURVE",
"297 37 CURVE SMOOTH"
);
}
);
};
components = (
{
name = p;
transform = "{-1, 0, 0, 1, 569, 0}";
}
);
layerId = "12E3E5E3-6B17-4D77-9A28-32D63F2CCD05";
width = 569;
}
);
leftMetricsKey = o;
rightMetricsKey = idotless;
unicode = 0071;
userData = {
RMXScaler = {
source = q;
};
};
},
{
color = 9;
glyphname = r;
lastChange = "2018-05-23 15:40:37 +0000";
layers = (
{
anchors = (
{
name = bottom;
position = "{148, 0}";
},
{
name = top;
position = "{236, 535}";
}
);
background = {
paths = (
{
closed = 1;
nodes = (
"250 0 LINE",
"250 249 LINE SMOOTH",
"250 316 OFFCURVE",
"299 358 OFFCURVE",
"373 358 CURVE SMOOTH",
"388 358 OFFCURVE",
"403 357 OFFCURVE",
"419 354 CURVE",
"439 543 LINE",
"423 547 OFFCURVE",
"403 550 OFFCURVE",
"381 550 CURVE SMOOTH",
"302 550 OFFCURVE",
"271 501 OFFCURVE",
"254 417 CURVE",
"247 417 LINE",
"226 535 LINE",
"40 535 LINE",
"40 0 LINE"
);
}
);
};
layerId = "84435905-EDCB-4949-A8A3-0E53308A2F50";
paths = (
{
closed = 1;
nodes = (
"250 0 LINE",
"250 219 LINE SMOOTH",
"250 326 OFFCURVE",
"299 358 OFFCURVE",
"373 358 CURVE SMOOTH",
"388 358 OFFCURVE",
"403 357 OFFCURVE",
"419 354 CURVE",
"419 543 LINE",
"406 546 OFFCURVE",
"392 548 OFFCURVE",
"375 548 CURVE SMOOTH",
"296 548 OFFCURVE",
"265 501 OFFCURVE",
"248 417 CURVE",
"247 417 LINE",
"226 535 LINE",
"40 535 LINE",
"40 0 LINE"
);
}
);
userData = {
RMXScaler = {
height = 100.1;
};
};
width = 424;
},
{
anchors = (
{
name = bottom;
position = "{116, 0}";
},
{
name = top;
position = "{224, 528}";
}
);
background = {
paths = (
{
closed = 1;
nodes = (
"167 0 LINE",
"167 290 LINE SMOOTH",
"167 388 OFFCURVE",
"231 448 OFFCURVE",
"313 448 CURVE SMOOTH",
"334 448 OFFCURVE",
"350 445 OFFCURVE",
"363 442 CURVE",
"373 537 LINE",
"359 540 OFFCURVE",
"340 543 OFFCURVE",
"320 543 CURVE SMOOTH",
"250 543 OFFCURVE",
"200 510 OFFCURVE",
"170 437 CURVE",
"165 437 LINE",
"152 528 LINE",
"67 528 LINE",
"67 0 LINE"
);
}
);
};
layerId = "BBFAEC79-FC1B-4455-8BF7-285C9CA7D1F7";
paths = (
{
closed = 1;
nodes = (
"172 0 LINE",
"172 280 LINE SMOOTH",
"172 399 OFFCURVE",
"226 448 OFFCURVE",
"308 448 CURVE SMOOTH",
"324 448 OFFCURVE",
"345 446 OFFCURVE",
"358 443 CURVE",
"358 538 LINE",
"344 541 OFFCURVE",
"330 543 OFFCURVE",
"310 543 CURVE SMOOTH",
"240 543 OFFCURVE",
"200 510 OFFCURVE",
"171 447 CURVE",
"170 447 LINE",
"157 528 LINE",
"72 528 LINE",
"72 0 LINE"
);
}
);
width = 363;
},
{
anchors = (
{
name = bottom;
position = "{100, 0}";
},
{
name = top;
position = "{196, 515}";
}
);
background = {
paths = (
{
closed = 1;
nodes = (
"158 0 LINE",
"158 286 LINE SMOOTH",
"158 402 OFFCURVE",
"226 485 OFFCURVE",
"318 485 CURVE SMOOTH",
"338 485 OFFCURVE",
"356 482 OFFCURVE",
"366 479 CURVE",
"373 531 LINE",
"359 535 OFFCURVE",
"339 538 OFFCURVE",
"318 538 CURVE SMOOTH",
"237 538 OFFCURVE",
"185 487 OFFCURVE",
"161 428 CURVE",
"157 428 LINE",
"146 523 LINE",
"103 523 LINE",
"103 0 LINE"
);
}
);
};
layerId = "12E3E5E3-6B17-4D77-9A28-32D63F2CCD05";
paths = (
{
closed = 1;
nodes = (
"110 0 LINE",
"110 272 LINE SMOOTH",
"110 405 OFFCURVE",
"165 507 OFFCURVE",
"268 507 CURVE SMOOTH",
"286 507 OFFCURVE",
"305 505 OFFCURVE",
"317 501 CURVE",
"317 519 LINE",
"305 523 OFFCURVE",
"289 525 OFFCURVE",
"271 525 CURVE SMOOTH",
"187 525 OFFCURVE",
"129 468 OFFCURVE",
"110 380 CURVE",
"109 380 LINE",
"106 515 LINE",
"90 515 LINE",
"90 0 LINE"
);
}
);
width = 327;
}
);
leftMetricsKey = n;
unicode = 0072;
userData = {
RMXScaler = {
source = r;
};
};
},
{
color = 9;
glyphname = s;
lastChange = "2018-05-19 16:07:30 +0000";
layers = (
{
anchors = (
{
name = bottom;
position = "{287, 0}";
},
{
name = top;
position = "{282, 535}";
}
);
background = {
paths = (
{
closed = 1;
nodes = (
"459 -20 OFFCURVE",
"555 47 OFFCURVE",
"555 165 CURVE SMOOTH",
"555 266 OFFCURVE",
"491 315 OFFCURVE",
"373 337 CURVE SMOOTH",
"288 353 LINE SMOOTH",
"245 361 OFFCURVE",
"232 368 OFFCURVE",
"232 388 CURVE SMOOTH",
"232 406 OFFCURVE",
"250 415 OFFCURVE",
"286 415 CURVE SMOOTH",
"335 415 OFFCURVE",
"349 398 OFFCURVE",
"352 368 CURVE",
"549 384 LINE",
"537 503 OFFCURVE",
"454 553 OFFCURVE",
"281 553 CURVE SMOOTH",
"112 553 OFFCURVE",
"29 492 OFFCURVE",
"29 375 CURVE SMOOTH",
"29 280 OFFCURVE",
"86 217 OFFCURVE",
"216 193 CURVE SMOOTH",
"292 179 LINE SMOOTH",
"337 171 OFFCURVE",
"352 164 OFFCURVE",
"352 144 CURVE SMOOTH",
"352 124 OFFCURVE",
"332 115 OFFCURVE",
"289 115 CURVE SMOOTH",
"232 115 OFFCURVE",
"219 130 OFFCURVE",
"213 165 CURVE",
"15 148 LINE",
"23 33 OFFCURVE",
"106 -20 OFFCURVE",
"287 -20 CURVE SMOOTH"
);
}
);
};
layerId = "84435905-EDCB-4949-A8A3-0E53308A2F50";
paths = (
{
closed = 1;
nodes = (
"449 -20 OFFCURVE",
"545 47 OFFCURVE",
"545 165 CURVE SMOOTH",
"545 266 OFFCURVE",
"480 307 OFFCURVE",
"363 335 CURVE SMOOTH",
"288 353 LINE SMOOTH",
"255 361 OFFCURVE",
"242 368 OFFCURVE",
"242 388 CURVE SMOOTH",
"242 406 OFFCURVE",
"260 415 OFFCURVE",
"286 415 CURVE SMOOTH",
"325 415 OFFCURVE",
"337 401 OFFCURVE",
"347 368 CURVE",
"544 368 LINE",
"512 497 OFFCURVE",
"444 553 OFFCURVE",
"281 553 CURVE SMOOTH",
"122 553 OFFCURVE",
"39 492 OFFCURVE",
"39 375 CURVE SMOOTH",
"39 280 OFFCURVE",
"98 226 OFFCURVE",
"226 195 CURVE SMOOTH",
"292 179 LINE SMOOTH",
"327 171 OFFCURVE",
"342 164 OFFCURVE",
"342 144 CURVE SMOOTH",
"342 124 OFFCURVE",
"322 115 OFFCURVE",
"289 115 CURVE SMOOTH",
"247 115 OFFCURVE",
"230 130 OFFCURVE",
"218 165 CURVE",
"20 165 LINE",
"43 40 OFFCURVE",
"116 -20 OFFCURVE",
"287 -20 CURVE SMOOTH"
);
}
);
userData = {
RMXScaler = {
height = 100.1;
};
};
width = 565;
},
{
anchors = (
{
name = bottom;
position = "{259, 0}";
},
{
name = top;
position = "{252, 528}";
}
);
background = {
paths = (
{
closed = 1;
nodes = (
"395 -15 OFFCURVE",
"475 41 OFFCURVE",
"475 151 CURVE SMOOTH",
"475 236 OFFCURVE",
"424 277 OFFCURVE",
"308 301 CURVE SMOOTH",
"240 315 LINE SMOOTH",
"180 327 OFFCURVE",
"154 347 OFFCURVE",
"154 388 CURVE SMOOTH",
"154 437 OFFCURVE",
"188 464 OFFCURVE",
"257 464 CURVE SMOOTH",
"328 464 OFFCURVE",
"362 439 OFFCURVE",
"368 379 CURVE",
"467 387 LINE",
"459 493 OFFCURVE",
"392 545 OFFCURVE",
"258 545 CURVE SMOOTH",
"129 545 OFFCURVE",
"56 488 OFFCURVE",
"56 387 CURVE SMOOTH",
"56 293 OFFCURVE",
"114 255 OFFCURVE",
"219 232 CURVE SMOOTH",
"283 218 LINE SMOOTH",
"349 204 OFFCURVE",
"377 187 OFFCURVE",
"377 141 CURVE SMOOTH",
"377 92 OFFCURVE",
"333 65 OFFCURVE",
"263 65 CURVE SMOOTH",
"183 65 OFFCURVE",
"141 93 OFFCURVE",
"131 156 CURVE",
"32 148 LINE",
"42 41 OFFCURVE",
"110 -15 OFFCURVE",
"261 -15 CURVE SMOOTH"
);
}
);
};
layerId = "BBFAEC79-FC1B-4455-8BF7-285C9CA7D1F7";
paths = (
{
closed = 1;
nodes = (
"389 -15 OFFCURVE",
"469 41 OFFCURVE",
"469 151 CURVE SMOOTH",
"469 236 OFFCURVE",
"418 280 OFFCURVE",
"308 303 CURVE SMOOTH",
"240 317 LINE SMOOTH",
"185 328 OFFCURVE",
"159 349 OFFCURVE",
"159 390 CURVE SMOOTH",
"159 439 OFFCURVE",
"193 464 OFFCURVE",
"257 464 CURVE SMOOTH",
"322 464 OFFCURVE",
"351 439 OFFCURVE",
"367 379 CURVE",
"466 379 LINE",
"443 495 OFFCURVE",
"386 545 OFFCURVE",
"258 545 CURVE SMOOTH",
"135 545 OFFCURVE",
"62 488 OFFCURVE",
"62 387 CURVE SMOOTH",
"62 293 OFFCURVE",
"120 252 OFFCURVE",
"219 230 CURVE SMOOTH",
"283 216 LINE SMOOTH",
"344 203 OFFCURVE",
"372 185 OFFCURVE",
"372 141 CURVE SMOOTH",
"372 92 OFFCURVE",
"333 65 OFFCURVE",
"263 65 CURVE SMOOTH",
"189 65 OFFCURVE",
"159 91 OFFCURVE",
"132 155 CURVE",
"33 155 LINE",
"58 43 OFFCURVE",
"126 -15 OFFCURVE",
"261 -15 CURVE SMOOTH"
);
}
);
width = 507;
},
{
anchors = (
{
name = bottom;
position = "{245, 0}";
},
{
name = top;
position = "{238, 523}";
}
);
background = {
paths = (
{
closed = 1;
nodes = (
"365 -15 OFFCURVE",
"438 43 OFFCURVE",
"438 136 CURVE SMOOTH",
"438 228 OFFCURVE",
"378 264 OFFCURVE",
"288 282 CURVE SMOOTH",
"209 298 LINE SMOOTH",
"135 313 OFFCURVE",
"109 342 OFFCURVE",
"109 395 CURVE SMOOTH",
"109 461 OFFCURVE",
"155 492 OFFCURVE",
"236 492 CURVE SMOOTH",
"324 492 OFFCURVE",
"371 460 OFFCURVE",
"376 389 CURVE",
"430 394 LINE",
"423 493 OFFCURVE",
"356 540 OFFCURVE",
"237 540 CURVE SMOOTH",
"128 540 OFFCURVE",
"55 493 OFFCURVE",
"55 395 CURVE SMOOTH",
"55 317 OFFCURVE",
"96 269 OFFCURVE",
"198 248 CURVE SMOOTH",
"277 232 LINE SMOOTH",
"343 219 OFFCURVE",
"384 201 OFFCURVE",
"384 136 CURVE SMOOTH",
"384 72 OFFCURVE",
"332 33 OFFCURVE",
"243 33 CURVE SMOOTH",
"147 33 OFFCURVE",
"95 69 OFFCURVE",
"87 145 CURVE",
"32 140 LINE",
"38 40 OFFCURVE",
"111 -15 OFFCURVE",
"243 -15 CURVE SMOOTH"
);
}
);
};
layerId = "12E3E5E3-6B17-4D77-9A28-32D63F2CCD05";
paths = (
{
closed = 1;
nodes = (
"349 -15 OFFCURVE",
"418 37 OFFCURVE",
"418 127 CURVE SMOOTH",
"418 204 OFFCURVE",
"381 243 OFFCURVE",
"283 264 CURVE SMOOTH",
"208 280 LINE SMOOTH",
"124 298 OFFCURVE",
"94 329 OFFCURVE",
"94 394 CURVE SMOOTH",
"94 470 OFFCURVE",
"151 512 OFFCURVE",
"240 512 CURVE SMOOTH",
"328 512 OFFCURVE",
"375 478 OFFCURVE",
"397 390 CURVE",
"417 390 LINE",
"393 489 OFFCURVE",
"339 530 OFFCURVE",
"240 530 CURVE SMOOTH",
"140 530 OFFCURVE",
"74 480 OFFCURVE",
"74 394 CURVE SMOOTH",
"74 319 OFFCURVE",
"113 281 OFFCURVE",
"202 262 CURVE SMOOTH",
"277 246 LINE SMOOTH",
"366 227 OFFCURVE",
"398 196 OFFCURVE",
"398 127 CURVE SMOOTH",
"398 47 OFFCURVE",
"338 3 OFFCURVE",
"249 3 CURVE SMOOTH",
"146 3 OFFCURVE",
"98 41 OFFCURVE",
"70 129 CURVE",
"50 129 LINE",
"80 29 OFFCURVE",
"137 -15 OFFCURVE",
"249 -15 CURVE SMOOTH"
);
}
);
width = 468;
},
{
anchors = (
{
name = bottom;
position = "{272, 0}";
},
{
name = top;
position = "{265, 515}";
}
);
associatedMasterId = "12E3E5E3-6B17-4D77-9A28-32D63F2CCD05";
background = {
paths = (
{
closed = 1;
nodes = (
"381 -15 OFFCURVE",
"464 33 OFFCURVE",
"464 133 CURVE SMOOTH",
"464 224 OFFCURVE",
"404 257 OFFCURVE",
"305 278 CURVE SMOOTH",
"240 292 LINE SMOOTH",
"165 308 OFFCURVE",
"132 336 OFFCURVE",
"132 392 CURVE SMOOTH",
"132 450 OFFCURVE",
"178 483 OFFCURVE",
"263 483 CURVE SMOOTH",
"352 483 OFFCURVE",
"396 451 OFFCURVE",
"403 379 CURVE",
"458 379 LINE",
"449 483 OFFCURVE",
"383 530 OFFCURVE",
"263 530 CURVE SMOOTH",
"154 530 OFFCURVE",
"81 479 OFFCURVE",
"81 392 CURVE SMOOTH",
"81 299 OFFCURVE",
"146 261 OFFCURVE",
"224 244 CURVE SMOOTH",
"304 227 LINE SMOOTH",
"372 213 OFFCURVE",
"413 194 OFFCURVE",
"413 128 CURVE SMOOTH",
"413 63 OFFCURVE",
"356 31 OFFCURVE",
"267 31 CURVE SMOOTH",
"171 31 OFFCURVE",
"119 65 OFFCURVE",
"115 140 CURVE",
"60 140 LINE",
"60 39 OFFCURVE",
"135 -15 OFFCURVE",
"269 -15 CURVE SMOOTH"
);
}
);
};
layerId = "E18BE933-692F-4628-AF20-4DEC9AF53665";
name = "Sep 19 17, 14:20";
paths = (
{
closed = 1;
nodes = (
"381 -15 OFFCURVE",
"464 33 OFFCURVE",
"464 133 CURVE SMOOTH",
"464 225 OFFCURVE",
"404 262 OFFCURVE",
"305 280 CURVE SMOOTH",
"238 292 LINE SMOOTH",
"166 305 OFFCURVE",
"133 333 OFFCURVE",
"133 392 CURVE SMOOTH",
"133 452 OFFCURVE",
"179 484 OFFCURVE",
"263 484 CURVE SMOOTH",
"353 484 OFFCURVE",
"399 452 OFFCURVE",
"403 379 CURVE",
"458 379 LINE",
"452 483 OFFCURVE",
"385 530 OFFCURVE",
"263 530 CURVE SMOOTH",
"154 530 OFFCURVE",
"81 482 OFFCURVE",
"81 389 CURVE SMOOTH",
"81 293 OFFCURVE",
"146 260 OFFCURVE",
"222 245 CURVE SMOOTH",
"304 229 LINE SMOOTH",
"371 216 OFFCURVE",
"412 195 OFFCURVE",
"412 128 CURVE SMOOTH",
"412 63 OFFCURVE",
"355 31 OFFCURVE",
"267 31 CURVE SMOOTH",
"171 31 OFFCURVE",
"119 65 OFFCURVE",
"115 140 CURVE",
"60 140 LINE",
"60 39 OFFCURVE",
"135 -15 OFFCURVE",
"269 -15 CURVE SMOOTH"
);
}
);
width = 524;
}
);
unicode = 0073;
userData = {
RMXScaler = {
source = s;
};
};
},
{
color = 9;
glyphname = t;
lastChange = "2018-05-23 15:52:41 +0000";
layers = (
{
anchors = (
{
name = bottom;
position = "{253, 0}";
},
{
name = topright;
position = "{385, 555}";
}
);
background = {
paths = (
{
closed = 1;
nodes = (
"5 380 LINE",
"407 380 LINE",
"407 535 LINE",
"5 535 LINE"
);
},
{
closed = 1;
nodes = (
"397 153 LINE",
"382 150 OFFCURVE",
"366 148 OFFCURVE",
"351 148 CURVE SMOOTH",
"303 148 OFFCURVE",
"288 165 OFFCURVE",
"288 216 CURVE SMOOTH",
"288 690 LINE",
"112 690 LINE",
"83 535 LINE",
"83 161 LINE SMOOTH",
"83 41 OFFCURVE",
"141 -15 OFFCURVE",
"282 -15 CURVE SMOOTH",
"330 -15 OFFCURVE",
"388 -6 OFFCURVE",
"417 4 CURVE"
);
}
);
};
layerId = "84435905-EDCB-4949-A8A3-0E53308A2F50";
paths = (
{
closed = 1;
nodes = (
"5 380 LINE",
"397 380 LINE",
"397 535 LINE",
"5 535 LINE"
);
},
{
closed = 1;
nodes = (
"397 154 LINE",
"382 151 OFFCURVE",
"366 148 OFFCURVE",
"351 148 CURVE SMOOTH",
"308 148 OFFCURVE",
"288 165 OFFCURVE",
"288 216 CURVE SMOOTH",
"288 680 LINE",
"112 680 LINE",
"83 535 LINE",
"83 171 LINE SMOOTH",
"83 51 OFFCURVE",
"141 -15 OFFCURVE",
"282 -15 CURVE SMOOTH",
"330 -15 OFFCURVE",
"368 -7 OFFCURVE",
"397 2 CURVE"
);
}
);
userData = {
RMXScaler = {
height = 100.1;
};
};
width = 422;
},
{
anchors = (
{
name = bottom;
position = "{235, 0}";
},
{
name = topright;
position = "{302, 540}";
}
);
background = {
paths = (
{
closed = 1;
nodes = (
"-7 443 LINE",
"360 443 LINE",
"360 528 LINE",
"-7 528 LINE"
);
},
{
closed = 1;
nodes = (
"352 83 LINE",
"334 79 OFFCURVE",
"312 74 OFFCURVE",
"287 74 CURVE SMOOTH",
"227 74 OFFCURVE",
"198 97 OFFCURVE",
"198 166 CURVE SMOOTH",
"198 690 LINE",
"118 690 LINE",
"98 528 LINE",
"98 154 LINE SMOOTH",
"98 43 OFFCURVE",
"151 -13 OFFCURVE",
"264 -13 CURVE SMOOTH",
"300 -13 OFFCURVE",
"338 -6 OFFCURVE",
"362 1 CURVE"
);
}
);
};
layerId = "BBFAEC79-FC1B-4455-8BF7-285C9CA7D1F7";
paths = (
{
closed = 1;
nodes = (
"5 443 LINE",
"347 443 LINE",
"347 528 LINE",
"5 528 LINE"
);
},
{
closed = 1;
nodes = (
"352 83 LINE",
"334 79 OFFCURVE",
"312 74 OFFCURVE",
"287 74 CURVE SMOOTH",
"229 74 OFFCURVE",
"205 104 OFFCURVE",
"205 173 CURVE SMOOTH",
"205 670 LINE",
"125 670 LINE",
"105 528 LINE",
"105 159 LINE SMOOTH",
"105 48 OFFCURVE",
"155 -13 OFFCURVE",
"264 -13 CURVE SMOOTH",
"300 -13 OFFCURVE",
"327 -7 OFFCURVE",
"352 1 CURVE"
);
}
);
width = 372;
},
{
anchors = (
{
name = bottom;
position = "{218, 0}";
},
{
name = topright;
position = "{255, 525}";
}
);
background = {
paths = (
{
closed = 1;
nodes = (
"20 474 LINE",
"369 474 LINE",
"369 523 LINE",
"20 523 LINE"
);
},
{
closed = 1;
nodes = (
"364 51 LINE",
"344 45 OFFCURVE",
"319 40 OFFCURVE",
"292 40 CURVE SMOOTH",
"227 40 OFFCURVE",
"191 66 OFFCURVE",
"191 146 CURVE SMOOTH",
"191 690 LINE",
"151 690 LINE",
"136 523 LINE",
"136 146 LINE SMOOTH",
"136 45 OFFCURVE",
"180 -10 OFFCURVE",
"287 -10 CURVE SMOOTH",
"317 -10 OFFCURVE",
"346 -5 OFFCURVE",
"372 4 CURVE"
);
}
);
};
layerId = "12E3E5E3-6B17-4D77-9A28-32D63F2CCD05";
paths = (
{
closed = 1;
nodes = (
"13 497 LINE",
"308 497 LINE",
"308 515 LINE",
"13 515 LINE"
);
},
{
closed = 1;
nodes = (
"313 25 LINE",
"287 14 OFFCURVE",
"264 8 OFFCURVE",
"232 8 CURVE SMOOTH",
"165 8 OFFCURVE",
"138 46 OFFCURVE",
"138 119 CURVE SMOOTH",
"138 650 LINE",
"122 650 LINE",
"118 515 LINE",
"118 119 LINE SMOOTH",
"118 36 OFFCURVE",
"155 -10 OFFCURVE",
"232 -10 CURVE SMOOTH",
"262 -10 OFFCURVE",
"290 -3 OFFCURVE",
"313 7 CURVE"
);
}
);
width = 343;
}
);
unicode = 0074;
userData = {
RMXScaler = {
source = t;
};
};
},
{
color = 9;
glyphname = u;
lastChange = "2018-05-23 15:44:49 +0000";
layers = (
{
anchors = (
{
name = bottom;
position = "{305, 0}";
},
{
name = ogonek;
position = "{532, 0}";
},
{
name = top;
position = "{306, 535}";
}
);
background = {
paths = (
{
closed = 1;
nodes = (
"375 535 LINE",
"375 256 LINE SMOOTH",
"375 200 OFFCURVE",
"339 165 OFFCURVE",
"292 165 CURVE SMOOTH",
"247 165 OFFCURVE",
"232 193 OFFCURVE",
"232 243 CURVE SMOOTH",
"232 535 LINE",
"22 535 LINE",
"22 188 LINE SMOOTH",
"22 66 OFFCURVE",
"68 -15 OFFCURVE",
"193 -15 CURVE SMOOTH",
"286 -15 OFFCURVE",
"338 33 OFFCURVE",
"372 108 CURVE",
"379 108 LINE",
"399 0 LINE",
"585 0 LINE",
"585 535 LINE"
);
}
);
};
layerId = "84435905-EDCB-4949-A8A3-0E53308A2F50";
paths = (
{
closed = 1;
nodes = (
"572 535 LINE",
"362 535 LINE",
"362 256 LINE SMOOTH",
"362 200 OFFCURVE",
"346 165 OFFCURVE",
"301 165 CURVE SMOOTH",
"258 165 OFFCURVE",
"245 193 OFFCURVE",
"245 243 CURVE SMOOTH",
"245 535 LINE",
"35 535 LINE",
"35 188 LINE SMOOTH",
"35 66 OFFCURVE",
"80 -15 OFFCURVE",
"202 -15 CURVE SMOOTH",
"303 -15 OFFCURVE",
"341 43 OFFCURVE",
"365 98 CURVE",
"366 98 LINE",
"386 0 LINE",
"572 0 LINE"
);
}
);
userData = {
RMXScaler = {
height = 100.1;
};
};
width = 612;
},
{
anchors = (
{
name = bottom;
position = "{281, 0}";
},
{
name = ogonek;
position = "{485, 0}";
},
{
name = top;
position = "{284, 528}";
}
);
background = {
paths = (
{
closed = 1;
nodes = (
"407 528 LINE",
"407 238 LINE SMOOTH",
"407 140 OFFCURVE",
"345 74 OFFCURVE",
"262 74 CURVE SMOOTH",
"193 74 OFFCURVE",
"158 118 OFFCURVE",
"158 205 CURVE SMOOTH",
"158 528 LINE",
"58 528 LINE",
"58 172 LINE SMOOTH",
"58 52 OFFCURVE",
"118 -15 OFFCURVE",
"230 -15 CURVE SMOOTH",
"314 -15 OFFCURVE",
"369 28 OFFCURVE",
"404 91 CURVE",
"409 91 LINE",
"422 0 LINE",
"507 0 LINE",
"507 528 LINE"
);
}
);
};
layerId = "BBFAEC79-FC1B-4455-8BF7-285C9CA7D1F7";
paths = (
{
closed = 1;
nodes = (
"504 528 LINE",
"404 528 LINE",
"404 248 LINE SMOOTH",
"404 140 OFFCURVE",
"349 74 OFFCURVE",
"269 74 CURVE SMOOTH",
"197 74 OFFCURVE",
"162 118 OFFCURVE",
"162 205 CURVE SMOOTH",
"162 528 LINE",
"62 528 LINE",
"62 182 LINE SMOOTH",
"62 62 OFFCURVE",
"122 -15 OFFCURVE",
"242 -15 CURVE SMOOTH",
"328 -15 OFFCURVE",
"374 28 OFFCURVE",
"405 81 CURVE",
"406 81 LINE",
"419 0 LINE",
"504 0 LINE"
);
}
);
width = 576;
},
{
anchors = (
{
name = bottom;
position = "{292, 0}";
},
{
name = ogonek;
position = "{448, 0}";
},
{
name = top;
position = "{270, 515}";
}
);
background = {
paths = (
{
closed = 1;
nodes = (
"439 523 LINE",
"439 239 LINE SMOOTH",
"439 118 OFFCURVE",
"357 37 OFFCURVE",
"263 37 CURVE SMOOTH",
"180 37 OFFCURVE",
"139 84 OFFCURVE",
"139 185 CURVE SMOOTH",
"139 523 LINE",
"84 523 LINE",
"84 176 LINE SMOOTH",
"84 51 OFFCURVE",
"149 -15 OFFCURVE",
"255 -15 CURVE SMOOTH",
"343 -15 OFFCURVE",
"401 34 OFFCURVE",
"436 95 CURVE",
"440 95 LINE",
"451 0 LINE",
"494 0 LINE",
"494 523 LINE"
);
}
);
};
layerId = "12E3E5E3-6B17-4D77-9A28-32D63F2CCD05";
paths = (
{
closed = 1;
nodes = (
"455 515 LINE",
"435 515 LINE",
"435 233 LINE SMOOTH",
"435 96 OFFCURVE",
"358 4 OFFCURVE",
"250 4 CURVE SMOOTH",
"146 4 OFFCURVE",
"100 70 OFFCURVE",
"100 175 CURVE SMOOTH",
"100 515 LINE",
"80 515 LINE",
"80 175 LINE SMOOTH",
"80 55 OFFCURVE",
"136 -15 OFFCURVE",
"250 -15 CURVE SMOOTH",
"356 -15 OFFCURVE",
"416 63 OFFCURVE",
"435 135 CURVE",
"436 135 LINE",
"439 0 LINE",
"455 0 LINE"
);
}
);
width = 545;
}
);
leftMetricsKey = "=|n";
rightMetricsKey = "=|n";
unicode = 0075;
userData = {
RMXScaler = {
source = u;
};
};
},
{
color = 9;
glyphname = v;
lastChange = "2018-05-18 23:06:18 +0000";
layers = (
{
background = {
paths = (
{
closed = 1;
nodes = (
"320 193 LINE",
"314 193 LINE",
"219 535 LINE",
"-11 535 LINE",
"176 0 LINE",
"435 0 LINE",
"622 535 LINE",
"412 535 LINE"
);
}
);
};
layerId = "84435905-EDCB-4949-A8A3-0E53308A2F50";
paths = (
{
closed = 1;
nodes = (
"317 183 LINE",
"316 183 LINE",
"235 535 LINE",
"5 535 LINE",
"176 0 LINE",
"435 0 LINE",
"606 535 LINE",
"396 535 LINE"
);
}
);
userData = {
RMXScaler = {
height = 100.1;
};
};
width = 611;
},
{
background = {
paths = (
{
closed = 1;
nodes = (
"263 117 LINE",
"262 117 LINE",
"113 528 LINE",
"5 528 LINE",
"209 0 LINE",
"310 0 LINE",
"512 528 LINE",
"408 528 LINE"
);
}
);
};
layerId = "BBFAEC79-FC1B-4455-8BF7-285C9CA7D1F7";
paths = (
{
closed = 1;
nodes = (
"263 87 LINE",
"262 87 LINE",
"113 528 LINE",
"5 528 LINE",
"196 0 LINE",
"323 0 LINE",
"512 528 LINE",
"408 528 LINE"
);
}
);
width = 517;
},
{
background = {
paths = (
{
closed = 1;
nodes = (
"227 67 LINE",
"223 67 LINE",
"43 523 LINE",
"-16 523 LINE",
"194 0 LINE",
"253 0 LINE",
"463 523 LINE",
"406 523 LINE"
);
}
);
};
layerId = "12E3E5E3-6B17-4D77-9A28-32D63F2CCD05";
paths = (
{
closed = 1;
nodes = (
"223 26 LINE",
"222 26 LINE",
"27 515 LINE",
"5 515 LINE",
"212 0 LINE",
"232 0 LINE",
"439 515 LINE",
"418 515 LINE"
);
}
);
width = 444;
}
);
unicode = 0076;
userData = {
RMXScaler = {
source = v;
};
};
},
{
color = 9;
glyphname = w;
lastChange = "2018-05-18 23:09:27 +0000";
layers = (
{
anchors = (
{
name = top;
position = "{477, 535}";
}
);
background = {
paths = (
{
closed = 1;
nodes = (
"688 165 LINE",
"683 165 LINE",
"605 535 LINE",
"354 535 LINE",
"274 165 LINE",
"269 165 LINE",
"207 535 LINE",
"-23 535 LINE",
"121 0 LINE",
"386 0 LINE",
"461 334 LINE",
"465 334 LINE",
"538 0 LINE",
"803 0 LINE",
"947 535 LINE",
"752 535 LINE"
);
}
);
};
layerId = "84435905-EDCB-4949-A8A3-0E53308A2F50";
paths = (
{
closed = 1;
nodes = (
"668 165 LINE",
"667 165 LINE",
"593 535 LINE",
"365 535 LINE",
"289 165 LINE",
"288 165 LINE",
"230 535 LINE",
"5 535 LINE",
"140 0 LINE",
"391 0 LINE",
"462 334 LINE",
"463 334 LINE",
"532 0 LINE",
"783 0 LINE",
"918 535 LINE",
"728 535 LINE"
);
}
);
userData = {
RMXScaler = {
height = 100.1;
};
};
width = 923;
},
{
anchors = (
{
name = top;
position = "{404, 528}";
}
);
background = {
paths = (
{
closed = 1;
nodes = (
"579 115 LINE",
"578 115 LINE",
"454 528 LINE",
"354 528 LINE",
"233 115 LINE",
"232 115 LINE",
"113 528 LINE",
"5 528 LINE",
"177 0 LINE",
"277 0 LINE",
"401 396 LINE",
"402 396 LINE",
"522 0 LINE",
"622 0 LINE",
"794 528 LINE",
"695 528 LINE"
);
}
);
};
layerId = "BBFAEC79-FC1B-4455-8BF7-285C9CA7D1F7";
paths = (
{
closed = 1;
nodes = (
"573 95 LINE",
"572 95 LINE",
"459 528 LINE",
"346 528 LINE",
"233 95 LINE",
"232 95 LINE",
"113 528 LINE",
"5 528 LINE",
"169 0 LINE",
"287 0 LINE",
"399 426 LINE",
"400 426 LINE",
"509 0 LINE",
"627 0 LINE",
"791 528 LINE",
"692 528 LINE"
);
}
);
width = 796;
},
{
anchors = (
{
name = top;
position = "{361, 515}";
}
);
background = {
paths = (
{
closed = 1;
nodes = (
"574 73 LINE",
"570 73 LINE",
"424 523 LINE",
"364 523 LINE",
"219 73 LINE",
"215 73 LINE",
"64 523 LINE",
"5 523 LINE",
"186 0 LINE",
"246 0 LINE",
"391 448 LINE",
"393 448 LINE",
"540 0 LINE",
"600 0 LINE",
"781 523 LINE",
"724 523 LINE"
);
}
);
};
layerId = "12E3E5E3-6B17-4D77-9A28-32D63F2CCD05";
paths = (
{
closed = 1;
nodes = (
"530 27 LINE",
"529 27 LINE",
"371 515 LINE",
"348 515 LINE",
"190 26 LINE",
"189 26 LINE",
"27 515 LINE",
"5 515 LINE",
"179 0 LINE",
"201 0 LINE",
"359 488 LINE",
"360 488 LINE",
"518 0 LINE",
"540 0 LINE",
"714 515 LINE",
"693 515 LINE"
);
}
);
width = 719;
}
);
unicode = 0077;
userData = {
RMXScaler = {
source = w;
};
};
},
{
color = 9;
glyphname = x;
lastChange = "2018-05-18 13:50:52 +0000";
layers = (
{
background = {
paths = (
{
closed = 1;
nodes = (
"192 0 LINE",
"309 247 LINE",
"432 247 LINE",
"588 535 LINE",
"381 535 LINE",
"275 304 LINE",
"152 304 LINE",
"-15 0 LINE"
);
},
{
closed = 1;
nodes = (
"590 0 LINE",
"397 364 LINE",
"296 364 LINE",
"217 535 LINE",
"-13 535 LINE",
"179 171 LINE",
"280 171 LINE",
"360 0 LINE"
);
}
);
};
layerId = "84435905-EDCB-4949-A8A3-0E53308A2F50";
paths = (
{
closed = 1;
nodes = (
"202 0 LINE",
"309 247 LINE",
"422 247 LINE",
"568 535 LINE",
"371 535 LINE",
"275 304 LINE",
"162 304 LINE",
"5 0 LINE"
);
},
{
closed = 1;
nodes = (
"570 0 LINE",
"397 344 LINE",
"306 344 LINE",
"227 535 LINE",
"7 535 LINE",
"179 191 LINE",
"270 191 LINE",
"350 0 LINE"
);
}
);
userData = {
RMXScaler = {
height = 100.1;
};
};
width = 575;
},
{
background = {
paths = (
{
closed = 1;
nodes = (
"100 0 LINE",
"229 195 LINE",
"255 195 LINE",
"487 528 LINE",
"381 528 LINE",
"250 337 LINE",
"224 337 LINE",
"-6 0 LINE"
);
},
{
closed = 1;
nodes = (
"484 0 LINE",
"284 283 LINE",
"260 317 LINE",
"111 528 LINE",
"-1 528 LINE",
"192 254 LINE",
"218 218 LINE",
"372 0 LINE"
);
}
);
};
layerId = "BBFAEC79-FC1B-4455-8BF7-285C9CA7D1F7";
paths = (
{
closed = 1;
nodes = (
"110 0 LINE",
"234 200 LINE",
"257 200 LINE",
"476 528 LINE",
"371 528 LINE",
"246 332 LINE",
"223 332 LINE",
"5 0 LINE"
);
},
{
closed = 1;
nodes = (
"473 0 LINE",
"280 289 LINE",
"259 321 LINE",
"121 528 LINE",
"10 528 LINE",
"195 250 LINE",
"217 217 LINE",
"362 0 LINE"
);
}
);
width = 481;
},
{
background = {
paths = (
{
closed = 1;
nodes = (
"87 0 LINE",
"245 222 LINE",
"255 222 LINE",
"468 523 LINE",
"407 523 LINE",
"255 306 LINE",
"245 306 LINE",
"26 0 LINE"
);
},
{
closed = 1;
nodes = (
"473 0 LINE",
"274 275 LINE",
"260 294 LINE",
"95 523 LINE",
"31 523 LINE",
"223 258 LINE",
"238 238 LINE",
"409 0 LINE"
);
}
);
};
layerId = "12E3E5E3-6B17-4D77-9A28-32D63F2CCD05";
paths = (
{
closed = 1;
nodes = (
"42 0 LINE",
"224 253 LINE",
"227 253 LINE",
"414 515 LINE",
"392 515 LINE",
"214 267 LINE",
"211 267 LINE",
"20 0 LINE"
);
},
{
closed = 1;
nodes = (
"417 0 LINE",
"227 263 LINE",
"222 270 LINE",
"46 515 LINE",
"23 515 LINE",
"209 257 LINE",
"214 250 LINE",
"394 0 LINE"
);
}
);
width = 437;
}
);
unicode = 0078;
userData = {
RMXScaler = {
source = x;
};
};
},
{
color = 9;
glyphname = y;
lastChange = "2018-05-23 15:45:36 +0000";
layers = (
{
anchors = (
{
name = bottom;
position = "{544, 0}";
},
{
name = top;
position = "{316, 535}";
}
);
background = {
paths = (
{
closed = 1;
nodes = (
"317 183 LINE",
"316 183 LINE",
"235 535 LINE",
"5 535 LINE",
"176 0 LINE",
"435 0 LINE",
"606 535 LINE",
"396 535 LINE"
);
}
);
};
layerId = "84435905-EDCB-4949-A8A3-0E53308A2F50";
paths = (
{
closed = 1;
nodes = (
"317 193 LINE",
"316 193 LINE",
"235 535 LINE",
"5 535 LINE",
"170 20 LINE",
"307 20 LINE",
"260 38 LINE",
"241 -13 OFFCURVE",
"223 -35 OFFCURVE",
"168 -35 CURVE SMOOTH",
"144 -35 OFFCURVE",
"107 -31 OFFCURVE",
"85 -26 CURVE",
"65 -182 LINE",
"100 -192 OFFCURVE",
"152 -200 OFFCURVE",
"197 -200 CURVE SMOOTH",
"340 -200 OFFCURVE",
"394 -129 OFFCURVE",
"435 0 CURVE SMOOTH",
"606 535 LINE",
"396 535 LINE"
);
}
);
userData = {
RMXScaler = {
height = 100.1;
};
};
width = 611;
},
{
anchors = (
{
name = bottom;
position = "{414, 0}";
},
{
name = top;
position = "{258, 528}";
}
);
background = {
paths = (
{
closed = 1;
nodes = (
"263 87 LINE",
"262 87 LINE",
"113 528 LINE",
"5 528 LINE",
"196 0 LINE",
"323 0 LINE",
"512 528 LINE",
"408 528 LINE"
);
}
);
};
layerId = "BBFAEC79-FC1B-4455-8BF7-285C9CA7D1F7";
paths = (
{
closed = 1;
nodes = (
"263 87 LINE",
"262 87 LINE",
"113 528 LINE",
"5 528 LINE",
"196 0 LINE",
"262 0 LINE",
"242 37 LINE",
"206 -66 OFFCURVE",
"185 -112 OFFCURVE",
"117 -112 CURVE SMOOTH",
"94 -112 OFFCURVE",
"70 -107 OFFCURVE",
"45 -101 CURVE",
"45 -185 LINE",
"72 -194 OFFCURVE",
"102 -200 OFFCURVE",
"134 -200 CURVE SMOOTH",
"238 -200 OFFCURVE",
"279 -123 OFFCURVE",
"323 0 CURVE SMOOTH",
"512 528 LINE",
"408 528 LINE"
);
}
);
width = 517;
},
{
anchors = (
{
name = bottom;
position = "{361, 0}";
},
{
name = top;
position = "{226, 515}";
}
);
background = {
paths = (
{
closed = 1;
nodes = (
"223 26 LINE",
"222 26 LINE",
"27 515 LINE",
"5 515 LINE",
"212 0 LINE",
"232 0 LINE",
"439 515 LINE",
"418 515 LINE"
);
}
);
};
layerId = "12E3E5E3-6B17-4D77-9A28-32D63F2CCD05";
paths = (
{
closed = 1;
nodes = (
"223 26 LINE",
"222 26 LINE",
"27 515 LINE",
"5 515 LINE",
"212 0 LINE",
"212 0 LINE",
"185 -68 LINE SMOOTH",
"153 -149 OFFCURVE",
"127 -187 OFFCURVE",
"74 -187 CURVE SMOOTH",
"53 -187 OFFCURVE",
"33 -183 OFFCURVE",
"18 -177 CURVE",
"18 -195 LINE",
"34 -201 OFFCURVE",
"51 -205 OFFCURVE",
"74 -205 CURVE SMOOTH",
"137 -205 OFFCURVE",
"167 -161 OFFCURVE",
"202 -75 CURVE SMOOTH",
"439 515 LINE",
"418 515 LINE"
);
}
);
width = 444;
}
);
leftMetricsKey = v;
rightMetricsKey = v;
unicode = 0079;
userData = {
RMXScaler = {
source = y;
};
};
},
{
color = 9;
glyphname = z;
lastChange = "2018-05-23 15:45:54 +0000";
layers = (
{
anchors = (
{
name = top;
position = "{272, 535}";
}
);
background = {
paths = (
{
closed = 1;
nodes = (
"280 162 LINE",
"514 385 LINE",
"514 535 LINE",
"40 535 LINE",
"40 380 LINE",
"259 380 LINE",
"259 373 LINE",
"25 150 LINE",
"25 0 LINE",
"512 0 LINE",
"512 155 LINE",
"280 155 LINE"
);
}
);
};
layerId = "84435905-EDCB-4949-A8A3-0E53308A2F50";
paths = (
{
closed = 1;
nodes = (
"40 535 LINE",
"40 380 LINE",
"237 380 LINE",
"237 379 LINE",
"25 150 LINE",
"25 0 LINE",
"480 0 LINE",
"480 155 LINE",
"270 155 LINE",
"270 156 LINE",
"482 385 LINE",
"482 535 LINE"
);
}
);
userData = {
RMXScaler = {
height = 100.1;
};
};
width = 507;
},
{
anchors = (
{
name = top;
position = "{241, 528}";
}
);
background = {
paths = (
{
closed = 1;
nodes = (
"53 528 LINE",
"53 443 LINE",
"311 443 LINE",
"311 442 LINE",
"38 70 LINE",
"38 0 LINE",
"429 0 LINE",
"429 85 LINE",
"161 85 LINE",
"161 86 LINE",
"434 458 LINE",
"434 528 LINE"
);
}
);
};
layerId = "BBFAEC79-FC1B-4455-8BF7-285C9CA7D1F7";
paths = (
{
closed = 1;
nodes = (
"53 528 LINE",
"53 443 LINE",
"316 443 LINE",
"316 442 LINE",
"38 80 LINE",
"38 0 LINE",
"429 0 LINE",
"429 85 LINE",
"156 85 LINE",
"156 86 LINE",
"434 448 LINE",
"434 528 LINE"
);
}
);
width = 472;
},
{
anchors = (
{
name = top;
position = "{214, 515}";
}
);
background = {
paths = (
{
closed = 1;
nodes = (
"126 52 LINE",
"430 479 LINE",
"430 523 LINE",
"73 523 LINE",
"73 474 LINE",
"362 474 LINE",
"362 471 LINE",
"58 44 LINE",
"58 0 LINE",
"425 0 LINE",
"425 49 LINE",
"126 49 LINE"
);
}
);
};
layerId = "12E3E5E3-6B17-4D77-9A28-32D63F2CCD05";
paths = (
{
closed = 1;
nodes = (
"40 515 LINE",
"40 497 LINE",
"369 497 LINE",
"369 496 LINE",
"30 18 LINE",
"30 0 LINE",
"386 0 LINE",
"386 18 LINE",
"54 18 LINE",
"54 19 LINE",
"393 497 LINE",
"393 515 LINE"
);
}
);
width = 423;
}
);
unicode = 007A;
userData = {
RMXScaler = {
source = z;
};
};
},
{
color = 9;
glyphname = quotesingle;
lastChange = "2018-05-24 11:36:21 +0000";
layers = (
{
background = {
paths = (
{
closed = 1;
nodes = (
"54 770 OFFCURVE",
"10 730 OFFCURVE",
"10 666 CURVE SMOOTH",
"10 602 OFFCURVE",
"56 567 OFFCURVE",
"122 566 CURVE",
"98 599 LINE",
"89 556 OFFCURVE",
"65 510 OFFCURVE",
"25 446 CURVE",
"140 446 LINE",
"184 505 OFFCURVE",
"235 582 OFFCURVE",
"235 653 CURVE SMOOTH",
"235 734 OFFCURVE",
"188 770 OFFCURVE",
"119 770 CURVE SMOOTH"
);
}
);
};
layerId = "84435905-EDCB-4949-A8A3-0E53308A2F50";
paths = (
{
closed = 1;
nodes = (
"50 500 LINE",
"195 500 LINE",
"225 770 LINE",
"50 770 LINE"
);
}
);
width = 255;
},
{
layerId = "BBFAEC79-FC1B-4455-8BF7-285C9CA7D1F7";
paths = (
{
closed = 1;
nodes = (
"60 515 LINE",
"135 515 LINE",
"155 770 LINE",
"60 770 LINE"
);
}
);
width = 205;
},
{
background = {
paths = (
{
closed = 1;
nodes = (
"60 520 LINE",
"102 520 LINE",
"114 770 LINE",
"60 770 LINE"
);
}
);
};
layerId = "12E3E5E3-6B17-4D77-9A28-32D63F2CCD05";
paths = (
{
closed = 1;
nodes = (
"60 520 LINE",
"77 520 LINE",
"80 720 LINE",
"60 720 LINE"
);
}
);
width = 140;
}
);
unicode = 0027;
},
{
color = 9;
glyphname = numbersign;
lastChange = "2018-05-19 21:30:12 +0000";
layers = (
{
background = {
paths = (
{
closed = 1;
nodes = (
"257 0 LINE",
"427 710 LINE",
"257 710 LINE",
"87 0 LINE"
);
},
{
closed = 1;
nodes = (
"545 0 LINE",
"715 710 LINE",
"545 710 LINE",
"375 0 LINE"
);
},
{
closed = 1;
nodes = (
"722 140 LINE",
"722 275 LINE",
"30 275 LINE",
"30 140 LINE"
);
},
{
closed = 1;
nodes = (
"772 435 LINE",
"772 570 LINE",
"80 570 LINE",
"80 435 LINE"
);
}
);
};
layerId = "84435905-EDCB-4949-A8A3-0E53308A2F50";
paths = (
{
closed = 1;
nodes = (
"257 0 LINE",
"427 710 LINE",
"257 710 LINE",
"87 0 LINE"
);
},
{
closed = 1;
nodes = (
"545 0 LINE",
"715 710 LINE",
"545 710 LINE",
"375 0 LINE"
);
},
{
closed = 1;
nodes = (
"722 140 LINE",
"722 280 LINE",
"30 280 LINE",
"30 140 LINE"
);
},
{
closed = 1;
nodes = (
"772 430 LINE",
"772 570 LINE",
"80 570 LINE",
"80 430 LINE"
);
}
);
width = 802;
},
{
background = {
paths = (
{
closed = 1;
nodes = (
"221 0 LINE",
"391 710 LINE",
"300 710 LINE",
"130 0 LINE"
);
},
{
closed = 1;
nodes = (
"495 0 LINE",
"665 710 LINE",
"574 710 LINE",
"404 0 LINE"
);
},
{
closed = 1;
nodes = (
"686 159 LINE",
"686 240 LINE",
"55 240 LINE",
"55 159 LINE"
);
},
{
closed = 1;
nodes = (
"740 470 LINE",
"740 551 LINE",
"109 551 LINE",
"109 470 LINE"
);
}
);
};
layerId = "BBFAEC79-FC1B-4455-8BF7-285C9CA7D1F7";
paths = (
{
closed = 1;
nodes = (
"218 0 LINE",
"388 710 LINE",
"295 710 LINE",
"125 0 LINE"
);
},
{
closed = 1;
nodes = (
"500 0 LINE",
"670 710 LINE",
"577 710 LINE",
"407 0 LINE"
);
},
{
closed = 1;
nodes = (
"691 160 LINE",
"691 242 LINE",
"50 242 LINE",
"50 160 LINE"
);
},
{
closed = 1;
nodes = (
"745 468 LINE",
"745 550 LINE",
"104 550 LINE",
"104 468 LINE"
);
}
);
width = 795;
},
{
background = {
paths = (
{
closed = 1;
nodes = (
"188 0 LINE",
"358 710 LINE",
"305 710 LINE",
"135 0 LINE"
);
},
{
closed = 1;
nodes = (
"472 0 LINE",
"642 710 LINE",
"589 710 LINE",
"419 0 LINE"
);
},
{
closed = 1;
nodes = (
"667 170 LINE",
"667 218 LINE",
"50 218 LINE",
"50 170 LINE"
);
},
{
closed = 1;
nodes = (
"727 492 LINE",
"727 540 LINE",
"110 540 LINE",
"110 492 LINE"
);
}
);
};
layerId = "12E3E5E3-6B17-4D77-9A28-32D63F2CCD05";
paths = (
{
closed = 1;
nodes = (
"189 0 LINE",
"359 690 LINE",
"339 690 LINE",
"169 0 LINE"
);
},
{
closed = 1;
nodes = (
"469 0 LINE",
"639 690 LINE",
"619 690 LINE",
"449 0 LINE"
);
},
{
closed = 1;
nodes = (
"698 200 LINE",
"698 218 LINE",
"60 218 LINE",
"60 200 LINE"
);
},
{
closed = 1;
nodes = (
"748 472 LINE",
"748 490 LINE",
"110 490 LINE",
"110 472 LINE"
);
}
);
width = 808;
}
);
unicode = 0023;
},
{
color = 9;
glyphname = ampersand;
lastChange = "2018-05-24 22:59:45 +0000";
layers = (
{
background = {
paths = (
{
closed = 1;
nodes = (
"40 435 OFFCURVE",
"40 184 CURVE SMOOTH",
"40 47 OFFCURVE",
"156 -14 OFFCURVE",
"343 -14 CURVE SMOOTH",
"615 -14 OFFCURVE",
"752 169 OFFCURVE",
"752 400 CURVE",
"575 400 LINE",
"575 231 OFFCURVE",
"480 131 OFFCURVE",
"340 131 CURVE SMOOTH",
"269 131 OFFCURVE",
"235 158 OFFCURVE",
"235 205 CURVE SMOOTH",
"235 332 OFFCURVE",
"578 355 OFFCURVE",
"578 561 CURVE SMOOTH",
"578 660 OFFCURVE",
"501 725 OFFCURVE",
"351 725 CURVE SMOOTH",
"198 725 OFFCURVE",
"117 665 OFFCURVE",
"117 562 CURVE SMOOTH",
"117 457 OFFCURVE",
"195 393 OFFCURVE",
"240 348 CURVE SMOOTH",
"591 0 LINE",
"786 0 LINE",
"382 409 LINE SMOOTH",
"325 466 OFFCURVE",
"287 506 OFFCURVE",
"287 548 CURVE SMOOTH",
"287 583 OFFCURVE",
"310 600 OFFCURVE",
"347 600 CURVE SMOOTH",
"387 600 OFFCURVE",
"408 583 OFFCURVE",
"408 550 CURVE SMOOTH",
"408 424 OFFCURVE"
);
}
);
};
layerId = "84435905-EDCB-4949-A8A3-0E53308A2F50";
paths = (
{
closed = 1;
nodes = (
"35 435 OFFCURVE",
"35 184 CURVE SMOOTH",
"35 47 OFFCURVE",
"151 -15 OFFCURVE",
"343 -15 CURVE SMOOTH",
"615 -15 OFFCURVE",
"757 169 OFFCURVE",
"757 400 CURVE",
"570 400 LINE",
"570 231 OFFCURVE",
"480 136 OFFCURVE",
"340 136 CURVE SMOOTH",
"269 136 OFFCURVE",
"240 160 OFFCURVE",
"240 207 CURVE SMOOTH",
"240 334 OFFCURVE",
"583 355 OFFCURVE",
"583 561 CURVE SMOOTH",
"583 660 OFFCURVE",
"506 730 OFFCURVE",
"351 730 CURVE SMOOTH",
"193 730 OFFCURVE",
"112 665 OFFCURVE",
"112 562 CURVE SMOOTH",
"112 457 OFFCURVE",
"195 393 OFFCURVE",
"240 348 CURVE SMOOTH",
"591 0 LINE",
"796 0 LINE",
"392 409 LINE SMOOTH",
"335 466 OFFCURVE",
"287 506 OFFCURVE",
"287 548 CURVE SMOOTH",
"287 583 OFFCURVE",
"310 600 OFFCURVE",
"347 600 CURVE SMOOTH",
"387 600 OFFCURVE",
"408 583 OFFCURVE",
"408 550 CURVE SMOOTH",
"408 424 OFFCURVE"
);
}
);
width = 801;
},
{
background = {
paths = (
{
closed = 1;
nodes = (
"50 416 OFFCURVE",
"50 174 CURVE SMOOTH",
"50 41 OFFCURVE",
"162 -14 OFFCURVE",
"309 -14 CURVE SMOOTH",
"552 -14 OFFCURVE",
"674 165 OFFCURVE",
"674 400 CURVE",
"580 400 LINE",
"580 198 OFFCURVE",
"490 71 OFFCURVE",
"306 71 CURVE SMOOTH",
"206 71 OFFCURVE",
"153 112 OFFCURVE",
"153 182 CURVE SMOOTH",
"153 363 OFFCURVE",
"510 367 OFFCURVE",
"510 578 CURVE SMOOTH",
"510 672 OFFCURVE",
"439 725 OFFCURVE",
"323 725 CURVE SMOOTH",
"187 725 OFFCURVE",
"127 661 OFFCURVE",
"127 579 CURVE SMOOTH",
"127 499 OFFCURVE",
"183 439 OFFCURVE",
"227 393 CURVE SMOOTH",
"606 0 LINE",
"723 0 LINE",
"319 422 LINE SMOOTH",
"264 481 OFFCURVE",
"222 518 OFFCURVE",
"222 574 CURVE SMOOTH",
"222 616 OFFCURVE",
"252 648 OFFCURVE",
"323 648 CURVE SMOOTH",
"378 648 OFFCURVE",
"419 625 OFFCURVE",
"419 573 CURVE SMOOTH",
"419 421 OFFCURVE"
);
}
);
};
layerId = "BBFAEC79-FC1B-4455-8BF7-285C9CA7D1F7";
paths = (
{
closed = 1;
nodes = (
"50 416 OFFCURVE",
"50 174 CURVE SMOOTH",
"50 41 OFFCURVE",
"162 -14 OFFCURVE",
"309 -14 CURVE SMOOTH",
"552 -14 OFFCURVE",
"674 165 OFFCURVE",
"674 400 CURVE",
"579 400 LINE",
"579 198 OFFCURVE",
"490 71 OFFCURVE",
"306 71 CURVE SMOOTH",
"206 71 OFFCURVE",
"153 112 OFFCURVE",
"153 182 CURVE SMOOTH",
"153 363 OFFCURVE",
"510 367 OFFCURVE",
"510 578 CURVE SMOOTH",
"510 672 OFFCURVE",
"439 725 OFFCURVE",
"323 725 CURVE SMOOTH",
"187 725 OFFCURVE",
"127 661 OFFCURVE",
"127 579 CURVE SMOOTH",
"127 499 OFFCURVE",
"183 439 OFFCURVE",
"227 393 CURVE SMOOTH",
"605 0 LINE",
"722 0 LINE",
"319 422 LINE SMOOTH",
"263 480 OFFCURVE",
"222 518 OFFCURVE",
"222 574 CURVE SMOOTH",
"222 616 OFFCURVE",
"252 648 OFFCURVE",
"323 648 CURVE SMOOTH",
"378 648 OFFCURVE",
"419 625 OFFCURVE",
"419 573 CURVE SMOOTH",
"419 421 OFFCURVE"
);
}
);
width = 742;
},
{
background = {
paths = (
{
closed = 1;
nodes = (
"585 360 LINE",
"539 230 LINE SMOOTH",
"477 55 OFFCURVE",
"413 0 OFFCURVE",
"277 0 CURVE SMOOTH",
"171 0 OFFCURVE",
"85 62 OFFCURVE",
"85 157 CURVE SMOOTH",
"85 242 OFFCURVE",
"131 283 OFFCURVE",
"243 354 CURVE SMOOTH",
"294 386 LINE SMOOTH",
"400 452 OFFCURVE",
"444 509 OFFCURVE",
"444 575 CURVE SMOOTH",
"444 661 OFFCURVE",
"382 710 OFFCURVE",
"286 710 CURVE SMOOTH",
"181 710 OFFCURVE",
"115 662 OFFCURVE",
"115 570 CURVE SMOOTH",
"115 512 OFFCURVE",
"145 463 OFFCURVE",
"200 409 CURVE SMOOTH",
"614 0 LINE",
"639 0 LINE",
"211 423 LINE SMOOTH",
"159 474 OFFCURVE",
"135 522 OFFCURVE",
"135 570 CURVE SMOOTH",
"135 652 OFFCURVE",
"192 692 OFFCURVE",
"286 692 CURVE SMOOTH",
"372 692 OFFCURVE",
"424 650 OFFCURVE",
"424 574 CURVE SMOOTH",
"424 511 OFFCURVE",
"383 463 OFFCURVE",
"282 399 CURVE SMOOTH",
"231 367 LINE SMOOTH",
"113 293 OFFCURVE",
"65 248 OFFCURVE",
"65 157 CURVE SMOOTH",
"65 51 OFFCURVE",
"155 -19 OFFCURVE",
"278 -19 CURVE SMOOTH",
"418 -19 OFFCURVE",
"490 37 OFFCURVE",
"556 224 CURVE SMOOTH",
"604 360 LINE"
);
}
);
};
layerId = "12E3E5E3-6B17-4D77-9A28-32D63F2CCD05";
paths = (
{
closed = 1;
nodes = (
"593 360 LINE",
"538 230 LINE SMOOTH",
"469 67 OFFCURVE",
"403 4 OFFCURVE",
"267 4 CURVE SMOOTH",
"161 4 OFFCURVE",
"85 56 OFFCURVE",
"85 147 CURVE SMOOTH",
"85 346 OFFCURVE",
"444 376 OFFCURVE",
"444 570 CURVE SMOOTH",
"444 656 OFFCURVE",
"382 705 OFFCURVE",
"286 705 CURVE SMOOTH",
"181 705 OFFCURVE",
"115 657 OFFCURVE",
"115 565 CURVE SMOOTH",
"115 507 OFFCURVE",
"144 463 OFFCURVE",
"199 409 CURVE SMOOTH",
"612 0 LINE",
"639 0 LINE",
"211 423 LINE SMOOTH",
"159 474 OFFCURVE",
"135 517 OFFCURVE",
"135 565 CURVE SMOOTH",
"135 647 OFFCURVE",
"192 686 OFFCURVE",
"286 686 CURVE SMOOTH",
"372 686 OFFCURVE",
"425 645 OFFCURVE",
"425 569 CURVE SMOOTH",
"425 388 OFFCURVE",
"65 358 OFFCURVE",
"65 147 CURVE SMOOTH",
"65 45 OFFCURVE",
"145 -15 OFFCURVE",
"268 -15 CURVE SMOOTH",
"408 -15 OFFCURVE",
"482 50 OFFCURVE",
"556 224 CURVE SMOOTH",
"614 360 LINE"
);
}
);
width = 679;
}
);
unicode = 0026;
},
{
color = 9;
glyphname = asterisk;
lastChange = "2018-05-24 22:52:48 +0000";
layers = (
{
background = {
paths = (
{
closed = 1;
nodes = (
"398 778 LINE",
"285 741 LINE",
"290 850 LINE",
"161 850 LINE",
"166 741 LINE",
"53 778 LINE",
"20 657 LINE",
"133 626 LINE",
"42 548 LINE",
"125 454 LINE",
"226 551 LINE",
"326 455 LINE",
"409 548 LINE",
"320 626 LINE",
"431 657 LINE"
);
}
);
};
layerId = "84435905-EDCB-4949-A8A3-0E53308A2F50";
paths = (
{
closed = 1;
nodes = (
"398 778 LINE",
"285 741 LINE",
"290 850 LINE",
"161 850 LINE",
"166 741 LINE",
"53 778 LINE",
"20 657 LINE",
"133 626 LINE",
"42 548 LINE",
"125 454 LINE",
"226 551 LINE",
"326 455 LINE",
"409 548 LINE",
"320 626 LINE",
"431 657 LINE"
);
}
);
width = 451;
},
{
background = {
paths = (
{
closed = 1;
nodes = (
"345 761 LINE",
"223 727 LINE",
"225 850 LINE",
"159 850 LINE",
"160 727 LINE",
"38 761 LINE",
"20 697 LINE",
"139 665 LINE",
"44 568 LINE",
"97 521 LINE",
"191 621 LINE",
"286 521 LINE",
"340 568 LINE",
"244 665 LINE",
"364 697 LINE"
);
}
);
};
layerId = "BBFAEC79-FC1B-4455-8BF7-285C9CA7D1F7";
paths = (
{
closed = 1;
nodes = (
"345 761 LINE",
"225 727 LINE",
"227 850 LINE",
"156 850 LINE",
"158 727 LINE",
"38 761 LINE",
"20 697 LINE",
"139 665 LINE",
"45 568 LINE",
"97 521 LINE",
"191 621 LINE",
"286 521 LINE",
"339 568 LINE",
"244 665 LINE",
"364 697 LINE"
);
}
);
width = 384;
},
{
background = {
paths = (
{
closed = 1;
nodes = (
"327 757 LINE",
"201 722 LINE",
"202 850 LINE",
"156 850 LINE",
"157 722 LINE",
"31 757 LINE",
"20 717 LINE",
"146 682 LINE",
"46 574 LINE",
"79 545 LINE",
"179 655 LINE",
"279 545 LINE",
"312 574 LINE",
"212 682 LINE",
"338 717 LINE"
);
}
);
};
layerId = "12E3E5E3-6B17-4D77-9A28-32D63F2CCD05";
paths = (
{
closed = 1;
nodes = (
"337 686 LINE",
"208 654 LINE",
"209 790 LINE",
"189 790 LINE",
"190 654 LINE",
"61 686 LINE",
"55 667 LINE",
"186 637 LINE",
"87 523 LINE",
"102 510 LINE",
"199 624 LINE",
"296 510 LINE",
"311 523 LINE",
"212 637 LINE",
"343 667 LINE"
);
}
);
width = 398;
}
);
unicode = 002A;
},
{
color = 9;
glyphname = comma;
lastChange = "2018-05-19 21:23:45 +0000";
layers = (
{
background = {
paths = (
{
closed = 1;
nodes = (
"226 -15 OFFCURVE",
"273 25 OFFCURVE",
"273 92 CURVE SMOOTH",
"273 159 OFFCURVE",
"226 199 OFFCURVE",
"156 199 CURVE SMOOTH",
"86 199 OFFCURVE",
"40 159 OFFCURVE",
"40 92 CURVE SMOOTH",
"40 25 OFFCURVE",
"86 -15 OFFCURVE",
"156 -15 CURVE SMOOTH"
);
}
);
};
layerId = "84435905-EDCB-4949-A8A3-0E53308A2F50";
paths = (
{
closed = 1;
nodes = (
"212 -112 OFFCURVE",
"273 -6 OFFCURVE",
"273 74 CURVE SMOOTH",
"273 146 OFFCURVE",
"230 193 OFFCURVE",
"155 193 CURVE SMOOTH",
"88 193 OFFCURVE",
"42 152 OFFCURVE",
"42 86 CURVE SMOOTH",
"42 21 OFFCURVE",
"91 -15 OFFCURVE",
"160 -15 CURVE",
"138 19 LINE",
"131 -20 OFFCURVE",
"92 -100 OFFCURVE",
"45 -164 CURVE",
"134 -200 LINE"
);
}
);
width = 313;
},
{
background = {
paths = (
{
closed = 1;
nodes = (
"171 -10 OFFCURVE",
"200 11 OFFCURVE",
"200 57 CURVE SMOOTH",
"200 103 OFFCURVE",
"171 123 OFFCURVE",
"130 123 CURVE SMOOTH",
"88 123 OFFCURVE",
"60 103 OFFCURVE",
"60 57 CURVE SMOOTH",
"60 11 OFFCURVE",
"88 -10 OFFCURVE",
"130 -10 CURVE SMOOTH"
);
}
);
};
layerId = "BBFAEC79-FC1B-4455-8BF7-285C9CA7D1F7";
paths = (
{
closed = 1;
nodes = (
"159 -105 OFFCURVE",
"199 -33 OFFCURVE",
"199 39 CURVE SMOOTH",
"199 86 OFFCURVE",
"177 119 OFFCURVE",
"127 119 CURVE SMOOTH",
"87 119 OFFCURVE",
"61 93 OFFCURVE",
"61 53 CURVE SMOOTH",
"61 8 OFFCURVE",
"95 -10 OFFCURVE",
"137 -10 CURVE",
"128 19 LINE",
"123 -35 OFFCURVE",
"91 -102 OFFCURVE",
"55 -151 CURVE",
"107 -171 LINE"
);
}
);
width = 259;
},
{
background = {
paths = (
{
closed = 1;
nodes = (
"111 -110 OFFCURVE",
"146 -33 OFFCURVE",
"146 28 CURVE SMOOTH",
"146 63 OFFCURVE",
"129 83 OFFCURVE",
"100 83 CURVE SMOOTH",
"75 83 OFFCURVE",
"56 67 OFFCURVE",
"56 37 CURVE SMOOTH",
"56 10 OFFCURVE",
"78 -6 OFFCURVE",
"110 -6 CURVE",
"102 4 LINE",
"98 -42 OFFCURVE",
"71 -102 OFFCURVE",
"37 -150 CURVE",
"69 -165 LINE"
);
}
);
};
layerId = "12E3E5E3-6B17-4D77-9A28-32D63F2CCD05";
paths = (
{
closed = 1;
nodes = (
"62 -160 LINE",
"92 -105 OFFCURVE",
"123 -29 OFFCURVE",
"123 13 CURVE SMOOTH",
"123 38 OFFCURVE",
"112 54 OFFCURVE",
"91 54 CURVE SMOOTH",
"72 54 OFFCURVE",
"59 41 OFFCURVE",
"59 21 CURVE SMOOTH",
"59 1 OFFCURVE",
"72 -10 OFFCURVE",
"91 -10 CURVE SMOOTH",
"98 -10 OFFCURVE",
"104 -8 OFFCURVE",
"109 -5 CURVE",
"104 -1 LINE",
"98 -39 OFFCURVE",
"72 -106 OFFCURVE",
"42 -160 CURVE"
);
}
);
width = 173;
}
);
rightMetricsKey = period;
unicode = 002C;
},
{
color = 9;
glyphname = hyphen;
lastChange = "2018-05-19 21:14:23 +0000";
layers = (
{
background = {
paths = (
{
closed = 1;
nodes = (
"80 191 LINE",
"475 191 LINE",
"475 346 LINE",
"80 346 LINE"
);
}
);
};
layerId = "84435905-EDCB-4949-A8A3-0E53308A2F50";
paths = (
{
closed = 1;
nodes = (
"80 191 LINE",
"445 191 LINE",
"445 346 LINE",
"80 346 LINE"
);
}
);
width = 525;
},
{
background = {
paths = (
{
closed = 1;
nodes = (
"80 217 LINE",
"421 217 LINE",
"421 302 LINE",
"80 302 LINE"
);
}
);
};
layerId = "BBFAEC79-FC1B-4455-8BF7-285C9CA7D1F7";
paths = (
{
closed = 1;
nodes = (
"80 217 LINE",
"391 217 LINE",
"391 302 LINE",
"80 302 LINE"
);
}
);
width = 471;
},
{
background = {
paths = (
{
closed = 1;
nodes = (
"60 245 LINE",
"350 245 LINE",
"350 293 LINE",
"60 293 LINE"
);
}
);
};
layerId = "12E3E5E3-6B17-4D77-9A28-32D63F2CCD05";
paths = (
{
closed = 1;
nodes = (
"60 255 LINE",
"330 255 LINE",
"330 273 LINE",
"60 273 LINE"
);
}
);
width = 390;
}
);
unicode = 002D;
},
{
color = 9;
glyphname = period;
lastChange = "2018-05-19 21:17:49 +0000";
layers = (
{
background = {
paths = (
{
closed = 1;
nodes = (
"223 -14 OFFCURVE",
"267 24 OFFCURVE",
"267 88 CURVE SMOOTH",
"267 152 OFFCURVE",
"223 190 OFFCURVE",
"156 190 CURVE SMOOTH",
"89 190 OFFCURVE",
"46 152 OFFCURVE",
"46 88 CURVE SMOOTH",
"46 24 OFFCURVE",
"89 -14 OFFCURVE",
"156 -14 CURVE SMOOTH"
);
}
);
};
layerId = "84435905-EDCB-4949-A8A3-0E53308A2F50";
paths = (
{
closed = 1;
nodes = (
"226 -15 OFFCURVE",
"273 25 OFFCURVE",
"273 92 CURVE SMOOTH",
"273 159 OFFCURVE",
"226 199 OFFCURVE",
"156 199 CURVE SMOOTH",
"86 199 OFFCURVE",
"40 159 OFFCURVE",
"40 92 CURVE SMOOTH",
"40 25 OFFCURVE",
"86 -15 OFFCURVE",
"156 -15 CURVE SMOOTH"
);
}
);
width = 313;
},
{
background = {
paths = (
{
closed = 1;
nodes = (
"169 -8 OFFCURVE",
"197 12 OFFCURVE",
"197 56 CURVE SMOOTH",
"197 100 OFFCURVE",
"169 119 OFFCURVE",
"130 119 CURVE SMOOTH",
"90 119 OFFCURVE",
"63 100 OFFCURVE",
"63 56 CURVE SMOOTH",
"63 12 OFFCURVE",
"90 -8 OFFCURVE",
"130 -8 CURVE SMOOTH"
);
}
);
};
layerId = "BBFAEC79-FC1B-4455-8BF7-285C9CA7D1F7";
paths = (
{
closed = 1;
nodes = (
"171 -10 OFFCURVE",
"200 11 OFFCURVE",
"200 57 CURVE SMOOTH",
"200 103 OFFCURVE",
"171 123 OFFCURVE",
"130 123 CURVE SMOOTH",
"88 123 OFFCURVE",
"60 103 OFFCURVE",
"60 57 CURVE SMOOTH",
"60 11 OFFCURVE",
"88 -10 OFFCURVE",
"130 -10 CURVE SMOOTH"
);
}
);
width = 260;
},
{
background = {
paths = (
{
closed = 1;
nodes = (
"116 -5 OFFCURVE",
"136 11 OFFCURVE",
"136 41 CURVE SMOOTH",
"136 71 OFFCURVE",
"116 87 OFFCURVE",
"91 87 CURVE SMOOTH",
"65 87 OFFCURVE",
"46 71 OFFCURVE",
"46 41 CURVE SMOOTH",
"46 11 OFFCURVE",
"65 -5 OFFCURVE",
"91 -5 CURVE SMOOTH"
);
}
);
};
layerId = "12E3E5E3-6B17-4D77-9A28-32D63F2CCD05";
paths = (
{
closed = 1;
nodes = (
"101 -10 OFFCURVE",
"114 2 OFFCURVE",
"114 22 CURVE SMOOTH",
"114 42 OFFCURVE",
"101 54 OFFCURVE",
"82 54 CURVE SMOOTH",
"63 54 OFFCURVE",
"50 42 OFFCURVE",
"50 22 CURVE SMOOTH",
"50 2 OFFCURVE",
"63 -10 OFFCURVE",
"82 -10 CURVE SMOOTH"
);
}
);
width = 164;
}
);
unicode = 002E;
},
